<?xml version="1.0" encoding="UTF-8"?>
<svg xmlns="http://www.w3.org/2000/svg" xmlns:xlink="http://www.w3.org/1999/xlink" version="1.2" >
<font id="Gotham XNarrow Black">
<font-face  font-family="Gotham XNarrow" units-per-em="1000" ascent="800" descent="-200" font-style="normal" font-weight="450" font-stretch="condensed" cap-height="700" x-height="541" underline-position="-75" underline-thickness="50" />
<missing-glyph  horiz-adv-x="500" d="M0 -200 L500 -200 L500 800 L0 800 L0 -200 Z M71 750 L429 750 L250 360 L71 750 Z M50 -76 L50 676 L222 300 L50 -76 Z M450 676 L450 -76 L278 300 L450 676 Z M250 240 L429 -150 L71 -150 L250 240 Z " />
<glyph glyph-name="NULL" d="" />
<glyph glyph-name="CR" unicode="&#xd;" horiz-adv-x="250" d="" />
<glyph glyph-name="space" unicode="&#x20;" horiz-adv-x="176" d="" />
<glyph glyph-name="exclam" unicode="&#x21;" horiz-adv-x="263" d="M90 226 L173 226 L229 663 L229 700 L35 700 L35 663 L90 226 Z M44 0 L219 0 L219 163 L44 163 L44 0 Z " />
<glyph glyph-name="quotedbl" unicode="&#x22;" horiz-adv-x="417" d="M234 368 L305 368 L403 693 L403 700 L241 700 L234 368 Z M33 368 L105 368 L202 693 L202 700 L41 700 L33 368 Z " />
<glyph glyph-name="numbersign" unicode="&#x23;" horiz-adv-x="511" d="M469 286 L402 286 L419 418 L493 418 L493 560 L436 560 L454 700 L341 700 L324 560 L239 560 L257 700 L144 700 L126 560 L42 560 L42 418 L109 418 L92 286 L19 286 L19 145 L75 145 L57 0 L170 0 L187 145 L272 145 L254 0 L367 0 L385 145 L469 145 L469 286 Z M218 422 L310 422 L293 282 L201 282 L218 422 Z " />
<glyph glyph-name="dollar" unicode="&#x24;" horiz-adv-x="472" d="M455 624 C412 664 353 689 294 698 L294 769 L189 769 L189 695 C94 674 32 602 32 500 L32 497 C32 393 90 339 213 274 C274 241 292 221 292 196 L292 194 C292 166 272 143 231 143 C182 143 128 171 82 213 L3 90 C55 38 124 9 189 0 L189 -104 L293 -104 L293 5 C386 27 452 99 452 201 L452 205 C452 304 397 361 280 423 C211 463 192 479 192 509 L192 510 C192 534 209 558 250 558 C298 558 345 529 375 501 L455 624 Z " />
<glyph glyph-name="percent" unicode="&#x25;" horiz-adv-x="685" d="M163 322 C245 322 301 393 301 509 L301 521 C301 637 245 708 163 708 C82 708 25 637 25 521 L25 508 C25 392 81 322 163 322 L163 322 Z M163 613 C188 613 201 582 201 520 L201 509 C201 447 189 417 163 417 C138 417 126 447 126 509 L126 521 C126 582 138 613 163 613 L163 613 Z M306 364 L94 0 L193 0 L380 335 L593 700 L494 700 L306 364 Z M522 -8 C604 -8 660 63 660 179 L660 192 C660 308 604 378 522 378 C440 378 384 308 384 192 L384 179 C384 63 440 -8 522 -8 L522 -8 Z M522 88 C497 88 484 118 484 180 L484 191 C484 253 497 284 522 284 C547 284 559 253 559 191 L559 180 C559 118 547 88 522 88 L522 88 Z " />
<glyph glyph-name="ampersand" unicode="&#x26;" horiz-adv-x="545" d="M421 -15 L535 58 L469 147 C496 194 516 250 532 318 L415 354 C405 317 395 287 384 262 L320 355 C389 401 434 460 434 541 L434 545 C434 642 367 712 259 712 C148 712 77 635 77 541 L77 537 C77 486 93 445 132 387 C54 336 15 272 15 189 L15 185 C15 63 105 -11 222 -11 C284 -11 333 9 377 45 L421 -15 Z M249 445 C226 479 216 506 216 536 L216 537 C216 568 232 591 259 591 C283 591 300 569 300 538 L300 537 C300 503 284 472 249 445 L249 445 Z M243 120 C200 120 173 151 173 197 L173 200 C173 228 184 259 208 283 L302 143 C285 129 264 120 243 120 L243 120 Z " />
<glyph glyph-name="quotesingle" unicode="&#x27;" horiz-adv-x="219" d="M33 368 L105 368 L205 693 L205 700 L41 700 L33 368 Z " />
<glyph glyph-name="parenleft" unicode="&#x28;" horiz-adv-x="343" d="M279 -139 L333 -36 C215 34 187 148 187 286 L187 288 C187 426 215 540 333 610 L279 713 C125 649 33 512 33 295 L33 279 C33 62 125 -75 279 -139 L279 -139 Z " />
<glyph glyph-name="parenright" unicode="&#x29;" horiz-adv-x="343" d="M64 -139 C218 -75 310 62 310 279 L310 295 C310 512 218 649 64 713 L10 610 C128 540 156 426 156 288 L156 286 C156 148 128 34 10 -36 L64 -139 Z " />
<glyph glyph-name="asterisk" unicode="&#x2a;" horiz-adv-x="353" d="M126 374 L228 374 L201 494 L286 413 L337 501 L224 537 L337 574 L286 662 L201 581 L228 701 L126 701 L152 581 L68 662 L17 574 L129 537 L17 501 L68 413 L152 494 L126 374 Z " />
<glyph glyph-name="plus" unicode="&#x2b;" horiz-adv-x="488" d="M171 135 L317 135 L317 281 L454 281 L454 424 L317 424 L317 569 L171 569 L171 424 L34 424 L34 281 L171 281 L171 135 Z " />
<glyph glyph-name="comma" unicode="&#x2c;" horiz-adv-x="239" d="M30 -154 C137 -143 206 -89 206 33 L206 174 L33 174 L33 1 L110 1 C111 -42 85 -78 16 -91 L30 -154 Z " />
<glyph glyph-name="hyphen" unicode="&#x2d;" horiz-adv-x="353" d="M32 237 L322 237 L322 389 L32 389 L32 237 Z " />
<glyph glyph-name="period" unicode="&#x2e;" horiz-adv-x="239" d="M33 0 L206 0 L206 173 L33 173 L33 0 Z " />
<glyph glyph-name="slash" unicode="&#x2f;" horiz-adv-x="391" d="M-23 -108 L101 -108 L405 778 L281 778 L-23 -108 Z " />
<glyph glyph-name="zero" unicode="0" horiz-adv-x="538" d="M269 -13 C420 -13 512 115 512 336 L512 366 C512 586 421 713 270 713 C118 713 26 585 26 364 L26 335 C26 114 116 -13 269 -13 L269 -13 Z M270 137 C222 137 191 191 191 337 L191 365 C191 510 221 563 269 563 C315 563 347 509 347 364 L347 336 C347 190 317 137 270 137 L270 137 Z " />
<glyph glyph-name="one" unicode="1" horiz-adv-x="321" d="M111 0 L276 0 L276 704 L158 704 L12 660 L24 512 L111 537 L111 0 Z " />
<glyph glyph-name="two" unicode="2" horiz-adv-x="460" d="M27 0 L434 0 L434 150 L218 150 L331 289 C410 385 437 441 437 515 L437 518 C437 637 352 712 234 712 C156 712 83 678 16 611 L96 490 C139 532 173 558 211 558 C250 558 275 530 275 495 C275 458 256 429 208 367 L27 136 L27 0 Z " />
<glyph glyph-name="three" unicode="3" horiz-adv-x="452" d="M201 -12 C336 -12 431 74 431 215 L431 218 C431 331 363 388 280 411 L423 565 L423 700 L39 700 L39 552 L235 552 L103 404 L113 304 L130 304 C224 304 270 272 270 219 L270 217 C270 170 235 139 186 139 C134 139 93 168 72 184 L6 53 C56 12 125 -12 201 -12 L201 -12 Z " />
<glyph glyph-name="four" unicode="4" horiz-adv-x="514" d="M275 0 L430 0 L430 125 L499 125 L499 259 L430 259 L430 703 L267 703 L13 242 L24 125 L275 125 L275 0 Z M164 259 L276 472 L276 259 L164 259 Z " />
<glyph glyph-name="five" unicode="5" horiz-adv-x="460" d="M204 -12 C338 -12 440 77 440 233 L440 237 C440 390 345 452 243 452 C218 452 196 448 177 443 L183 551 L412 551 L412 700 L57 700 L38 345 L123 296 C143 308 165 316 193 316 C242 316 278 285 278 231 L278 230 C278 176 246 140 193 140 C152 140 117 158 76 187 L11 53 C67 11 134 -12 204 -12 L204 -12 Z " />
<glyph glyph-name="six" unicode="6" horiz-adv-x="500" d="M258 -13 C378 -13 477 82 477 237 L477 241 C477 394 385 457 295 457 C254 457 218 444 187 423 C191 512 227 568 297 568 C339 568 373 548 391 535 L448 667 C396 698 349 712 292 712 C135 712 26 601 26 334 L26 329 C26 182 56 97 108 45 C145 8 194 -13 258 -13 L258 -13 Z M254 123 C211 123 187 162 187 226 L187 227 C187 291 210 330 253 330 C297 330 320 291 320 227 L320 226 C320 162 298 123 254 123 L254 123 Z " />
<glyph glyph-name="seven" unicode="7" horiz-adv-x="447" d="M54 0 L223 0 L428 587 L428 700 L25 700 L25 546 L256 546 L54 0 Z " />
<glyph glyph-name="eight" unicode="8" horiz-adv-x="492" d="M246 -13 C380 -13 473 67 473 190 L473 196 C473 281 432 333 376 364 C424 396 459 448 459 517 L459 522 C459 634 373 713 246 713 C120 713 33 633 33 521 L33 516 C33 447 68 395 115 364 C59 332 19 279 19 196 L19 190 C19 66 112 -13 246 -13 L246 -13 Z M246 116 C206 116 177 148 177 207 L177 209 C177 267 206 300 246 300 C286 300 315 267 315 209 L315 207 C315 148 286 116 246 116 L246 116 Z M246 419 C211 419 185 450 185 504 C185 559 212 586 246 586 C280 586 308 559 308 504 C308 450 281 419 246 419 L246 419 Z " />
<glyph glyph-name="nine" unicode="9" horiz-adv-x="499" d="M203 132 C161 132 127 152 98 172 L41 40 C103 1 151 -12 208 -12 C365 -12 474 98 474 364 L474 370 C474 519 444 603 392 655 C355 693 306 713 242 713 C122 713 23 618 23 460 L23 455 C23 299 115 236 205 236 C245 236 281 249 312 271 C308 188 272 132 203 132 L203 132 Z M247 363 C203 363 180 402 180 469 L180 471 C180 538 202 577 246 577 C289 577 313 538 313 471 L313 469 C313 402 290 363 247 363 L247 363 Z " />
<glyph glyph-name="colon" unicode="&#x3a;" horiz-adv-x="245" d="M37 369 L209 369 L209 541 L37 541 L37 369 Z M37 0 L209 0 L209 173 L37 173 L37 0 Z " />
<glyph glyph-name="semicolon" unicode="&#x3b;" horiz-adv-x="245" d="M37 369 L209 369 L209 541 L37 541 L37 369 Z M33 -154 C141 -143 209 -89 209 32 L209 173 L37 173 L37 0 L113 0 C114 -42 88 -79 20 -92 L33 -154 Z " />
<glyph glyph-name="less" unicode="&#x3c;" horiz-adv-x="488" d="M438 87 L438 253 L195 353 L438 453 L438 617 L40 425 L40 280 L438 87 Z " />
<glyph glyph-name="equal" unicode="&#x3d;" horiz-adv-x="488" d="M38 396 L450 396 L450 541 L38 541 L38 396 Z M38 163 L450 163 L450 309 L38 309 L38 163 Z " />
<glyph glyph-name="greater" unicode="&#x3e;" horiz-adv-x="488" d="M50 87 L448 280 L448 425 L50 617 L50 451 L294 351 L50 251 L50 87 Z " />
<glyph glyph-name="question" unicode="&#x3f;" horiz-adv-x="415" d="M132 226 L236 226 L250 320 C336 349 400 405 400 513 C400 629 320 708 189 708 C115 708 52 678 -2 636 L64 508 C97 535 135 557 173 557 C212 557 237 533 237 499 L237 497 C237 454 200 421 117 407 L112 401 L132 226 Z M95 0 L271 0 L271 163 L95 163 L95 0 Z " />
<glyph glyph-name="at" unicode="&#x40;" horiz-adv-x="739" d="M362 -145 C441 -145 501 -127 564 -90 L543 -55 C487 -89 430 -105 365 -105 C191 -105 73 25 73 232 C73 459 204 671 397 671 C561 671 666 536 666 382 C666 231 615 113 561 113 C535 113 521 129 521 158 C521 176 523 193 527 210 L574 490 L451 509 L440 450 C425 489 396 520 347 520 C251 520 169 375 169 216 C169 113 223 61 290 61 C342 61 379 94 408 139 C421 94 455 58 524 58 C635 58 709 195 709 378 C709 557 582 712 400 712 C177 712 30 484 30 235 C29 -4 172 -145 362 -145 L362 -145 Z M337 164 C314 164 298 181 298 222 C298 268 316 363 346 394 C355 403 366 409 379 409 C402 409 418 392 418 352 C418 305 400 210 370 179 C361 170 350 164 337 164 L337 164 Z " />
<glyph glyph-name="A" unicode="A" horiz-adv-x="556" d="M1 0 L165 0 L195 127 L357 127 L387 0 L556 0 L367 703 L189 703 L1 0 Z M227 262 L276 476 L325 262 L227 262 Z " />
<glyph glyph-name="B" unicode="B" horiz-adv-x="521" d="M40 0 L254 0 C415 0 506 76 506 195 L506 202 C506 290 454 335 391 361 C443 387 488 435 488 515 L488 520 C488 572 472 611 443 640 C401 682 333 700 254 700 L40 700 L40 0 Z M327 486 C327 442 296 416 246 416 L201 416 L201 556 L248 556 C297 556 327 533 327 487 L327 486 Z M342 217 L342 216 C342 172 309 144 257 144 L201 144 L201 289 L256 289 C310 289 342 260 342 217 L342 217 Z " />
<glyph glyph-name="C" unicode="C" horiz-adv-x="489" d="M294 -10 C374 -10 435 23 483 69 L401 197 C376 172 349 148 307 148 C250 148 194 202 194 348 L194 354 C194 491 245 553 307 553 C346 553 375 529 396 507 L481 639 C434 684 377 710 301 710 C149 710 26 590 26 361 L26 337 C26 109 139 -10 294 -10 L294 -10 Z " />
<glyph glyph-name="D" unicode="D" horiz-adv-x="556" d="M40 0 L224 0 C423 0 532 128 532 339 L532 363 C532 574 424 700 225 700 L40 700 L40 0 Z M228 551 C309 551 363 499 363 359 L363 341 C363 203 309 149 228 149 L205 149 L205 551 L228 551 Z " />
<glyph glyph-name="E" unicode="E" horiz-adv-x="460" d="M40 0 L435 0 L435 150 L204 150 L204 280 L408 280 L408 425 L204 425 L204 550 L431 550 L431 700 L40 700 L40 0 Z " />
<glyph glyph-name="F" unicode="F" horiz-adv-x="442" d="M40 0 L205 0 L205 270 L399 270 L399 417 L205 417 L205 548 L423 548 L423 700 L40 700 L40 0 Z " />
<glyph glyph-name="G" unicode="G" horiz-adv-x="547" d="M311 -10 C392 -10 459 18 515 54 L515 410 L281 410 L281 274 L363 274 L363 148 C353 142 337 137 317 137 C251 137 193 196 193 341 L193 359 C193 486 249 556 324 556 C374 556 404 531 426 508 L510 643 C449 689 391 710 318 710 C151 710 26 580 26 364 L26 336 C26 109 150 -10 311 -10 L311 -10 Z " />
<glyph glyph-name="H" unicode="H" horiz-adv-x="553" d="M40 0 L205 0 L205 276 L349 276 L349 0 L514 0 L514 700 L349 700 L349 429 L205 429 L205 700 L40 700 L40 0 Z " />
<glyph glyph-name="I" unicode="I" horiz-adv-x="250" d="M43 0 L207 0 L207 700 L43 700 L43 0 Z " />
<glyph glyph-name="J" unicode="J" horiz-adv-x="398" d="M160 -10 C221 -10 270 9 305 44 C343 82 362 136 362 211 L362 700 L198 700 L198 221 C198 168 174 145 141 145 C113 145 93 160 74 180 L1 54 C36 19 93 -10 160 -10 L160 -10 Z " />
<glyph glyph-name="K" unicode="K" horiz-adv-x="530" d="M41 0 L205 0 L205 182 L244 250 L345 0 L531 0 L363 405 L525 700 L343 700 L205 430 L205 700 L41 700 L41 0 Z " />
<glyph glyph-name="L" unicode="L" horiz-adv-x="423" d="M40 0 L408 0 L408 152 L205 152 L205 700 L40 700 L40 0 Z " />
<glyph glyph-name="M" unicode="M" horiz-adv-x="633" d="M40 0 L199 0 L199 383 L315 141 L317 141 L433 384 L433 0 L594 0 L594 700 L429 700 L317 457 L204 700 L40 700 L40 0 Z " />
<glyph glyph-name="N" unicode="N" horiz-adv-x="567" d="M40 0 L200 0 L200 348 L379 0 L527 0 L527 700 L367 700 L367 368 L196 700 L40 700 L40 0 Z " />
<glyph glyph-name="O" unicode="O" horiz-adv-x="581" d="M290 -13 C448 -13 555 117 555 336 L555 366 C555 584 449 713 291 713 C133 713 26 584 26 365 L26 335 C26 116 132 -13 290 -13 L290 -13 Z M291 137 C233 137 193 197 193 340 L193 361 C193 504 233 563 290 563 C347 563 387 504 387 360 L387 339 C387 196 348 137 291 137 L291 137 Z " />
<glyph glyph-name="P" unicode="P" horiz-adv-x="499" d="M40 0 L204 0 L204 207 L240 207 C371 210 487 284 487 453 L487 459 C487 621 385 700 233 700 L40 700 L40 0 Z M204 347 L204 557 L232 557 C291 557 323 521 323 453 L323 450 C323 385 289 347 232 347 L204 347 Z " />
<glyph glyph-name="Q" unicode="Q" horiz-adv-x="584" d="M574 65 L513 134 C539 188 555 256 555 336 L555 366 C555 584 449 713 291 713 C133 713 26 584 26 365 L26 336 C26 117 133 -13 290 -13 C344 -13 393 3 434 35 L477 -17 L574 65 Z M294 134 C234 134 193 188 193 337 L193 362 C193 505 233 563 291 563 C348 563 389 505 389 361 L389 336 C389 314 388 294 386 276 L364 301 L267 220 L335 146 C323 138 309 134 294 134 L294 134 Z " />
<glyph glyph-name="R" unicode="R" horiz-adv-x="524" d="M40 0 L204 0 L204 223 L242 223 L336 0 L518 0 L399 266 C459 302 502 361 502 462 L502 469 C502 542 481 597 443 635 C400 678 334 700 252 700 L40 700 L40 0 Z M204 357 L204 555 L246 555 C302 555 336 524 336 459 L336 455 C336 393 304 357 247 357 L204 357 Z " />
<glyph glyph-name="S" unicode="S" horiz-adv-x="469" d="M229 -9 C357 -9 453 77 453 203 L453 207 C453 310 388 367 287 421 C207 465 187 484 187 512 L187 513 C187 540 210 560 244 560 C295 560 340 528 370 502 L454 631 C386 690 313 709 246 709 C112 709 21 625 21 500 L21 497 C21 389 90 334 203 276 C268 241 287 222 287 195 C287 165 266 140 224 140 C170 140 117 177 74 214 L-7 81 C68 16 148 -9 229 -9 L229 -9 Z " />
<glyph glyph-name="T" unicode="T" horiz-adv-x="460" d="M148 0 L313 0 L313 548 L445 548 L445 700 L16 700 L16 548 L148 548 L148 0 Z " />
<glyph glyph-name="U" unicode="U" horiz-adv-x="547" d="M272 -12 C413 -12 511 67 511 245 L511 700 L347 700 L347 235 C347 169 318 139 274 139 C230 139 201 170 201 236 L201 700 L35 700 L35 243 C35 67 132 -12 272 -12 L272 -12 Z " />
<glyph glyph-name="V" unicode="V" horiz-adv-x="533" d="M184 -3 L350 -3 L532 700 L362 700 L269 273 L175 700 L1 700 L184 -3 Z " />
<glyph glyph-name="W" unicode="W" horiz-adv-x="797" d="M156 -3 L317 -3 L398 367 L480 -3 L641 -3 L792 700 L622 700 L552 295 L471 701 L329 701 L248 295 L178 700 L5 700 L156 -3 Z " />
<glyph glyph-name="X" unicode="X" horiz-adv-x="520" d="M336 700 L261 495 L190 700 L12 700 L164 356 L6 0 L178 0 L259 219 L337 0 L514 0 L356 358 L508 700 L336 700 Z " />
<glyph glyph-name="Y" unicode="Y" horiz-adv-x="517" d="M176 0 L341 0 L341 262 L519 700 L347 700 L260 450 L173 700 L-3 700 L176 261 L176 0 Z " />
<glyph glyph-name="Z" unicode="Z" horiz-adv-x="475" d="M26 0 L450 0 L450 149 L226 149 L450 572 L450 700 L33 700 L33 551 L250 551 L26 128 L26 0 Z " />
<glyph glyph-name="bracketleft" unicode="&#x5b;" horiz-adv-x="337" d="M51 -130 L310 -130 L310 -19 L192 -19 L192 589 L310 589 L310 700 L51 700 L51 -130 Z " />
<glyph glyph-name="backslash" unicode="&#x5c;" horiz-adv-x="391" d="M291 -108 L414 -108 L111 778 L-13 778 L291 -108 Z " />
<glyph glyph-name="bracketright" unicode="&#x5d;" horiz-adv-x="337" d="M28 -130 L287 -130 L287 700 L28 700 L28 589 L146 589 L146 -19 L28 -19 L28 -130 Z " />
<glyph glyph-name="asciicircum" unicode="&#x5e;" horiz-adv-x="500" d="M88 492 L192 492 L249 611 L306 492 L412 492 L311 698 L189 698 L88 492 Z " />
<glyph glyph-name="underscore" unicode="&#x5f;" horiz-adv-x="522" d="M-2 -154 L524 -154 L524 -43 L-2 -43 L-2 -154 Z " />
<glyph glyph-name="grave" unicode="&#x60;" horiz-adv-x="500" d="M249 577 L352 577 L266 731 L126 683 L249 577 Z " />
<glyph glyph-name="a" unicode="a" horiz-adv-x="450" d="M147 -10 C198 -10 234 13 261 53 L261 0 L420 0 L420 339 C420 408 403 461 368 496 C333 530 280 549 210 549 C146 549 83 530 38 508 L80 380 C97 391 136 411 183 411 C232 411 262 385 262 331 L262 315 C236 327 205 335 169 335 C79 335 15 283 15 164 L15 152 C15 48 73 -10 147 -10 L147 -10 Z M208 102 C182 103 165 124 165 164 L165 170 C165 212 183 237 216 237 C233 237 251 232 262 227 L262 168 C262 126 237 101 208 102 L208 102 Z " />
<glyph glyph-name="b" unicode="b" horiz-adv-x="499" d="M316 -11 C402 -11 475 62 475 253 L475 289 C475 480 401 552 315 552 C254 552 221 516 194 475 L194 717 L34 717 L34 0 L194 0 L194 64 C221 24 255 -11 316 -11 L316 -11 Z M255 130 C216 130 193 180 193 259 L193 283 C193 362 216 411 255 411 C294 411 316 362 316 283 L316 259 C316 180 294 130 255 130 L255 130 Z " />
<glyph glyph-name="c" unicode="c" horiz-adv-x="396" d="M238 -12 C298 -12 351 12 391 54 L322 171 C304 151 285 135 258 135 C208 135 181 184 181 270 L181 275 C181 356 209 405 256 405 C282 405 301 391 319 370 L393 494 C352 531 304 552 246 552 C115 552 22 445 22 278 L22 257 C22 91 107 -12 238 -12 L238 -12 Z " />
<glyph glyph-name="d" unicode="d" horiz-adv-x="499" d="M184 -11 C245 -11 278 26 305 67 L305 0 L465 0 L465 717 L305 717 L305 477 C277 517 244 552 183 552 C98 552 24 480 24 288 L24 252 C24 61 98 -11 184 -11 L184 -11 Z M244 130 C205 130 183 179 183 259 L183 283 C183 362 205 411 244 411 C283 411 306 362 306 283 L306 259 C306 179 283 130 244 130 L244 130 Z " />
<glyph glyph-name="e" unicode="e" horiz-adv-x="456" d="M251 -12 C321 -12 376 15 427 56 L365 170 C339 146 306 124 267 124 C221 124 187 152 177 211 L437 211 L437 273 C437 445 364 553 233 553 C110 553 21 449 21 280 L21 259 C21 86 116 -12 251 -12 L251 -12 Z M175 310 C179 390 201 422 232 422 C266 422 286 386 288 310 L175 310 Z " />
<glyph glyph-name="f" unicode="f" horiz-adv-x="302" d="M56 0 L216 0 L216 412 L297 412 L297 539 L214 539 L214 552 C214 582 230 596 259 596 C273 596 286 594 297 592 L297 712 C276 717 252 721 215 721 C162 721 123 708 96 681 C69 654 56 614 56 560 L56 540 L14 540 L14 412 L56 412 L56 0 Z " />
<glyph glyph-name="g" unicode="g" horiz-adv-x="499" d="M223 -143 C306 -143 367 -125 408 -83 C446 -46 465 10 465 89 L465 541 L305 541 L305 478 C276 518 242 552 181 552 C97 552 24 482 24 302 L24 288 C24 110 96 41 183 41 C243 41 278 76 306 117 L306 82 C306 17 272 -15 207 -15 C159 -15 104 1 72 17 L36 -108 C96 -131 152 -143 223 -143 L223 -143 Z M244 177 C205 177 183 219 183 294 L183 297 C183 371 205 415 244 415 C283 415 306 371 306 298 L306 294 C306 220 283 177 244 177 L244 177 Z " />
<glyph glyph-name="h" unicode="h" horiz-adv-x="479" d="M34 0 L194 0 L194 349 C194 388 214 409 242 409 C270 409 288 388 288 349 L288 0 L448 0 L448 396 C448 490 401 552 316 552 C256 552 220 515 194 475 L194 717 L34 717 L34 0 Z " />
<glyph glyph-name="i" unicode="i" horiz-adv-x="234" d="M35 585 L199 585 L199 717 L35 717 L35 585 Z M37 0 L197 0 L197 541 L37 541 L37 0 Z " />
<glyph glyph-name="j" unicode="j" horiz-adv-x="236" d="M36 585 L201 585 L201 717 L36 717 L36 585 Z M40 -144 C141 -144 199 -100 199 15 L199 541 L38 541 L38 19 C38 -16 21 -30 -7 -30 C-14 -30 -21 -29 -27 -28 L-27 -138 C-5 -142 12 -144 40 -144 L40 -144 Z " />
<glyph glyph-name="k" unicode="k" horiz-adv-x="458" d="M34 0 L194 0 L194 142 L222 189 L284 0 L458 0 L339 326 L457 541 L285 541 L194 361 L194 717 L34 717 L34 0 Z " />
<glyph glyph-name="l" unicode="l" horiz-adv-x="234" d="M37 0 L197 0 L197 717 L37 717 L37 0 Z " />
<glyph glyph-name="m" unicode="m" horiz-adv-x="726" d="M34 0 L194 0 L194 349 C194 388 213 409 240 409 C268 409 285 388 285 349 L285 0 L444 0 L444 349 C444 388 463 409 491 409 C518 409 535 388 535 349 L535 0 L695 0 L695 396 C695 494 641 552 560 552 C500 552 460 519 430 479 C409 523 373 552 315 552 C257 552 220 517 194 475 L194 541 L34 541 L34 0 Z " />
<glyph glyph-name="n" unicode="n" horiz-adv-x="479" d="M34 0 L194 0 L194 349 C194 388 214 409 242 409 C270 409 288 388 288 349 L288 0 L448 0 L448 396 C448 490 401 552 316 552 C256 552 220 515 194 475 L194 541 L34 541 L34 0 Z " />
<glyph glyph-name="o" unicode="o" horiz-adv-x="487" d="M243 -13 C373 -13 465 90 465 256 L465 285 C465 451 374 553 244 553 C114 553 22 450 22 284 L22 255 C22 89 113 -13 243 -13 L243 -13 Z M244 127 C203 127 180 177 180 262 L180 279 C180 365 201 414 243 414 C285 414 307 364 307 279 L307 262 C307 177 286 127 244 127 L244 127 Z " />
<glyph glyph-name="p" unicode="p" horiz-adv-x="499" d="M34 -140 L194 -140 L194 64 C221 24 255 -11 316 -11 C402 -11 475 62 475 253 L475 289 C475 480 401 552 315 552 C254 552 221 516 194 475 L194 541 L34 541 L34 -140 Z M255 130 C216 130 193 180 193 259 L193 283 C193 362 216 411 255 411 C294 411 316 362 316 283 L316 259 C316 180 294 130 255 130 L255 130 Z " />
<glyph glyph-name="q" unicode="q" horiz-adv-x="499" d="M305 -140 L465 -140 L465 541 L305 541 L305 477 C277 517 244 552 183 552 C98 552 24 480 24 288 L24 252 C24 61 98 -11 184 -11 C245 -11 278 26 305 67 L305 -140 Z M244 130 C205 130 183 179 183 259 L183 283 C183 362 205 411 244 411 C283 411 306 362 306 283 L306 259 C306 179 283 130 244 130 L244 130 Z " />
<glyph glyph-name="r" unicode="r" horiz-adv-x="319" d="M34 0 L194 0 L194 231 C194 322 231 365 301 365 L308 365 L308 548 C249 552 215 515 194 455 L194 541 L34 541 L34 0 Z " />
<glyph glyph-name="s" unicode="s" horiz-adv-x="385" d="M188 -11 C299 -11 373 56 373 163 L373 165 C373 241 329 285 240 332 C191 358 169 370 169 390 L169 392 C169 406 181 421 207 421 C242 421 281 401 310 380 L372 499 C315 537 255 551 202 551 C93 551 19 484 19 382 L19 380 C19 293 71 253 154 211 C204 185 223 172 223 152 L223 151 C223 135 211 120 184 120 C144 120 102 144 60 176 L-2 55 C63 5 133 -11 188 -11 L188 -11 Z " />
<glyph glyph-name="t" unicode="t" horiz-adv-x="316" d="M195 -10 C234 -10 270 1 297 15 L297 142 C281 135 266 131 251 131 C227 131 215 142 215 168 L215 412 L298 412 L298 541 L215 541 L215 675 L56 675 L56 541 L14 541 L14 412 L56 412 L56 125 C56 24 114 -10 195 -10 L195 -10 Z " />
<glyph glyph-name="u" unicode="u" horiz-adv-x="479" d="M163 -11 C223 -11 259 26 284 66 L284 0 L445 0 L445 541 L284 541 L284 192 C284 154 264 132 237 132 C209 132 191 154 191 192 L191 541 L31 541 L31 146 C31 51 77 -11 163 -11 L163 -11 Z " />
<glyph glyph-name="v" unicode="v" horiz-adv-x="464" d="M154 -3 L311 -3 L461 541 L299 541 L234 224 L168 541 L4 541 L154 -3 Z " />
<glyph glyph-name="w" unicode="w" horiz-adv-x="653" d="M125 -3 L268 -3 L326 262 L383 -3 L527 -3 L647 541 L490 541 L443 264 L391 542 L263 542 L212 265 L165 541 L7 541 L125 -3 Z " />
<glyph glyph-name="x" unicode="x" horiz-adv-x="453" d="M173 541 L7 541 L133 275 L4 0 L168 0 L226 150 L282 0 L449 0 L319 275 L445 541 L282 541 L226 399 L173 541 Z " />
<glyph glyph-name="y" unicode="y" horiz-adv-x="463" d="M234 231 L168 541 L5 541 L154 7 C149 -10 136 -14 122 -14 C109 -14 89 -9 70 2 L41 -117 C76 -135 115 -145 150 -145 C240 -145 286 -97 317 19 L459 541 L298 541 L234 231 Z " />
<glyph glyph-name="z" unicode="z" horiz-adv-x="400" d="M19 0 L383 0 L383 132 L207 132 L383 430 L383 541 L24 541 L24 410 L195 410 L19 112 L19 0 Z " />
<glyph glyph-name="braceleft" unicode="&#x7b;" horiz-adv-x="376" d="M340 -139 L357 -33 C283 -26 255 -1 255 48 C255 89 274 125 274 169 C274 231 231 274 161 287 C231 299 274 342 274 404 C274 448 255 484 255 525 C255 574 283 598 357 606 L340 711 C176 700 112 638 112 544 C112 499 130 460 130 419 C130 365 98 344 42 344 L23 344 L23 229 L42 229 C98 229 130 208 130 154 C130 113 112 74 112 29 C112 -65 176 -128 340 -139 L340 -139 Z " />
<glyph glyph-name="bar" unicode="&#x7c;" horiz-adv-x="272" d="M78 -108 L195 -108 L195 778 L78 778 L78 -108 Z " />
<glyph glyph-name="braceright" unicode="&#x7d;" horiz-adv-x="376" d="M37 -139 C200 -128 264 -65 264 29 C264 74 246 113 246 154 C246 208 279 229 335 229 L353 229 L353 344 L335 344 C279 344 246 365 246 419 C246 460 264 499 264 544 C264 638 200 700 37 711 L20 606 C94 598 122 574 122 525 C122 484 103 448 103 404 C103 342 145 299 216 287 C145 274 103 231 103 169 C103 125 122 89 122 48 C122 -1 94 -26 20 -33 L37 -139 Z " />
<glyph glyph-name="asciitilde" unicode="&#x7e;" horiz-adv-x="410" d="M281 245 C329 245 364 285 376 370 L302 389 C294 359 282 346 261 346 C246 346 231 354 206 363 C183 374 159 384 131 384 C82 384 46 343 35 259 L111 240 C120 269 128 282 149 282 C164 282 180 275 205 265 C228 255 252 245 281 245 L281 245 Z " />
<glyph glyph-name="uni00A0" unicode="&#xa0;" horiz-adv-x="176" d="" />
<glyph glyph-name="exclamdown" unicode="&#xa1;" horiz-adv-x="263" d="M44 537 L219 537 L219 700 L44 700 L44 537 Z M35 0 L229 0 L229 38 L173 475 L90 475 L35 38 L35 0 Z " />
<glyph glyph-name="cent" unicode="&#xa2;" horiz-adv-x="407" d="M308 705 L202 705 L197 629 C93 605 23 505 23 361 L23 340 C23 210 78 118 165 85 L159 -6 L264 -6 L269 72 C318 78 360 100 396 135 L329 248 C307 225 287 212 259 212 C208 212 177 259 177 353 L177 357 C177 445 207 494 258 494 C288 494 308 477 326 457 L397 577 C370 601 339 620 302 629 L308 705 Z " />
<glyph glyph-name="sterling" unicode="&#xa3;" horiz-adv-x="467" d="M27 0 L447 0 L447 144 L252 144 L252 268 L394 268 L394 403 L252 403 L252 474 C252 504 257 528 271 542 C282 552 298 557 311 557 C340 557 362 540 381 523 L455 649 C413 689 357 711 291 711 C237 711 184 693 147 657 C107 618 87 561 87 478 L87 403 L29 403 L29 268 L87 268 L87 136 L27 108 L27 0 Z " />
<glyph glyph-name="yen" unicode="&#xa5;" horiz-adv-x="517" d="M52 259 L178 259 L178 209 L52 209 L52 95 L178 95 L178 0 L340 0 L340 95 L466 95 L466 209 L340 209 L340 259 L466 259 L466 374 L375 374 L517 700 L347 700 L261 454 L174 700 L1 700 L142 374 L52 374 L52 259 Z " />
<glyph glyph-name="section" unicode="&#xa7;" horiz-adv-x="490" d="M382 238 C435 262 468 302 468 355 L468 357 C468 435 402 465 301 502 C236 526 218 537 218 557 L218 558 C218 575 233 588 261 588 C304 588 355 562 379 547 L432 662 C380 694 318 712 252 712 C137 712 68 648 68 558 L68 556 C68 519 82 487 109 462 C56 438 23 398 23 345 L23 343 C23 266 89 235 190 198 C255 174 273 163 273 143 L273 142 C273 125 258 113 230 113 C186 113 136 139 112 153 L59 39 C111 7 173 -12 239 -12 C354 -12 423 53 423 143 L423 145 C423 181 409 214 382 238 L382 238 Z M290 292 C275 292 258 297 235 307 C176 328 157 345 157 367 L157 368 C157 390 176 408 201 408 C216 408 233 403 256 394 C315 373 334 356 334 333 L334 332 C334 311 315 292 290 292 L290 292 Z " />
<glyph glyph-name="dieresis" unicode="&#xa8;" horiz-adv-x="500" d="M269 578 L398 578 L398 703 L269 703 L269 578 Z M103 578 L232 578 L232 703 L103 703 L103 578 Z " />
<glyph glyph-name="copyright" unicode="&#xa9;" horiz-adv-x="622" d="M311 -13 C474 -13 592 131 592 339 L592 362 C592 570 475 713 311 713 C148 713 30 570 30 362 L30 339 C30 131 148 -13 311 -13 L311 -13 Z M311 25 C165 25 69 154 69 338 L69 362 C69 546 166 676 311 676 C457 676 553 547 553 363 L553 339 C553 155 456 25 311 25 L311 25 Z M324 147 C367 147 404 163 431 192 L385 267 C371 252 356 239 334 239 C301 239 270 269 270 350 L270 356 C270 434 299 465 333 465 C356 465 371 452 382 440 L430 518 C402 543 371 557 327 557 C241 557 169 490 169 359 L169 344 C169 215 235 147 324 147 L324 147 Z " />
<glyph glyph-name="ordfeminine" unicode="&#xaa;" horiz-adv-x="299" d="M107 400 C135 400 154 413 170 435 L170 406 L257 406 L257 590 C257 629 247 658 227 677 C208 696 180 705 143 705 C104 705 74 696 46 683 L69 611 C80 618 102 629 126 629 C154 629 170 615 170 586 L170 577 C156 584 139 589 119 589 C69 589 35 560 35 495 L35 489 C35 432 66 400 107 400 L107 400 Z M33 284 L264 284 L264 353 L33 353 L33 284 Z M141 462 C127 462 116 472 116 494 L116 501 C116 524 127 536 145 536 C154 536 164 532 171 529 L171 495 C171 474 157 462 141 462 L141 462 Z " />
<glyph glyph-name="guillemotleft" unicode="&#xab;" horiz-adv-x="500" d="M374 40 L480 91 L381 271 L479 450 L374 500 L227 274 L227 266 L374 40 Z M162 40 L268 91 L168 271 L267 450 L162 500 L21 285 L21 255 L162 40 Z " />
<glyph glyph-name="registered" unicode="&#xae;" horiz-adv-x="313" d="M157 360 C238 360 297 430 297 531 L297 542 C297 642 238 712 157 712 C76 712 16 642 16 542 L16 530 C16 430 75 360 157 360 L157 360 Z M157 379 C84 379 37 442 37 530 L37 542 C37 629 85 693 157 693 C229 693 277 630 277 542 L277 531 C277 443 229 379 157 379 L157 379 Z M95 443 L143 443 L143 503 L152 503 L180 443 L232 443 L199 515 C216 525 228 542 228 569 L228 571 C228 613 202 635 157 635 L95 635 L95 443 Z M143 542 L143 593 L155 593 C170 593 179 585 179 569 L179 567 C179 551 170 542 155 542 L143 542 Z " />
<glyph glyph-name="macron" unicode="&#xaf;" horiz-adv-x="500" d="M105 582 L395 582 L395 680 L105 680 L105 582 Z " />
<glyph glyph-name="degree" unicode="&#xb0;" horiz-adv-x="342" d="M171 354 C252 354 313 421 313 523 L313 538 C313 640 251 707 171 707 C91 707 30 640 30 538 L30 523 C30 421 91 354 171 354 L171 354 Z M171 443 C143 443 124 472 124 527 L124 534 C124 590 143 618 171 618 C199 618 218 590 218 534 L218 527 C218 472 199 443 171 443 L171 443 Z " />
<glyph glyph-name="plusminus" unicode="&#xb1;" horiz-adv-x="488" d="M453 330 L453 469 L315 468 L315 611 L173 611 L174 468 L35 469 L35 330 L174 330 L173 188 L315 188 L315 330 L453 330 Z M452 0 L452 130 L36 130 L36 0 L452 0 Z " />
<glyph glyph-name="acute" unicode="&#xb4;" horiz-adv-x="500" d="M145 577 L248 577 L371 683 L231 731 L145 577 Z " />
<glyph glyph-name="paragraph" unicode="&#xb6;" horiz-adv-x="438" d="M244 0 L396 0 L396 700 L266 700 C124 700 16 629 16 463 L16 460 C16 302 118 232 237 223 L244 223 L244 0 Z " />
<glyph glyph-name="periodcentered" unicode="&#xb7;" horiz-adv-x="245" d="M36 226 L209 226 L209 399 L36 399 L36 226 Z " />
<glyph glyph-name="cedilla" unicode="&#xb8;" horiz-adv-x="500" d="M261 -144 L312 20 L210 20 L123 -100 L261 -144 Z " />
<glyph glyph-name="ordmasculine" unicode="&#xba;" horiz-adv-x="299" d="M149 398 C220 398 271 453 271 544 L271 560 C271 650 221 706 150 706 C79 706 29 650 29 559 L29 543 C29 453 79 398 149 398 L149 398 Z M38 284 L261 284 L261 353 L38 353 L38 284 Z M150 474 C128 474 115 500 115 547 L115 557 C115 604 128 630 150 630 C172 630 184 603 184 557 L184 546 C184 500 172 474 150 474 L150 474 Z " />
<glyph glyph-name="guillemotright" unicode="&#xbb;" horiz-adv-x="500" d="M338 40 L479 255 L479 285 L338 500 L233 449 L332 269 L234 90 L338 40 Z M126 40 L274 266 L274 274 L126 500 L20 449 L120 269 L21 90 L126 40 Z " />
<glyph glyph-name="questiondown" unicode="&#xbf;" horiz-adv-x="415" d="M227 -8 C301 -8 364 23 417 64 L352 192 C318 166 281 144 242 144 C204 144 178 167 178 202 L178 203 C178 247 215 280 298 293 L303 300 L284 475 L179 475 L166 381 C80 351 15 296 15 187 C15 71 96 -8 227 -8 L227 -8 Z M144 537 L320 537 L320 700 L144 700 L144 537 Z " />
<glyph glyph-name="Agrave" unicode="&#xc0;" horiz-adv-x="556" d="M1 0 L165 0 L195 127 L357 127 L387 0 L556 0 L367 703 L189 703 L1 0 Z M227 262 L276 476 L325 262 L227 262 Z M341 740 L256 873 L105 827 L225 740 L341 740 Z " />
<glyph glyph-name="Aacute" unicode="&#xc1;" horiz-adv-x="556" d="M1 0 L165 0 L195 127 L357 127 L387 0 L556 0 L367 703 L189 703 L1 0 Z M227 262 L276 476 L325 262 L227 262 Z M216 740 L332 740 L452 827 L301 873 L216 740 Z " />
<glyph glyph-name="Acircumflex" unicode="&#xc2;" horiz-adv-x="556" d="M1 0 L165 0 L195 127 L357 127 L387 0 L556 0 L367 703 L189 703 L1 0 Z M227 262 L276 476 L325 262 L227 262 Z M120 739 L223 739 L276 783 L330 739 L434 739 L343 862 L211 862 L120 739 Z " />
<glyph glyph-name="Atilde" unicode="&#xc3;" horiz-adv-x="556" d="M1 0 L165 0 L195 127 L357 127 L387 0 L556 0 L367 703 L189 703 L1 0 Z M227 262 L276 476 L325 262 L227 262 Z M357 738 C409 738 437 779 449 865 L371 883 C363 855 355 844 335 844 C323 844 308 849 282 859 C254 870 229 878 205 878 C154 878 125 837 113 752 L191 734 C200 761 208 773 227 773 C239 773 255 767 281 757 C310 747 333 738 357 738 L357 738 Z " />
<glyph glyph-name="Adieresis" unicode="&#xc4;" horiz-adv-x="556" d="M1 0 L165 0 L195 127 L357 127 L387 0 L556 0 L367 703 L189 703 L1 0 Z M227 262 L276 476 L325 262 L227 262 Z M298 741 L431 741 L431 860 L298 860 L298 741 Z M124 741 L256 741 L256 860 L124 860 L124 741 Z " />
<glyph glyph-name="Aring" unicode="&#xc5;" horiz-adv-x="556" d="M1 0 L165 0 L195 127 L357 127 L387 0 L556 0 L373 684 C384 700 390 719 390 740 C390 799 341 842 278 842 C215 842 167 799 167 740 C167 719 173 700 183 685 L1 0 Z M227 262 L276 476 L325 262 L227 262 Z M278 689 C247 689 225 710 225 739 C225 768 247 790 278 790 C310 790 332 768 332 739 C332 710 310 689 278 689 L278 689 Z " />
<glyph glyph-name="AE" unicode="&#xc6;" horiz-adv-x="750" d="M-6 0 L157 0 L197 127 L338 127 L338 0 L725 0 L725 150 L501 150 L501 280 L698 280 L698 425 L501 425 L501 550 L721 550 L721 700 L231 700 L-6 0 Z M238 262 L326 549 L338 549 L338 262 L238 262 Z " />
<glyph glyph-name="Ccedilla" unicode="&#xc7;" horiz-adv-x="489" d="M279 -144 L321 -8 C388 -2 440 28 483 69 L401 197 C376 172 349 148 307 148 C250 148 194 202 194 348 L194 354 C194 491 245 553 307 553 C346 553 375 529 396 507 L481 639 C434 684 377 710 301 710 C149 710 26 590 26 361 L26 337 C26 150 102 36 214 1 L141 -100 L279 -144 Z " />
<glyph glyph-name="Egrave" unicode="&#xc8;" horiz-adv-x="460" d="M300 735 L215 868 L64 822 L184 735 L300 735 Z M40 0 L435 0 L435 150 L204 150 L204 280 L408 280 L408 425 L204 425 L204 550 L431 550 L431 700 L40 700 L40 0 Z " />
<glyph glyph-name="Eacute" unicode="&#xc9;" horiz-adv-x="460" d="M175 735 L291 735 L411 822 L260 868 L175 735 Z M40 0 L435 0 L435 150 L204 150 L204 280 L408 280 L408 425 L204 425 L204 550 L431 550 L431 700 L40 700 L40 0 Z " />
<glyph glyph-name="Ecircumflex" unicode="&#xca;" horiz-adv-x="460" d="M40 0 L435 0 L435 150 L204 150 L204 280 L408 280 L408 425 L204 425 L204 550 L431 550 L431 700 L40 700 L40 0 Z M81 735 L184 735 L237 779 L291 735 L395 735 L304 858 L172 858 L81 735 Z " />
<glyph glyph-name="Edieresis" unicode="&#xcb;" horiz-adv-x="460" d="M259 736 L392 736 L392 855 L259 855 L259 736 Z M85 736 L217 736 L217 855 L85 855 L85 736 Z M40 0 L435 0 L435 150 L204 150 L204 280 L408 280 L408 425 L204 425 L204 550 L431 550 L431 700 L40 700 L40 0 Z " />
<glyph glyph-name="Igrave" unicode="&#xcc;" horiz-adv-x="250" d="M43 0 L207 0 L207 700 L43 700 L43 0 Z M188 735 L103 868 L-48 822 L72 735 L188 735 Z " />
<glyph glyph-name="Iacute" unicode="&#xcd;" horiz-adv-x="250" d="M43 0 L207 0 L207 700 L43 700 L43 0 Z M64 735 L180 735 L300 822 L149 868 L64 735 Z " />
<glyph glyph-name="Icircumflex" unicode="&#xce;" horiz-adv-x="250" d="M43 0 L207 0 L207 700 L43 700 L43 0 Z M-31 735 L72 735 L125 779 L179 735 L283 735 L192 858 L60 858 L-31 735 Z " />
<glyph glyph-name="Idieresis" unicode="&#xcf;" horiz-adv-x="250" d="M43 0 L207 0 L207 700 L43 700 L43 0 Z M147 736 L280 736 L280 855 L147 855 L147 736 Z M-27 736 L105 736 L105 855 L-27 855 L-27 736 Z " />
<glyph glyph-name="Eth" unicode="&#xd0;" horiz-adv-x="582" d="M65 0 L250 0 C447 0 557 128 557 339 L557 363 C557 574 447 700 251 700 L65 700 L65 421 L15 421 L15 284 L65 284 L65 0 Z M300 285 L300 419 L227 419 L227 553 L253 553 C335 553 389 500 389 359 L389 341 C389 202 335 148 253 148 L227 148 L227 285 L300 285 Z " />
<glyph glyph-name="Ntilde" unicode="&#xd1;" horiz-adv-x="567" d="M362 733 C414 733 442 774 454 860 L376 878 C368 850 360 839 340 839 C328 839 313 844 287 854 C259 865 234 873 210 873 C159 873 130 832 118 747 L196 729 C205 756 213 768 232 768 C244 768 260 762 286 752 C315 742 338 733 362 733 L362 733 Z M40 0 L200 0 L200 348 L379 0 L527 0 L527 700 L367 700 L367 368 L196 700 L40 700 L40 0 Z " />
<glyph glyph-name="Ograve" unicode="&#xd2;" horiz-adv-x="581" d="M352 740 L267 873 L116 827 L236 740 L352 740 Z M290 -13 C448 -13 555 117 555 336 L555 366 C555 584 449 713 291 713 C133 713 26 584 26 365 L26 335 C26 116 132 -13 290 -13 L290 -13 Z M291 137 C233 137 193 197 193 340 L193 361 C193 504 233 563 290 563 C347 563 387 504 387 360 L387 339 C387 196 348 137 291 137 L291 137 Z " />
<glyph glyph-name="Oacute" unicode="&#xd3;" horiz-adv-x="581" d="M228 740 L344 740 L464 827 L313 873 L228 740 Z M290 -13 C448 -13 555 117 555 336 L555 366 C555 584 449 713 291 713 C133 713 26 584 26 365 L26 335 C26 116 132 -13 290 -13 L290 -13 Z M291 137 C233 137 193 197 193 340 L193 361 C193 504 233 563 290 563 C347 563 387 504 387 360 L387 339 C387 196 348 137 291 137 L291 137 Z " />
<glyph glyph-name="Ocircumflex" unicode="&#xd4;" horiz-adv-x="581" d="M290 -13 C448 -13 555 117 555 336 L555 366 C555 584 449 713 291 713 C133 713 26 584 26 365 L26 335 C26 116 132 -13 290 -13 L290 -13 Z M291 137 C233 137 193 197 193 340 L193 361 C193 504 233 563 290 563 C347 563 387 504 387 360 L387 339 C387 196 348 137 291 137 L291 137 Z M133 740 L236 740 L289 784 L343 740 L447 740 L356 863 L224 863 L133 740 Z " />
<glyph glyph-name="Otilde" unicode="&#xd5;" horiz-adv-x="581" d="M369 738 C421 738 449 779 461 865 L383 883 C375 855 367 844 347 844 C335 844 320 849 294 859 C266 870 241 878 217 878 C166 878 137 837 125 752 L203 734 C212 761 220 773 239 773 C251 773 267 767 293 757 C322 747 345 738 369 738 L369 738 Z M290 -13 C448 -13 555 117 555 336 L555 366 C555 584 449 713 291 713 C133 713 26 584 26 365 L26 335 C26 116 132 -13 290 -13 L290 -13 Z M291 137 C233 137 193 197 193 340 L193 361 C193 504 233 563 290 563 C347 563 387 504 387 360 L387 339 C387 196 348 137 291 137 L291 137 Z " />
<glyph glyph-name="Odieresis" unicode="&#xd6;" horiz-adv-x="581" d="M310 741 L443 741 L443 860 L310 860 L310 741 Z M136 741 L268 741 L268 860 L136 860 L136 741 Z M290 -13 C448 -13 555 117 555 336 L555 366 C555 584 449 713 291 713 C133 713 26 584 26 365 L26 335 C26 116 132 -13 290 -13 L290 -13 Z M291 137 C233 137 193 197 193 340 L193 361 C193 504 233 563 290 563 C347 563 387 504 387 360 L387 339 C387 196 348 137 291 137 L291 137 Z " />
<glyph glyph-name="multiply" unicode="&#xd7;" horiz-adv-x="488" d="M355 135 L459 234 L341 353 L459 472 L356 569 L244 452 L133 569 L29 471 L147 352 L30 232 L132 135 L244 252 L355 135 Z " />
<glyph glyph-name="Oslash" unicode="&#xd8;" horiz-adv-x="581" d="M457 705 L434 667 C394 697 345 713 291 713 C133 713 26 583 26 365 L26 335 C26 236 48 155 88 96 L27 -5 L124 -5 L147 33 C187 3 235 -13 290 -13 C447 -13 555 118 555 336 L555 366 C555 464 532 545 493 604 L554 705 L457 705 Z M291 134 C267 134 245 144 229 165 L386 441 C389 418 391 391 391 361 L391 338 C391 194 351 134 291 134 L291 134 Z M190 339 L190 362 C190 507 231 566 290 566 C314 566 335 556 352 535 L195 259 C191 282 190 308 190 339 L190 339 Z " />
<glyph glyph-name="Ugrave" unicode="&#xd9;" horiz-adv-x="547" d="M336 735 L251 868 L100 822 L220 735 L336 735 Z M272 -12 C413 -12 511 67 511 245 L511 700 L347 700 L347 235 C347 169 318 139 274 139 C230 139 201 170 201 236 L201 700 L35 700 L35 243 C35 67 132 -12 272 -12 L272 -12 Z " />
<glyph glyph-name="Uacute" unicode="&#xda;" horiz-adv-x="547" d="M211 735 L327 735 L447 822 L296 868 L211 735 Z M272 -12 C413 -12 511 67 511 245 L511 700 L347 700 L347 235 C347 169 318 139 274 139 C230 139 201 170 201 236 L201 700 L35 700 L35 243 C35 67 132 -12 272 -12 L272 -12 Z " />
<glyph glyph-name="Ucircumflex" unicode="&#xdb;" horiz-adv-x="547" d="M272 -12 C413 -12 511 67 511 245 L511 700 L347 700 L347 235 C347 169 318 139 274 139 C230 139 201 170 201 236 L201 700 L35 700 L35 243 C35 67 132 -12 272 -12 L272 -12 Z M116 735 L219 735 L272 779 L326 735 L430 735 L339 858 L207 858 L116 735 Z " />
<glyph glyph-name="Udieresis" unicode="&#xdc;" horiz-adv-x="547" d="M293 736 L426 736 L426 855 L293 855 L293 736 Z M119 736 L251 736 L251 855 L119 855 L119 736 Z M272 -12 C413 -12 511 67 511 245 L511 700 L347 700 L347 235 C347 169 318 139 274 139 C230 139 201 170 201 236 L201 700 L35 700 L35 243 C35 67 132 -12 272 -12 L272 -12 Z " />
<glyph glyph-name="Yacute" unicode="&#xdd;" horiz-adv-x="517" d="M176 0 L341 0 L341 262 L519 700 L347 700 L260 450 L173 700 L-3 700 L176 261 L176 0 Z M196 735 L312 735 L432 822 L281 868 L196 735 Z " />
<glyph glyph-name="Thorn" unicode="&#xde;" horiz-adv-x="504" d="M40 0 L204 0 L204 115 L240 115 C371 115 487 191 487 360 L487 367 C487 527 384 606 238 606 L204 606 L204 700 L40 700 L40 0 Z M204 256 L204 465 L233 465 C292 465 323 430 323 362 L323 358 C323 294 290 256 232 256 L204 256 Z " />
<glyph glyph-name="germandbls" unicode="&#xdf;" horiz-adv-x="499" d="M245 -3 C394 -4 480 68 480 199 L480 204 C480 296 431 345 370 373 C423 405 459 456 459 530 L459 537 C459 637 389 721 253 721 C108 721 35 629 35 490 L35 0 L195 0 L195 492 C195 554 215 586 251 586 C282 586 302 559 302 515 L302 514 C302 466 280 432 245 411 L245 305 C294 296 321 266 321 214 C321 163 293 131 245 126 L245 -3 Z " />
<glyph glyph-name="agrave" unicode="&#xe0;" horiz-adv-x="450" d="M147 -10 C198 -10 234 13 261 53 L261 0 L420 0 L420 339 C420 408 403 461 368 496 C333 530 280 549 210 549 C146 549 83 530 38 508 L80 380 C97 391 136 411 183 411 C232 411 262 385 262 331 L262 315 C236 327 205 335 169 335 C79 335 15 283 15 164 L15 152 C15 48 73 -10 147 -10 L147 -10 Z M208 102 C182 103 165 124 165 164 L165 170 C165 212 183 237 216 237 C233 237 251 232 262 227 L262 168 C262 126 237 101 208 102 L208 102 Z M182 581 L285 581 L199 735 L59 687 L182 581 Z " />
<glyph glyph-name="aacute" unicode="&#xe1;" horiz-adv-x="450" d="M147 -10 C198 -10 234 13 261 53 L261 0 L420 0 L420 339 C420 408 403 461 368 496 C333 530 280 549 210 549 C146 549 83 530 38 508 L80 380 C97 391 136 411 183 411 C232 411 262 385 262 331 L262 315 C236 327 205 335 169 335 C79 335 15 283 15 164 L15 152 C15 48 73 -10 147 -10 L147 -10 Z M208 102 C182 103 165 124 165 164 L165 170 C165 212 183 237 216 237 C233 237 251 232 262 227 L262 168 C262 126 237 101 208 102 L208 102 Z M167 581 L270 581 L393 687 L253 735 L167 581 Z " />
<glyph glyph-name="acircumflex" unicode="&#xe2;" horiz-adv-x="450" d="M147 -10 C198 -10 234 13 261 53 L261 0 L420 0 L420 339 C420 408 403 461 368 496 C333 530 280 549 210 549 C146 549 83 530 38 508 L80 380 C97 391 136 411 183 411 C232 411 262 385 262 331 L262 315 C236 327 205 335 169 335 C79 335 15 283 15 164 L15 152 C15 48 73 -10 147 -10 L147 -10 Z M208 102 C182 103 165 124 165 164 L165 170 C165 212 183 237 216 237 C233 237 251 232 262 227 L262 168 C262 126 237 101 208 102 L208 102 Z M72 581 L168 581 L226 635 L285 581 L383 581 L288 721 L166 721 L72 581 Z " />
<glyph glyph-name="atilde" unicode="&#xe3;" horiz-adv-x="450" d="M147 -10 C198 -10 234 13 261 53 L261 0 L420 0 L420 339 C420 408 403 461 368 496 C333 530 280 549 210 549 C146 549 83 530 38 508 L80 380 C97 391 136 411 183 411 C232 411 262 385 262 331 L262 315 C236 327 205 335 169 335 C79 335 15 283 15 164 L15 152 C15 48 73 -10 147 -10 L147 -10 Z M208 102 C182 103 165 124 165 164 L165 170 C165 212 183 237 216 237 C233 237 251 232 262 227 L262 168 C262 126 237 101 208 102 L208 102 Z M305 580 C356 580 383 620 395 706 L318 723 C310 695 303 683 282 683 C270 683 255 690 229 699 C202 709 179 718 155 718 C105 718 77 678 65 592 L142 575 C150 603 157 614 178 614 C190 614 205 608 232 599 C258 589 282 580 305 580 L305 580 Z " />
<glyph glyph-name="adieresis" unicode="&#xe4;" horiz-adv-x="450" d="M147 -10 C198 -10 234 13 261 53 L261 0 L420 0 L420 339 C420 408 403 461 368 496 C333 530 280 549 210 549 C146 549 83 530 38 508 L80 380 C97 391 136 411 183 411 C232 411 262 385 262 331 L262 315 C236 327 205 335 169 335 C79 335 15 283 15 164 L15 152 C15 48 73 -10 147 -10 L147 -10 Z M208 102 C182 103 165 124 165 164 L165 170 C165 212 183 237 216 237 C233 237 251 232 262 227 L262 168 C262 126 237 101 208 102 L208 102 Z M246 582 L375 582 L375 707 L246 707 L246 582 Z M80 582 L209 582 L209 707 L80 707 L80 582 Z " />
<glyph glyph-name="aring" unicode="&#xe5;" horiz-adv-x="450" d="M147 -10 C198 -10 234 13 261 53 L261 0 L420 0 L420 339 C420 408 403 461 368 496 C333 530 280 549 210 549 C146 549 83 530 38 508 L80 380 C97 391 136 411 183 411 C232 411 262 385 262 331 L262 315 C236 327 205 335 169 335 C79 335 15 283 15 164 L15 152 C15 48 73 -10 147 -10 L147 -10 Z M208 102 C182 103 165 124 165 164 L165 170 C165 212 183 237 216 237 C233 237 251 232 262 227 L262 168 C262 126 237 101 208 102 L208 102 Z M227 578 C286 578 333 624 333 683 C333 743 286 788 227 788 C168 788 121 742 121 684 C121 624 168 578 227 578 L227 578 Z M227 630 C199 630 177 652 177 683 C177 714 199 737 227 737 C256 737 277 714 277 683 C277 652 256 630 227 630 L227 630 Z " />
<glyph glyph-name="ae" unicode="&#xe6;" horiz-adv-x="693" d="M166 -10 C227 -10 281 25 318 76 C356 19 417 -12 487 -12 C557 -12 613 14 663 56 L602 170 C576 144 543 124 504 124 C456 124 423 152 413 211 L673 211 C674 226 674 271 674 273 C674 445 600 553 473 553 C423 553 380 532 348 495 C317 529 272 549 209 549 C143 549 91 534 38 510 L79 377 C97 389 138 411 184 411 C232 411 262 384 262 331 L262 315 C236 327 205 335 169 335 C79 335 15 283 15 166 L15 158 C15 49 80 -10 166 -10 L166 -10 Z M412 310 C415 390 437 422 469 422 C502 422 522 386 525 310 L412 310 Z M213 103 C184 103 165 125 165 164 L165 171 C165 212 184 237 217 237 C236 237 252 232 267 225 C269 200 274 176 280 154 C261 120 237 103 213 103 L213 103 Z " />
<glyph glyph-name="ccedilla" unicode="&#xe7;" horiz-adv-x="396" d="M229 -144 L271 -9 C317 -2 358 20 391 54 L322 171 C304 151 285 135 258 135 C208 135 181 184 181 270 L181 275 C181 356 209 405 256 405 C282 405 301 391 319 370 L393 494 C352 531 304 552 246 552 C115 552 22 445 22 278 L22 257 C22 124 76 32 164 0 L91 -100 L229 -144 Z " />
<glyph glyph-name="egrave" unicode="&#xe8;" horiz-adv-x="456" d="M251 -12 C321 -12 376 15 427 56 L365 170 C339 146 306 124 267 124 C221 124 187 152 177 211 L437 211 L437 273 C437 445 364 553 233 553 C110 553 21 449 21 280 L21 259 C21 86 116 -12 251 -12 L251 -12 Z M189 581 L292 581 L206 735 L66 687 L189 581 Z M175 310 C179 390 201 422 232 422 C266 422 286 386 288 310 L175 310 Z " />
<glyph glyph-name="eacute" unicode="&#xe9;" horiz-adv-x="456" d="M251 -12 C321 -12 376 15 427 56 L365 170 C339 146 306 124 267 124 C221 124 187 152 177 211 L437 211 L437 273 C437 445 364 553 233 553 C110 553 21 449 21 280 L21 259 C21 86 116 -12 251 -12 L251 -12 Z M173 581 L276 581 L399 687 L259 735 L173 581 Z M175 310 C179 390 201 422 232 422 C266 422 286 386 288 310 L175 310 Z " />
<glyph glyph-name="ecircumflex" unicode="&#xea;" horiz-adv-x="456" d="M251 -12 C321 -12 376 15 427 56 L365 170 C339 146 306 124 267 124 C221 124 187 152 177 211 L437 211 L437 273 C437 445 364 553 233 553 C110 553 21 449 21 280 L21 259 C21 86 116 -12 251 -12 L251 -12 Z M79 580 L175 580 L233 634 L292 580 L390 580 L295 720 L173 720 L79 580 Z M175 310 C179 390 201 422 232 422 C266 422 286 386 288 310 L175 310 Z " />
<glyph glyph-name="edieresis" unicode="&#xeb;" horiz-adv-x="456" d="M251 -12 C321 -12 376 15 427 56 L365 170 C339 146 306 124 267 124 C221 124 187 152 177 211 L437 211 L437 273 C437 445 364 553 233 553 C110 553 21 449 21 280 L21 259 C21 86 116 -12 251 -12 L251 -12 Z M86 582 L215 582 L215 707 L86 707 L86 582 Z M252 582 L381 582 L381 707 L252 707 L252 582 Z M175 310 C179 390 201 422 232 422 C266 422 286 386 288 310 L175 310 Z " />
<glyph glyph-name="igrave" unicode="&#xec;" horiz-adv-x="234" d="M37 0 L197 0 L197 541 L37 541 L37 0 Z M73 577 L176 577 L90 731 L-50 683 L73 577 Z " />
<glyph glyph-name="iacute" unicode="&#xed;" horiz-adv-x="234" d="M59 577 L162 577 L285 683 L145 731 L59 577 Z M37 0 L197 0 L197 541 L37 541 L37 0 Z " />
<glyph glyph-name="icircumflex" unicode="&#xee;" horiz-adv-x="234" d="M-37 577 L59 577 L117 631 L176 577 L274 577 L179 717 L57 717 L-37 577 Z M37 0 L197 0 L197 541 L37 541 L37 0 Z " />
<glyph glyph-name="idieresis" unicode="&#xef;" horiz-adv-x="234" d="M137 578 L266 578 L266 703 L137 703 L137 578 Z M-29 578 L100 578 L100 703 L-29 703 L-29 578 Z M37 0 L197 0 L197 541 L37 541 L37 0 Z " />
<glyph glyph-name="eth" unicode="&#xf0;" horiz-adv-x="486" d="M417 644 L392 719 L311 696 L290 717 L104 717 C127 697 148 677 169 656 L112 640 L138 566 L225 590 C245 563 262 536 275 509 C245 533 221 544 184 544 C97 544 22 456 22 293 L22 261 C22 90 110 -13 241 -13 C379 -13 464 96 464 288 L464 311 C464 432 425 542 365 629 L417 644 Z M243 127 C202 127 180 178 180 262 L180 279 C180 364 201 414 242 414 C284 414 307 364 307 279 L307 262 C307 177 286 127 243 127 L243 127 Z " />
<glyph glyph-name="ntilde" unicode="&#xf1;" horiz-adv-x="479" d="M34 0 L194 0 L194 349 C194 388 214 409 242 409 C270 409 288 388 288 349 L288 0 L448 0 L448 396 C448 490 401 552 316 552 C256 552 220 515 194 475 L194 541 L34 541 L34 0 Z M319 580 C370 580 397 620 409 706 L332 723 C324 695 317 683 296 683 C284 683 269 690 243 699 C216 709 193 718 169 718 C119 718 91 678 79 592 L156 575 C164 603 171 614 192 614 C204 614 219 608 246 599 C272 589 296 580 319 580 L319 580 Z " />
<glyph glyph-name="ograve" unicode="&#xf2;" horiz-adv-x="487" d="M243 -13 C373 -13 465 90 465 256 L465 285 C465 451 374 553 244 553 C114 553 22 450 22 284 L22 255 C22 89 113 -13 243 -13 L243 -13 Z M244 127 C203 127 180 177 180 262 L180 279 C180 365 201 414 243 414 C285 414 307 364 307 279 L307 262 C307 177 286 127 244 127 L244 127 Z M200 581 L303 581 L217 735 L77 687 L200 581 Z " />
<glyph glyph-name="oacute" unicode="&#xf3;" horiz-adv-x="487" d="M184 581 L287 581 L410 687 L270 735 L184 581 Z M243 -13 C373 -13 465 90 465 256 L465 285 C465 451 374 553 244 553 C114 553 22 450 22 284 L22 255 C22 89 113 -13 243 -13 L243 -13 Z M244 127 C203 127 180 177 180 262 L180 279 C180 365 201 414 243 414 C285 414 307 364 307 279 L307 262 C307 177 286 127 244 127 L244 127 Z " />
<glyph glyph-name="ocircumflex" unicode="&#xf4;" horiz-adv-x="487" d="M90 580 L186 580 L244 634 L303 580 L401 580 L306 720 L184 720 L90 580 Z M243 -13 C373 -13 465 90 465 256 L465 285 C465 451 374 553 244 553 C114 553 22 450 22 284 L22 255 C22 89 113 -13 243 -13 L243 -13 Z M244 127 C203 127 180 177 180 262 L180 279 C180 365 201 414 243 414 C285 414 307 364 307 279 L307 262 C307 177 286 127 244 127 L244 127 Z " />
<glyph glyph-name="otilde" unicode="&#xf5;" horiz-adv-x="487" d="M243 -13 C373 -13 465 90 465 256 L465 285 C465 451 374 553 244 553 C114 553 22 450 22 284 L22 255 C22 89 113 -13 243 -13 L243 -13 Z M244 127 C203 127 180 177 180 262 L180 279 C180 365 201 414 243 414 C285 414 307 364 307 279 L307 262 C307 177 286 127 244 127 L244 127 Z M322 580 C373 580 400 620 412 706 L335 723 C327 695 320 683 299 683 C287 683 272 690 246 699 C219 709 196 718 172 718 C122 718 94 678 82 592 L159 575 C167 603 174 614 195 614 C207 614 222 608 249 599 C275 589 299 580 322 580 L322 580 Z " />
<glyph glyph-name="odieresis" unicode="&#xf6;" horiz-adv-x="487" d="M263 582 L392 582 L392 707 L263 707 L263 582 Z M97 582 L226 582 L226 707 L97 707 L97 582 Z M243 -13 C373 -13 465 90 465 256 L465 285 C465 451 374 553 244 553 C114 553 22 450 22 284 L22 255 C22 89 113 -13 243 -13 L243 -13 Z M244 127 C203 127 180 177 180 262 L180 279 C180 365 201 414 243 414 C285 414 307 364 307 279 L307 262 C307 177 286 127 244 127 L244 127 Z " />
<glyph glyph-name="divide" unicode="&#xf7;" horiz-adv-x="488" d="M169 473 L319 473 L319 611 L169 611 L169 473 Z M454 284 L454 420 L34 420 L34 284 L454 284 Z M169 94 L319 94 L319 231 L169 231 L169 94 Z " />
<glyph glyph-name="oslash" unicode="&#xf8;" horiz-adv-x="487" d="M385 545 L365 515 C331 539 290 553 244 553 C114 553 22 450 22 284 L22 255 C22 184 39 125 69 80 L11 -5 L102 -5 L122 25 C156 0 197 -13 243 -13 C373 -13 465 90 465 256 L465 285 C465 356 448 415 418 460 L476 545 L385 545 Z M174 260 L174 280 C174 368 199 419 243 419 C260 419 274 412 285 398 L175 226 C174 237 174 248 174 260 L174 260 Z M244 122 C227 122 213 129 202 142 L312 313 C313 303 313 292 313 280 L313 260 C313 173 288 122 244 122 L244 122 Z " />
<glyph glyph-name="ugrave" unicode="&#xf9;" horiz-adv-x="479" d="M163 -11 C223 -11 259 26 284 66 L284 0 L445 0 L445 541 L284 541 L284 192 C284 154 264 132 237 132 C209 132 191 154 191 192 L191 541 L31 541 L31 146 C31 51 77 -11 163 -11 L163 -11 Z M194 577 L297 577 L211 731 L71 683 L194 577 Z " />
<glyph glyph-name="uacute" unicode="&#xfa;" horiz-adv-x="479" d="M178 577 L281 577 L404 683 L264 731 L178 577 Z M163 -11 C223 -11 259 26 284 66 L284 0 L445 0 L445 541 L284 541 L284 192 C284 154 264 132 237 132 C209 132 191 154 191 192 L191 541 L31 541 L31 146 C31 51 77 -11 163 -11 L163 -11 Z " />
<glyph glyph-name="ucircumflex" unicode="&#xfb;" horiz-adv-x="479" d="M83 577 L179 577 L237 631 L296 577 L394 577 L299 717 L177 717 L83 577 Z M163 -11 C223 -11 259 26 284 66 L284 0 L445 0 L445 541 L284 541 L284 192 C284 154 264 132 237 132 C209 132 191 154 191 192 L191 541 L31 541 L31 146 C31 51 77 -11 163 -11 L163 -11 Z " />
<glyph glyph-name="udieresis" unicode="&#xfc;" horiz-adv-x="479" d="M257 578 L386 578 L386 703 L257 703 L257 578 Z M91 578 L220 578 L220 703 L91 703 L91 578 Z M163 -11 C223 -11 259 26 284 66 L284 0 L445 0 L445 541 L284 541 L284 192 C284 154 264 132 237 132 C209 132 191 154 191 192 L191 541 L31 541 L31 146 C31 51 77 -11 163 -11 L163 -11 Z " />
<glyph glyph-name="yacute" unicode="&#xfd;" horiz-adv-x="463" d="M234 231 L168 541 L5 541 L154 7 C149 -10 136 -14 122 -14 C109 -14 89 -9 70 2 L41 -117 C76 -135 115 -145 150 -145 C240 -145 286 -97 317 19 L459 541 L298 541 L234 231 Z M173 577 L276 577 L399 683 L259 731 L173 577 Z " />
<glyph glyph-name="thorn" unicode="&#xfe;" horiz-adv-x="499" d="M34 -140 L194 -140 L194 64 C221 24 255 -11 316 -11 C402 -11 475 62 475 253 L475 289 C475 480 401 552 315 552 C254 552 221 516 194 475 L194 717 L34 717 L34 -140 Z M255 130 C216 130 193 180 193 259 L193 283 C193 362 216 411 255 411 C294 411 316 362 316 283 L316 259 C316 180 294 130 255 130 L255 130 Z " />
<glyph glyph-name="ydieresis" unicode="&#xff;" horiz-adv-x="463" d="M234 231 L168 541 L5 541 L154 7 C149 -10 136 -14 122 -14 C109 -14 89 -9 70 2 L41 -117 C76 -135 115 -145 150 -145 C240 -145 286 -97 317 19 L459 541 L298 541 L234 231 Z M252 578 L381 578 L381 703 L252 703 L252 578 Z M86 578 L215 578 L215 703 L86 703 L86 578 Z " />
<glyph glyph-name="Amacron" unicode="&#x100;" horiz-adv-x="556" d="M1 0 L165 0 L195 127 L357 127 L387 0 L556 0 L367 703 L189 703 L1 0 Z M227 262 L276 476 L325 262 L227 262 Z M124 744 L431 744 L431 845 L124 845 L124 744 Z " />
<glyph glyph-name="amacron" unicode="&#x101;" horiz-adv-x="450" d="M147 -10 C198 -10 234 13 261 53 L261 0 L420 0 L420 339 C420 408 403 461 368 496 C333 530 280 549 210 549 C146 549 83 530 38 508 L80 380 C97 391 136 411 183 411 C232 411 262 385 262 331 L262 315 C236 327 205 335 169 335 C79 335 15 283 15 164 L15 152 C15 48 73 -10 147 -10 L147 -10 Z M208 102 C182 103 165 124 165 164 L165 170 C165 212 183 237 216 237 C233 237 251 232 262 227 L262 168 C262 126 237 101 208 102 L208 102 Z M82 586 L372 586 L372 684 L82 684 L82 586 Z " />
<glyph glyph-name="Abreve" unicode="&#x102;" horiz-adv-x="556" d="M1 0 L165 0 L195 127 L357 127 L387 0 L556 0 L367 703 L189 703 L1 0 Z M227 262 L276 476 L325 262 L227 262 Z M277 737 C360 737 418 776 424 859 L333 859 C325 834 308 822 277 822 C246 822 229 834 222 859 L130 859 C136 776 194 737 277 737 L277 737 Z " />
<glyph glyph-name="abreve" unicode="&#x103;" horiz-adv-x="450" d="M147 -10 C198 -10 234 13 261 53 L261 0 L420 0 L420 339 C420 408 403 461 368 496 C333 530 280 549 210 549 C146 549 83 530 38 508 L80 380 C97 391 136 411 183 411 C232 411 262 385 262 331 L262 315 C236 327 205 335 169 335 C79 335 15 283 15 164 L15 152 C15 48 73 -10 147 -10 L147 -10 Z M208 102 C182 103 165 124 165 164 L165 170 C165 212 183 237 216 237 C233 237 251 232 262 227 L262 168 C262 126 237 101 208 102 L208 102 Z M227 578 C309 578 368 623 376 712 L286 712 C279 683 261 665 227 665 C193 665 175 683 169 712 L78 712 C86 623 146 578 227 578 L227 578 Z " />
<glyph glyph-name="Aogonek" unicode="&#x104;" horiz-adv-x="556" d="M562 -71 C523 -70 508 -63 508 -43 C508 -31 513 -18 527 0 L556 0 L367 703 L189 703 L1 0 L165 0 L195 127 L357 127 L387 0 L421 0 C395 -27 382 -53 382 -80 C382 -128 429 -154 506 -154 C525 -154 543 -153 562 -150 L562 -71 Z M227 262 L276 476 L325 262 L227 262 Z " />
<glyph glyph-name="aogonek" unicode="&#x105;" horiz-adv-x="450" d="M427 -71 C388 -70 373 -63 373 -43 C373 -31 378 -18 392 0 L420 0 L420 339 C420 408 403 461 368 496 C333 530 280 549 210 549 C146 549 83 530 38 508 L80 380 C97 391 136 411 183 411 C232 411 262 385 262 331 L262 315 C236 327 205 335 169 335 C79 335 15 283 15 164 L15 152 C15 48 73 -10 147 -10 C198 -10 234 13 261 53 L261 0 L286 0 C260 -27 247 -53 247 -80 C247 -128 294 -154 371 -154 C390 -154 408 -153 427 -150 L427 -71 Z M208 102 C182 103 165 124 165 164 L165 170 C165 212 183 237 216 237 C233 237 251 232 262 227 L262 168 C262 126 237 101 208 102 L208 102 Z " />
<glyph glyph-name="Cacute" unicode="&#x106;" horiz-adv-x="489" d="M294 -10 C374 -10 435 23 483 69 L401 197 C376 172 349 148 307 148 C250 148 194 202 194 348 L194 354 C194 491 245 553 307 553 C346 553 375 529 396 507 L481 639 C434 684 377 710 301 710 C149 710 26 590 26 361 L26 337 C26 109 139 -10 294 -10 L294 -10 Z M222 740 L338 740 L458 827 L307 873 L222 740 Z " />
<glyph glyph-name="cacute" unicode="&#x107;" horiz-adv-x="396" d="M173 581 L276 581 L399 687 L259 735 L173 581 Z M238 -12 C298 -12 351 12 391 54 L322 171 C304 151 285 135 258 135 C208 135 181 184 181 270 L181 275 C181 356 209 405 256 405 C282 405 301 391 319 370 L393 494 C352 531 304 552 246 552 C115 552 22 445 22 278 L22 257 C22 91 107 -12 238 -12 L238 -12 Z " />
<glyph glyph-name="Cdotaccent" unicode="&#x10a;" horiz-adv-x="489" d="M214 741 L352 741 L352 860 L214 860 L214 741 Z M294 -10 C374 -10 435 23 483 69 L401 197 C376 172 349 148 307 148 C250 148 194 202 194 348 L194 354 C194 491 245 553 307 553 C346 553 375 529 396 507 L481 639 C434 684 377 710 301 710 C149 710 26 590 26 361 L26 337 C26 109 139 -10 294 -10 L294 -10 Z " />
<glyph glyph-name="cdotaccent" unicode="&#x10b;" horiz-adv-x="396" d="M238 -12 C298 -12 351 12 391 54 L322 171 C304 151 285 135 258 135 C208 135 181 184 181 270 L181 275 C181 356 209 405 256 405 C282 405 301 391 319 370 L393 494 C352 531 304 552 246 552 C115 552 22 445 22 278 L22 257 C22 91 107 -12 238 -12 L238 -12 Z M166 582 L301 582 L301 707 L166 707 L166 582 Z " />
<glyph glyph-name="Ccaron" unicode="&#x10c;" horiz-adv-x="489" d="M294 -10 C374 -10 435 23 483 69 L401 197 C376 172 349 148 307 148 C250 148 194 202 194 348 L194 354 C194 491 245 553 307 553 C346 553 375 529 396 507 L481 639 C434 684 377 710 301 710 C149 710 26 590 26 361 L26 337 C26 109 139 -10 294 -10 L294 -10 Z M440 863 L337 863 L284 819 L230 863 L126 863 L217 740 L349 740 L440 863 Z " />
<glyph glyph-name="ccaron" unicode="&#x10d;" horiz-adv-x="396" d="M389 721 L293 721 L234 667 L176 721 L78 721 L173 581 L294 581 L389 721 Z M238 -12 C298 -12 351 12 391 54 L322 171 C304 151 285 135 258 135 C208 135 181 184 181 270 L181 275 C181 356 209 405 256 405 C282 405 301 391 319 370 L393 494 C352 531 304 552 246 552 C115 552 22 445 22 278 L22 257 C22 91 107 -12 238 -12 L238 -12 Z " />
<glyph glyph-name="Dcaron" unicode="&#x10e;" horiz-adv-x="556" d="M40 0 L224 0 C423 0 532 128 532 339 L532 363 C532 574 424 700 225 700 L40 700 L40 0 Z M228 551 C309 551 363 499 363 359 L363 341 C363 203 309 149 228 149 L205 149 L205 551 L228 551 Z M425 858 L322 858 L269 814 L215 858 L111 858 L202 735 L334 735 L425 858 Z " />
<glyph glyph-name="dcaron" unicode="&#x10f;" horiz-adv-x="499" d="M494 570 L556 570 L604 739 L604 740 L503 740 L494 570 Z M184 -11 C245 -11 278 26 305 67 L305 0 L465 0 L465 717 L305 717 L305 477 C277 517 244 552 183 552 C98 552 24 480 24 288 L24 252 C24 61 98 -11 184 -11 L184 -11 Z M244 130 C205 130 183 179 183 259 L183 283 C183 362 205 411 244 411 C283 411 306 362 306 283 L306 259 C306 179 283 130 244 130 L244 130 Z " />
<glyph glyph-name="Dcroat" unicode="&#x110;" horiz-adv-x="582" d="M65 0 L250 0 C447 0 557 128 557 339 L557 363 C557 574 447 700 251 700 L65 700 L65 421 L15 421 L15 284 L65 284 L65 0 Z M300 285 L300 419 L227 419 L227 553 L253 553 C335 553 389 500 389 359 L389 341 C389 202 335 148 253 148 L227 148 L227 285 L300 285 Z " />
<glyph glyph-name="dcroat" unicode="&#x111;" horiz-adv-x="499" d="M207 582 L305 582 L305 477 C277 517 244 552 183 552 C98 552 24 480 24 288 L24 252 C24 61 98 -11 184 -11 C245 -11 278 26 305 67 L305 0 L465 0 L465 580 L504 580 L504 672 L465 672 L465 717 L305 717 L305 672 L207 672 L207 582 Z M244 130 C205 130 183 179 183 259 L183 283 C183 362 205 411 244 411 C283 411 306 362 306 283 L306 259 C306 179 283 130 244 130 L244 130 Z " />
<glyph glyph-name="Emacron" unicode="&#x112;" horiz-adv-x="460" d="M85 739 L392 739 L392 840 L85 840 L85 739 Z M40 0 L435 0 L435 150 L204 150 L204 280 L408 280 L408 425 L204 425 L204 550 L431 550 L431 700 L40 700 L40 0 Z " />
<glyph glyph-name="emacron" unicode="&#x113;" horiz-adv-x="456" d="M251 -12 C321 -12 376 15 427 56 L365 170 C339 146 306 124 267 124 C221 124 187 152 177 211 L437 211 L437 273 C437 445 364 553 233 553 C110 553 21 449 21 280 L21 259 C21 86 116 -12 251 -12 L251 -12 Z M88 586 L378 586 L378 684 L88 684 L88 586 Z M175 310 C179 390 201 422 232 422 C266 422 286 386 288 310 L175 310 Z " />
<glyph glyph-name="Ebreve" unicode="&#x114;" horiz-adv-x="460" d="M238 732 C321 732 379 771 385 854 L294 854 C286 829 269 817 238 817 C207 817 190 829 183 854 L91 854 C97 771 155 732 238 732 L238 732 Z M40 0 L435 0 L435 150 L204 150 L204 280 L408 280 L408 425 L204 425 L204 550 L431 550 L431 700 L40 700 L40 0 Z " />
<glyph glyph-name="ebreve" unicode="&#x115;" horiz-adv-x="456" d="M251 -12 C321 -12 376 15 427 56 L365 170 C339 146 306 124 267 124 C221 124 187 152 177 211 L437 211 L437 273 C437 445 364 553 233 553 C110 553 21 449 21 280 L21 259 C21 86 116 -12 251 -12 L251 -12 Z M233 578 C315 578 374 623 382 712 L292 712 C285 683 267 665 233 665 C199 665 181 683 175 712 L84 712 C92 623 152 578 233 578 L233 578 Z M175 310 C179 390 201 422 232 422 C266 422 286 386 288 310 L175 310 Z " />
<glyph glyph-name="Edotaccent" unicode="&#x116;" horiz-adv-x="460" d="M169 736 L307 736 L307 855 L169 855 L169 736 Z M40 0 L435 0 L435 150 L204 150 L204 280 L408 280 L408 425 L204 425 L204 550 L431 550 L431 700 L40 700 L40 0 Z " />
<glyph glyph-name="edotaccent" unicode="&#x117;" horiz-adv-x="456" d="M251 -12 C321 -12 376 15 427 56 L365 170 C339 146 306 124 267 124 C221 124 187 152 177 211 L437 211 L437 273 C437 445 364 553 233 553 C110 553 21 449 21 280 L21 259 C21 86 116 -12 251 -12 L251 -12 Z M166 582 L301 582 L301 707 L166 707 L166 582 Z M175 310 C179 390 201 422 232 422 C266 422 286 386 288 310 L175 310 Z " />
<glyph glyph-name="Eogonek" unicode="&#x118;" horiz-adv-x="460" d="M40 0 L295 0 C269 -27 256 -53 256 -80 C256 -128 303 -154 380 -154 C399 -154 417 -153 436 -150 L436 -71 C397 -70 382 -63 382 -43 C382 -31 387 -18 401 0 L435 0 L435 150 L204 150 L204 280 L408 280 L408 425 L204 425 L204 550 L431 550 L431 700 L40 700 L40 0 Z " />
<glyph glyph-name="eogonek" unicode="&#x119;" horiz-adv-x="456" d="M365 170 C339 146 306 124 267 124 C221 124 187 152 177 211 L437 211 L437 273 C437 445 364 553 233 553 C110 553 21 449 21 280 L21 259 C21 86 116 -12 251 -12 L258 -12 C239 -36 228 -57 228 -81 C228 -128 275 -154 352 -154 C371 -154 389 -153 408 -150 L408 -71 C368 -70 354 -63 354 -42 C354 -25 368 -1 396 28 C405 37 417 47 427 56 L365 170 Z M175 310 C179 390 201 422 232 422 C266 422 286 386 288 310 L175 310 Z " />
<glyph glyph-name="Ecaron" unicode="&#x11a;" horiz-adv-x="460" d="M395 858 L292 858 L239 814 L185 858 L81 858 L172 735 L304 735 L395 858 Z M40 0 L435 0 L435 150 L204 150 L204 280 L408 280 L408 425 L204 425 L204 550 L431 550 L431 700 L40 700 L40 0 Z " />
<glyph glyph-name="ecaron" unicode="&#x11b;" horiz-adv-x="456" d="M251 -12 C321 -12 376 15 427 56 L365 170 C339 146 306 124 267 124 C221 124 187 152 177 211 L437 211 L437 273 C437 445 364 553 233 553 C110 553 21 449 21 280 L21 259 C21 86 116 -12 251 -12 L251 -12 Z M389 721 L293 721 L234 667 L176 721 L78 721 L173 581 L294 581 L389 721 Z M175 310 C179 390 201 422 232 422 C266 422 286 386 288 310 L175 310 Z " />
<glyph glyph-name="Gbreve" unicode="&#x11e;" horiz-adv-x="547" d="M301 737 C384 737 442 776 448 859 L357 859 C349 834 332 822 301 822 C270 822 253 834 246 859 L154 859 C160 776 218 737 301 737 L301 737 Z M311 -10 C392 -10 459 18 515 54 L515 410 L281 410 L281 274 L363 274 L363 148 C353 142 337 137 317 137 C251 137 193 196 193 341 L193 359 C193 486 249 556 324 556 C374 556 404 531 426 508 L510 643 C449 689 391 710 318 710 C151 710 26 580 26 364 L26 336 C26 109 150 -10 311 -10 L311 -10 Z " />
<glyph glyph-name="gbreve" unicode="&#x11f;" horiz-adv-x="499" d="M223 -143 C306 -143 367 -125 408 -83 C446 -46 465 10 465 89 L465 541 L305 541 L305 478 C276 518 242 552 181 552 C97 552 24 482 24 302 L24 288 C24 110 96 41 183 41 C243 41 278 76 306 117 L306 82 C306 17 272 -15 207 -15 C159 -15 104 1 72 17 L36 -108 C96 -131 152 -143 223 -143 L223 -143 Z M244 177 C205 177 183 219 183 294 L183 297 C183 371 205 415 244 415 C283 415 306 371 306 298 L306 294 C306 220 283 177 244 177 L244 177 Z M258 578 C340 578 399 623 407 712 L317 712 C310 683 292 665 258 665 C224 665 206 683 200 712 L109 712 C117 623 177 578 258 578 L258 578 Z " />
<glyph glyph-name="Gdotaccent" unicode="&#x120;" horiz-adv-x="547" d="M232 741 L370 741 L370 860 L232 860 L232 741 Z M311 -10 C392 -10 459 18 515 54 L515 410 L281 410 L281 274 L363 274 L363 148 C353 142 337 137 317 137 C251 137 193 196 193 341 L193 359 C193 486 249 556 324 556 C374 556 404 531 426 508 L510 643 C449 689 391 710 318 710 C151 710 26 580 26 364 L26 336 C26 109 150 -10 311 -10 L311 -10 Z " />
<glyph glyph-name="gdotaccent" unicode="&#x121;" horiz-adv-x="499" d="M223 -143 C306 -143 367 -125 408 -83 C446 -46 465 10 465 89 L465 541 L305 541 L305 478 C276 518 242 552 181 552 C97 552 24 482 24 302 L24 288 C24 110 96 41 183 41 C243 41 278 76 306 117 L306 82 C306 17 272 -15 207 -15 C159 -15 104 1 72 17 L36 -108 C96 -131 152 -143 223 -143 L223 -143 Z M244 177 C205 177 183 219 183 294 L183 297 C183 371 205 415 244 415 C283 415 306 371 306 298 L306 294 C306 220 283 177 244 177 L244 177 Z M191 582 L326 582 L326 707 L191 707 L191 582 Z " />
<glyph glyph-name="Gcommaaccent" unicode="&#x122;" horiz-adv-x="547" d="M235 -252 C316 -246 365 -215 365 -134 L365 -43 L234 -43 L234 -152 L294 -152 C294 -183 277 -199 228 -206 L235 -252 Z M311 -10 C392 -10 459 18 515 54 L515 410 L281 410 L281 274 L363 274 L363 148 C353 142 337 137 317 137 C251 137 193 196 193 341 L193 359 C193 486 249 556 324 556 C374 556 404 531 426 508 L510 643 C449 689 391 710 318 710 C151 710 26 580 26 364 L26 336 C26 109 150 -10 311 -10 L311 -10 Z " />
<glyph glyph-name="gcommaaccent" unicode="&#x123;" horiz-adv-x="499" d="M321 791 C240 785 191 754 191 673 L191 582 L322 582 L322 691 L262 691 C262 722 279 738 328 745 L321 791 Z M223 -143 C306 -143 367 -125 408 -83 C446 -46 465 10 465 89 L465 541 L305 541 L305 478 C276 518 242 552 181 552 C97 552 24 482 24 302 L24 288 C24 110 96 41 183 41 C243 41 278 76 306 117 L306 82 C306 17 272 -15 207 -15 C159 -15 104 1 72 17 L36 -108 C96 -131 152 -143 223 -143 L223 -143 Z M244 177 C205 177 183 219 183 294 L183 297 C183 371 205 415 244 415 C283 415 306 371 306 298 L306 294 C306 220 283 177 244 177 L244 177 Z " />
<glyph glyph-name="Hbar" unicode="&#x126;" horiz-adv-x="572" d="M6 513 L49 513 L49 0 L214 0 L214 276 L359 276 L359 0 L523 0 L523 513 L567 513 L567 628 L523 628 L523 700 L359 700 L359 625 L214 625 L214 700 L49 700 L49 628 L6 628 L6 513 Z M214 427 L214 516 L359 516 L359 427 L214 427 Z " />
<glyph glyph-name="hbar" unicode="&#x127;" horiz-adv-x="479" d="M292 582 L292 672 L194 672 L194 717 L34 717 L34 672 L-5 672 L-5 580 L34 580 L34 0 L194 0 L194 349 C194 388 214 409 242 409 C270 409 288 388 288 349 L288 0 L448 0 L448 396 C448 490 401 552 316 552 C256 552 220 515 194 475 L194 582 L292 582 Z " />
<glyph glyph-name="Imacron" unicode="&#x12a;" horiz-adv-x="250" d="M43 0 L207 0 L207 700 L43 700 L43 0 Z M-27 739 L280 739 L280 840 L-27 840 L-27 739 Z " />
<glyph glyph-name="imacron" unicode="&#x12b;" horiz-adv-x="234" d="M37 0 L197 0 L197 541 L37 541 L37 0 Z M-27 582 L263 582 L263 680 L-27 680 L-27 582 Z " />
<glyph glyph-name="Ibreve" unicode="&#x12c;" horiz-adv-x="250" d="M43 0 L207 0 L207 700 L43 700 L43 0 Z M126 732 C209 732 267 771 273 854 L182 854 C174 829 157 817 126 817 C95 817 78 829 71 854 L-21 854 C-15 771 43 732 126 732 L126 732 Z " />
<glyph glyph-name="ibreve" unicode="&#x12d;" horiz-adv-x="234" d="M37 0 L197 0 L197 541 L37 541 L37 0 Z M118 574 C200 574 259 619 267 708 L177 708 C170 679 152 661 118 661 C84 661 66 679 60 708 L-31 708 C-23 619 37 574 118 574 L118 574 Z " />
<glyph glyph-name="Iogonek" unicode="&#x12e;" horiz-adv-x="250" d="M43 0 L75 0 C49 -27 36 -53 36 -80 C36 -128 83 -154 160 -154 C179 -154 197 -153 216 -150 L216 -71 C177 -70 162 -63 162 -43 C162 -31 167 -18 181 0 L207 0 L207 700 L43 700 L43 0 Z " />
<glyph glyph-name="iogonek" unicode="&#x12f;" horiz-adv-x="234" d="M37 0 L67 0 C41 -27 28 -53 28 -80 C28 -128 75 -154 152 -154 C171 -154 189 -153 208 -150 L208 -71 C169 -70 154 -63 154 -43 C154 -31 159 -18 173 0 L197 0 L197 541 L37 541 L37 0 Z M35 585 L199 585 L199 717 L35 717 L35 585 Z " />
<glyph glyph-name="Idotaccent" unicode="&#x130;" horiz-adv-x="250" d="M43 0 L207 0 L207 700 L43 700 L43 0 Z M57 736 L195 736 L195 855 L57 855 L57 736 Z " />
<glyph glyph-name="dotlessi" unicode="&#x131;" horiz-adv-x="234" d="M37 0 L197 0 L197 541 L37 541 L37 0 Z " />
<glyph glyph-name="Kcommaaccent" unicode="&#x136;" horiz-adv-x="530" d="M203 -248 C284 -242 333 -211 333 -130 L333 -39 L202 -39 L202 -148 L262 -148 C262 -179 245 -195 196 -202 L203 -248 Z M41 0 L205 0 L205 182 L244 250 L345 0 L531 0 L363 405 L525 700 L343 700 L205 430 L205 700 L41 700 L41 0 Z " />
<glyph glyph-name="kcommaaccent" unicode="&#x137;" horiz-adv-x="458" d="M171 -248 C252 -242 301 -211 301 -130 L301 -39 L170 -39 L170 -148 L230 -148 C230 -179 213 -195 164 -202 L171 -248 Z M34 0 L194 0 L194 142 L222 189 L284 0 L458 0 L339 326 L457 541 L285 541 L194 361 L194 717 L34 717 L34 0 Z " />
<glyph glyph-name="Lacute" unicode="&#x139;" horiz-adv-x="423" d="M76 735 L192 735 L312 822 L161 868 L76 735 Z M40 0 L408 0 L408 152 L205 152 L205 700 L40 700 L40 0 Z " />
<glyph glyph-name="lacute" unicode="&#x13a;" horiz-adv-x="234" d="M60 745 L176 745 L296 832 L145 878 L60 745 Z M37 0 L197 0 L197 717 L37 717 L37 0 Z " />
<glyph glyph-name="Lcommaaccent" unicode="&#x13b;" horiz-adv-x="423" d="M161 -248 C242 -242 291 -211 291 -130 L291 -39 L160 -39 L160 -148 L220 -148 C220 -179 203 -195 154 -202 L161 -248 Z M40 0 L408 0 L408 152 L205 152 L205 700 L40 700 L40 0 Z " />
<glyph glyph-name="lcommaaccent" unicode="&#x13c;" horiz-adv-x="234" d="M54 -248 C135 -242 184 -211 184 -130 L184 -39 L53 -39 L53 -148 L113 -148 C113 -179 96 -195 47 -202 L54 -248 Z M37 0 L197 0 L197 717 L37 717 L37 0 Z " />
<glyph glyph-name="Lcaron" unicode="&#x13d;" horiz-adv-x="423" d="M238 530 L300 530 L348 699 L348 700 L247 700 L238 530 Z M40 0 L408 0 L408 152 L205 152 L205 700 L40 700 L40 0 Z " />
<glyph glyph-name="lcaron" unicode="&#x13e;" horiz-adv-x="234" d="M226 570 L288 570 L336 739 L336 740 L235 740 L226 570 Z M37 0 L197 0 L197 717 L37 717 L37 0 Z " />
<glyph glyph-name="Ldot" unicode="&#x13f;" horiz-adv-x="423" d="M273 313 L400 313 L400 456 L273 456 L273 313 Z M40 0 L408 0 L408 152 L205 152 L205 700 L40 700 L40 0 Z " />
<glyph glyph-name="ldot" unicode="&#x140;" horiz-adv-x="345" d="M232 292 L347 292 L347 434 L232 434 L232 292 Z M37 0 L197 0 L197 717 L37 717 L37 0 Z " />
<glyph glyph-name="Lslash" unicode="&#x141;" horiz-adv-x="453" d="M327 356 L327 514 L228 465 L228 700 L64 700 L64 385 L15 361 L15 204 L64 228 L64 0 L432 0 L432 152 L228 152 L228 307 L327 356 Z " />
<glyph glyph-name="lslash" unicode="&#x142;" horiz-adv-x="293" d="M282 355 L282 507 L227 478 L227 717 L67 717 L67 396 L12 368 L12 216 L67 244 L67 0 L227 0 L227 327 L282 355 Z " />
<glyph glyph-name="Nacute" unicode="&#x143;" horiz-adv-x="567" d="M221 735 L337 735 L457 822 L306 868 L221 735 Z M40 0 L200 0 L200 348 L379 0 L527 0 L527 700 L367 700 L367 368 L196 700 L40 700 L40 0 Z " />
<glyph glyph-name="nacute" unicode="&#x144;" horiz-adv-x="479" d="M181 581 L284 581 L407 687 L267 735 L181 581 Z M34 0 L194 0 L194 349 C194 388 214 409 242 409 C270 409 288 388 288 349 L288 0 L448 0 L448 396 C448 490 401 552 316 552 C256 552 220 515 194 475 L194 541 L34 541 L34 0 Z " />
<glyph glyph-name="Ncommaaccent" unicode="&#x145;" horiz-adv-x="567" d="M219 -248 C300 -242 349 -211 349 -130 L349 -39 L218 -39 L218 -148 L278 -148 C278 -179 261 -195 212 -202 L219 -248 Z M40 0 L200 0 L200 348 L379 0 L527 0 L527 700 L367 700 L367 368 L196 700 L40 700 L40 0 Z " />
<glyph glyph-name="ncommaaccent" unicode="&#x146;" horiz-adv-x="479" d="M178 -248 C259 -242 308 -211 308 -130 L308 -39 L177 -39 L177 -148 L237 -148 C237 -179 220 -195 171 -202 L178 -248 Z M34 0 L194 0 L194 349 C194 388 214 409 242 409 C270 409 288 388 288 349 L288 0 L448 0 L448 396 C448 490 401 552 316 552 C256 552 220 515 194 475 L194 541 L34 541 L34 0 Z " />
<glyph glyph-name="Ncaron" unicode="&#x147;" horiz-adv-x="567" d="M439 858 L336 858 L283 814 L229 858 L125 858 L216 735 L348 735 L439 858 Z M40 0 L200 0 L200 348 L379 0 L527 0 L527 700 L367 700 L367 368 L196 700 L40 700 L40 0 Z " />
<glyph glyph-name="ncaron" unicode="&#x148;" horiz-adv-x="479" d="M397 721 L301 721 L242 667 L184 721 L86 721 L181 581 L302 581 L397 721 Z M34 0 L194 0 L194 349 C194 388 214 409 242 409 C270 409 288 388 288 349 L288 0 L448 0 L448 396 C448 490 401 552 316 552 C256 552 220 515 194 475 L194 541 L34 541 L34 0 Z " />
<glyph glyph-name="Omacron" unicode="&#x14c;" horiz-adv-x="581" d="M136 744 L443 744 L443 845 L136 845 L136 744 Z M290 -13 C448 -13 555 117 555 336 L555 366 C555 584 449 713 291 713 C133 713 26 584 26 365 L26 335 C26 116 132 -13 290 -13 L290 -13 Z M291 137 C233 137 193 197 193 340 L193 361 C193 504 233 563 290 563 C347 563 387 504 387 360 L387 339 C387 196 348 137 291 137 L291 137 Z " />
<glyph glyph-name="omacron" unicode="&#x14d;" horiz-adv-x="487" d="M99 586 L389 586 L389 684 L99 684 L99 586 Z M243 -13 C373 -13 465 90 465 256 L465 285 C465 451 374 553 244 553 C114 553 22 450 22 284 L22 255 C22 89 113 -13 243 -13 L243 -13 Z M244 127 C203 127 180 177 180 262 L180 279 C180 365 201 414 243 414 C285 414 307 364 307 279 L307 262 C307 177 286 127 244 127 L244 127 Z " />
<glyph glyph-name="Obreve" unicode="&#x14e;" horiz-adv-x="581" d="M290 737 C373 737 431 776 437 859 L346 859 C338 834 321 822 290 822 C259 822 242 834 235 859 L143 859 C149 776 207 737 290 737 L290 737 Z M290 -13 C448 -13 555 117 555 336 L555 366 C555 584 449 713 291 713 C133 713 26 584 26 365 L26 335 C26 116 132 -13 290 -13 L290 -13 Z M291 137 C233 137 193 197 193 340 L193 361 C193 504 233 563 290 563 C347 563 387 504 387 360 L387 339 C387 196 348 137 291 137 L291 137 Z " />
<glyph glyph-name="obreve" unicode="&#x14f;" horiz-adv-x="487" d="M243 -13 C373 -13 465 90 465 256 L465 285 C465 451 374 553 244 553 C114 553 22 450 22 284 L22 255 C22 89 113 -13 243 -13 L243 -13 Z M244 127 C203 127 180 177 180 262 L180 279 C180 365 201 414 243 414 C285 414 307 364 307 279 L307 262 C307 177 286 127 244 127 L244 127 Z M244 578 C326 578 385 623 393 712 L303 712 C296 683 278 665 244 665 C210 665 192 683 186 712 L95 712 C103 623 163 578 244 578 L244 578 Z " />
<glyph glyph-name="Ohungarumlaut" unicode="&#x150;" horiz-adv-x="581" d="M290 -13 C448 -13 555 117 555 336 L555 366 C555 584 449 713 291 713 C133 713 26 584 26 365 L26 335 C26 116 132 -13 290 -13 L290 -13 Z M291 137 C233 137 193 197 193 340 L193 361 C193 504 233 563 290 563 C347 563 387 504 387 360 L387 339 C387 196 348 137 291 137 L291 137 Z M307 740 L412 740 L525 829 L390 873 L364 831 L235 873 L153 740 L257 740 L355 817 L307 740 Z " />
<glyph glyph-name="ohungarumlaut" unicode="&#x151;" horiz-adv-x="487" d="M243 -13 C373 -13 465 90 465 256 L465 285 C465 451 374 553 244 553 C114 553 22 450 22 284 L22 255 C22 89 113 -13 243 -13 L243 -13 Z M115 581 L207 581 L307 674 L257 581 L350 581 L467 689 L341 735 L317 691 L199 735 L115 581 Z M244 127 C203 127 180 177 180 262 L180 279 C180 365 201 414 243 414 C285 414 307 364 307 279 L307 262 C307 177 286 127 244 127 L244 127 Z " />
<glyph glyph-name="OE" unicode="&#x152;" horiz-adv-x="760" d="M332 0 L735 0 L735 150 L511 150 L511 280 L708 280 L708 425 L511 425 L511 550 L731 550 L731 700 L333 700 C136 700 26 572 26 361 L26 338 C26 126 135 0 332 0 L332 0 Z M329 149 C248 149 193 201 193 341 L193 359 C193 498 248 552 329 552 L347 552 L347 149 L329 149 Z " />
<glyph glyph-name="oe" unicode="&#x153;" horiz-adv-x="743" d="M237 -13 C299 -13 350 14 385 62 C423 13 476 -12 540 -12 C608 -12 663 14 714 56 L652 170 C627 144 593 124 554 124 C507 124 474 152 464 211 L723 211 C724 226 724 271 724 273 C724 445 651 553 523 553 C467 553 419 528 385 481 C350 528 300 553 239 553 C116 553 22 450 22 284 L22 255 C22 89 116 -13 237 -13 L237 -13 Z M462 310 C465 390 487 422 519 422 C552 422 572 386 575 310 L462 310 Z M243 127 C203 127 180 177 180 262 L180 279 C180 365 201 414 243 414 C284 414 306 364 306 279 L306 262 C306 177 285 127 243 127 L243 127 Z " />
<glyph glyph-name="Racute" unicode="&#x154;" horiz-adv-x="524" d="M40 0 L204 0 L204 223 L242 223 L336 0 L518 0 L399 266 C459 302 502 361 502 462 L502 469 C502 542 481 597 443 635 C400 678 334 700 252 700 L40 700 L40 0 Z M204 357 L204 555 L246 555 C302 555 336 524 336 459 L336 455 C336 393 304 357 247 357 L204 357 Z M193 735 L309 735 L429 822 L278 868 L193 735 Z " />
<glyph glyph-name="racute" unicode="&#x155;" horiz-adv-x="319" d="M107 577 L210 577 L333 683 L193 731 L107 577 Z M34 0 L194 0 L194 231 C194 322 231 365 301 365 L308 365 L308 548 C249 552 215 515 194 455 L194 541 L34 541 L34 0 Z " />
<glyph glyph-name="Rcommaaccent" unicode="&#x156;" horiz-adv-x="524" d="M40 0 L204 0 L204 223 L242 223 L336 0 L518 0 L399 266 C459 302 502 361 502 462 L502 469 C502 542 481 597 443 635 C400 678 334 700 252 700 L40 700 L40 0 Z M204 357 L204 555 L246 555 C302 555 336 524 336 459 L336 455 C336 393 304 357 247 357 L204 357 Z M192 -248 C273 -242 322 -211 322 -130 L322 -39 L191 -39 L191 -148 L251 -148 C251 -179 234 -195 185 -202 L192 -248 Z " />
<glyph glyph-name="rcommaaccent" unicode="&#x157;" horiz-adv-x="319" d="M56 -248 C137 -242 186 -211 186 -130 L186 -39 L55 -39 L55 -148 L115 -148 C115 -179 98 -195 49 -202 L56 -248 Z M34 0 L194 0 L194 231 C194 322 231 365 301 365 L308 365 L308 548 C249 552 215 515 194 455 L194 541 L34 541 L34 0 Z " />
<glyph glyph-name="Rcaron" unicode="&#x158;" horiz-adv-x="524" d="M40 0 L204 0 L204 223 L242 223 L336 0 L518 0 L399 266 C459 302 502 361 502 462 L502 469 C502 542 481 597 443 635 C400 678 334 700 252 700 L40 700 L40 0 Z M412 858 L309 858 L256 814 L202 858 L98 858 L189 735 L321 735 L412 858 Z M204 357 L204 555 L246 555 C302 555 336 524 336 459 L336 455 C336 393 304 357 247 357 L204 357 Z " />
<glyph glyph-name="rcaron" unicode="&#x159;" horiz-adv-x="319" d="M321 717 L225 717 L166 663 L108 717 L10 717 L105 577 L226 577 L321 717 Z M34 0 L194 0 L194 231 C194 322 231 365 301 365 L308 365 L308 548 C249 552 215 515 194 455 L194 541 L34 541 L34 0 Z " />
<glyph glyph-name="Sacute" unicode="&#x15a;" horiz-adv-x="469" d="M229 -9 C357 -9 453 77 453 203 L453 207 C453 310 388 367 287 421 C207 465 187 484 187 512 L187 513 C187 540 210 560 244 560 C295 560 340 528 370 502 L454 631 C386 690 313 709 246 709 C112 709 21 625 21 500 L21 497 C21 389 90 334 203 276 C268 241 287 222 287 195 C287 165 266 140 224 140 C170 140 117 177 74 214 L-7 81 C68 16 148 -9 229 -9 L229 -9 Z M177 740 L293 740 L413 827 L262 873 L177 740 Z " />
<glyph glyph-name="sacute" unicode="&#x15b;" horiz-adv-x="385" d="M139 581 L242 581 L365 687 L225 735 L139 581 Z M188 -11 C299 -11 373 56 373 163 L373 165 C373 241 329 285 240 332 C191 358 169 370 169 390 L169 392 C169 406 181 421 207 421 C242 421 281 401 310 380 L372 499 C315 537 255 551 202 551 C93 551 19 484 19 382 L19 380 C19 293 71 253 154 211 C204 185 223 172 223 152 L223 151 C223 135 211 120 184 120 C144 120 102 144 60 176 L-2 55 C63 5 133 -11 188 -11 L188 -11 Z " />
<glyph glyph-name="Scedilla" unicode="&#x15e;" horiz-adv-x="469" d="M241 -144 L284 -3 C383 17 453 96 453 203 L453 207 C453 310 388 367 287 421 C207 465 187 484 187 512 L187 513 C187 540 210 560 244 560 C295 560 340 528 370 502 L454 631 C386 690 313 709 246 709 C112 709 21 625 21 500 L21 497 C21 389 90 334 203 276 C268 241 287 222 287 195 C287 165 266 140 224 140 C170 140 117 177 74 214 L-7 81 C50 31 110 5 172 -4 L103 -100 L241 -144 Z " />
<glyph glyph-name="scedilla" unicode="&#x15f;" horiz-adv-x="385" d="M197 -144 L240 -5 C321 12 373 74 373 163 L373 165 C373 241 329 285 240 332 C191 358 169 370 169 390 L169 392 C169 406 181 421 207 421 C242 421 281 401 310 380 L372 499 C315 537 255 551 202 551 C93 551 19 484 19 382 L19 380 C19 293 71 253 154 211 C204 185 223 172 223 152 L223 151 C223 135 211 120 184 120 C144 120 102 144 60 176 L-2 55 C41 22 86 3 128 -5 L59 -100 L197 -144 Z " />
<glyph glyph-name="Scaron" unicode="&#x160;" horiz-adv-x="469" d="M229 -9 C357 -9 453 77 453 203 L453 207 C453 310 388 367 287 421 C207 465 187 484 187 512 L187 513 C187 540 210 560 244 560 C295 560 340 528 370 502 L454 631 C386 690 313 709 246 709 C112 709 21 625 21 500 L21 497 C21 389 90 334 203 276 C268 241 287 222 287 195 C287 165 266 140 224 140 C170 140 117 177 74 214 L-7 81 C68 16 148 -9 229 -9 L229 -9 Z M398 863 L295 863 L242 819 L188 863 L84 863 L175 740 L307 740 L398 863 Z " />
<glyph glyph-name="scaron" unicode="&#x161;" horiz-adv-x="385" d="M354 721 L258 721 L199 667 L141 721 L43 721 L138 581 L259 581 L354 721 Z M188 -11 C299 -11 373 56 373 163 L373 165 C373 241 329 285 240 332 C191 358 169 370 169 390 L169 392 C169 406 181 421 207 421 C242 421 281 401 310 380 L372 499 C315 537 255 551 202 551 C93 551 19 484 19 382 L19 380 C19 293 71 253 154 211 C204 185 223 172 223 152 L223 151 C223 135 211 120 184 120 C144 120 102 144 60 176 L-2 55 C63 5 133 -11 188 -11 L188 -11 Z " />
<glyph glyph-name="Tcommaaccent" unicode="&#x162;" horiz-adv-x="460" d="M168 -248 C249 -242 298 -211 298 -130 L298 -39 L167 -39 L167 -148 L227 -148 C227 -179 210 -195 161 -202 L168 -248 Z M148 0 L313 0 L313 548 L445 548 L445 700 L16 700 L16 548 L148 548 L148 0 Z " />
<glyph glyph-name="tcommaaccent" unicode="&#x163;" horiz-adv-x="316" d="M106 -252 C187 -246 236 -215 236 -134 L236 -43 L105 -43 L105 -152 L165 -152 C165 -183 148 -199 99 -206 L106 -252 Z M195 -10 C234 -10 270 1 297 15 L297 142 C281 135 266 131 251 131 C227 131 215 142 215 168 L215 412 L298 412 L298 541 L215 541 L215 675 L56 675 L56 541 L14 541 L14 412 L56 412 L56 125 C56 24 114 -10 195 -10 L195 -10 Z " />
<glyph glyph-name="Tcaron" unicode="&#x164;" horiz-adv-x="460" d="M388 858 L285 858 L232 814 L178 858 L74 858 L165 735 L297 735 L388 858 Z M148 0 L313 0 L313 548 L445 548 L445 700 L16 700 L16 548 L148 548 L148 0 Z " />
<glyph glyph-name="tcaron" unicode="&#x165;" horiz-adv-x="316" d="M246 570 L308 570 L356 739 L356 740 L255 740 L246 570 Z M195 -10 C234 -10 270 1 297 15 L297 142 C281 135 266 131 251 131 C227 131 215 142 215 168 L215 412 L298 412 L298 541 L215 541 L215 675 L56 675 L56 541 L14 541 L14 412 L56 412 L56 125 C56 24 114 -10 195 -10 L195 -10 Z " />
<glyph glyph-name="Umacron" unicode="&#x16a;" horiz-adv-x="547" d="M119 739 L426 739 L426 840 L119 840 L119 739 Z M272 -12 C413 -12 511 67 511 245 L511 700 L347 700 L347 235 C347 169 318 139 274 139 C230 139 201 170 201 236 L201 700 L35 700 L35 243 C35 67 132 -12 272 -12 L272 -12 Z " />
<glyph glyph-name="umacron" unicode="&#x16b;" horiz-adv-x="479" d="M163 -11 C223 -11 259 26 284 66 L284 0 L445 0 L445 541 L284 541 L284 192 C284 154 264 132 237 132 C209 132 191 154 191 192 L191 541 L31 541 L31 146 C31 51 77 -11 163 -11 L163 -11 Z M93 582 L383 582 L383 680 L93 680 L93 582 Z " />
<glyph glyph-name="Ubreve" unicode="&#x16c;" horiz-adv-x="547" d="M273 727 C356 727 414 766 420 849 L329 849 C321 824 304 812 273 812 C242 812 225 824 218 849 L126 849 C132 766 190 727 273 727 L273 727 Z M272 -12 C413 -12 511 67 511 245 L511 700 L347 700 L347 235 C347 169 318 139 274 139 C230 139 201 170 201 236 L201 700 L35 700 L35 243 C35 67 132 -12 272 -12 L272 -12 Z " />
<glyph glyph-name="ubreve" unicode="&#x16d;" horiz-adv-x="479" d="M163 -11 C223 -11 259 26 284 66 L284 0 L445 0 L445 541 L284 541 L284 192 C284 154 264 132 237 132 C209 132 191 154 191 192 L191 541 L31 541 L31 146 C31 51 77 -11 163 -11 L163 -11 Z M238 573 C320 573 379 618 387 707 L297 707 C290 678 272 660 238 660 C204 660 186 678 180 707 L89 707 C97 618 157 573 238 573 L238 573 Z " />
<glyph glyph-name="Uring" unicode="&#x16e;" horiz-adv-x="547" d="M272 -12 C413 -12 511 67 511 245 L511 700 L347 700 L347 235 C347 169 318 139 274 139 C230 139 201 170 201 236 L201 700 L35 700 L35 243 C35 67 132 -12 272 -12 L272 -12 Z M272 720 C335 720 383 764 383 823 C383 882 335 925 272 925 C209 925 161 882 161 823 C161 764 209 720 272 720 L272 720 Z M272 772 C241 772 219 794 219 823 C219 851 241 874 272 874 C304 874 326 851 326 823 C326 794 304 772 272 772 L272 772 Z " />
<glyph glyph-name="uring" unicode="&#x16f;" horiz-adv-x="479" d="M238 568 C297 568 344 614 344 673 C344 733 297 778 238 778 C179 778 132 732 132 674 C132 614 179 568 238 568 L238 568 Z M238 620 C210 620 188 642 188 673 C188 704 210 727 238 727 C267 727 288 704 288 673 C288 642 267 620 238 620 L238 620 Z M163 -11 C223 -11 259 26 284 66 L284 0 L445 0 L445 541 L284 541 L284 192 C284 154 264 132 237 132 C209 132 191 154 191 192 L191 541 L31 541 L31 146 C31 51 77 -11 163 -11 L163 -11 Z " />
<glyph glyph-name="Uhungarumlaut" unicode="&#x170;" horiz-adv-x="547" d="M272 -12 C413 -12 511 67 511 245 L511 700 L347 700 L347 235 C347 169 318 139 274 139 C230 139 201 170 201 236 L201 700 L35 700 L35 243 C35 67 132 -12 272 -12 L272 -12 Z M287 735 L392 735 L505 824 L370 868 L344 826 L215 868 L133 735 L237 735 L335 812 L287 735 Z " />
<glyph glyph-name="uhungarumlaut" unicode="&#x171;" horiz-adv-x="479" d="M163 -11 C223 -11 259 26 284 66 L284 0 L445 0 L445 541 L284 541 L284 192 C284 154 264 132 237 132 C209 132 191 154 191 192 L191 541 L31 541 L31 146 C31 51 77 -11 163 -11 L163 -11 Z M106 577 L198 577 L298 670 L248 577 L341 577 L458 685 L332 731 L308 687 L190 731 L106 577 Z " />
<glyph glyph-name="Uogonek" unicode="&#x172;" horiz-adv-x="547" d="M360 -71 C321 -70 306 -63 306 -43 C306 -33 310 -22 319 -9 C434 7 511 87 511 245 L511 700 L347 700 L347 235 C347 169 318 139 274 139 C230 139 201 170 201 236 L201 700 L35 700 L35 243 C35 93 105 13 213 -6 C191 -31 180 -55 180 -80 C180 -128 227 -154 304 -154 C323 -154 341 -153 360 -150 L360 -71 Z " />
<glyph glyph-name="uogonek" unicode="&#x173;" horiz-adv-x="479" d="M163 -11 C223 -11 259 26 284 66 L284 0 L311 0 C285 -27 272 -53 272 -80 C272 -128 319 -154 396 -154 C415 -154 433 -153 452 -150 L452 -71 C413 -70 398 -63 398 -43 C398 -31 403 -18 417 0 L445 0 L445 541 L284 541 L284 192 C284 154 264 132 237 132 C209 132 191 154 191 192 L191 541 L31 541 L31 146 C31 51 77 -11 163 -11 L163 -11 Z " />
<glyph glyph-name="Wcircumflex" unicode="&#x174;" horiz-adv-x="797" d="M156 -3 L317 -3 L398 367 L480 -3 L641 -3 L792 700 L622 700 L552 295 L471 701 L329 701 L248 295 L178 700 L5 700 L156 -3 Z M241 735 L344 735 L397 779 L451 735 L555 735 L464 858 L332 858 L241 735 Z " />
<glyph glyph-name="wcircumflex" unicode="&#x175;" horiz-adv-x="653" d="M171 577 L267 577 L325 631 L384 577 L482 577 L387 717 L265 717 L171 577 Z M125 -3 L268 -3 L326 262 L383 -3 L527 -3 L647 541 L490 541 L443 264 L391 542 L263 542 L212 265 L165 541 L7 541 L125 -3 Z " />
<glyph glyph-name="Ycircumflex" unicode="&#x176;" horiz-adv-x="517" d="M176 0 L341 0 L341 262 L519 700 L347 700 L260 450 L173 700 L-3 700 L176 261 L176 0 Z M101 735 L204 735 L257 779 L311 735 L415 735 L324 858 L192 858 L101 735 Z " />
<glyph glyph-name="ycircumflex" unicode="&#x177;" horiz-adv-x="463" d="M234 231 L168 541 L5 541 L154 7 C149 -10 136 -14 122 -14 C109 -14 89 -9 70 2 L41 -117 C76 -135 115 -145 150 -145 C240 -145 286 -97 317 19 L459 541 L298 541 L234 231 Z M79 577 L175 577 L233 631 L292 577 L390 577 L295 717 L173 717 L79 577 Z " />
<glyph glyph-name="Ydieresis" unicode="&#x178;" horiz-adv-x="517" d="M176 0 L341 0 L341 262 L519 700 L347 700 L260 450 L173 700 L-3 700 L176 261 L176 0 Z M278 736 L411 736 L411 855 L278 855 L278 736 Z M104 736 L236 736 L236 855 L104 855 L104 736 Z " />
<glyph glyph-name="Zacute" unicode="&#x179;" horiz-adv-x="475" d="M26 0 L450 0 L450 149 L226 149 L450 572 L450 700 L33 700 L33 551 L250 551 L26 128 L26 0 Z M180 735 L296 735 L416 822 L265 868 L180 735 Z " />
<glyph glyph-name="zacute" unicode="&#x17a;" horiz-adv-x="400" d="M145 577 L248 577 L371 683 L231 731 L145 577 Z M19 0 L383 0 L383 132 L207 132 L383 430 L383 541 L24 541 L24 410 L195 410 L19 112 L19 0 Z " />
<glyph glyph-name="Zdotaccent" unicode="&#x17b;" horiz-adv-x="475" d="M174 736 L312 736 L312 855 L174 855 L174 736 Z M26 0 L450 0 L450 149 L226 149 L450 572 L450 700 L33 700 L33 551 L250 551 L26 128 L26 0 Z " />
<glyph glyph-name="zdotaccent" unicode="&#x17c;" horiz-adv-x="400" d="M19 0 L383 0 L383 132 L207 132 L383 430 L383 541 L24 541 L24 410 L195 410 L19 112 L19 0 Z M137 578 L272 578 L272 703 L137 703 L137 578 Z " />
<glyph glyph-name="Zcaron" unicode="&#x17d;" horiz-adv-x="475" d="M401 858 L298 858 L245 814 L191 858 L87 858 L178 735 L310 735 L401 858 Z M26 0 L450 0 L450 149 L226 149 L450 572 L450 700 L33 700 L33 551 L250 551 L26 128 L26 0 Z " />
<glyph glyph-name="zcaron" unicode="&#x17e;" horiz-adv-x="400" d="M360 717 L264 717 L205 663 L147 717 L49 717 L144 577 L265 577 L360 717 Z M19 0 L383 0 L383 132 L207 132 L383 430 L383 541 L24 541 L24 410 L195 410 L19 112 L19 0 Z " />
<glyph glyph-name="Aringacute" unicode="&#x1fa;" horiz-adv-x="556" d="M1 0 L165 0 L195 127 L357 127 L387 0 L556 0 L373 684 C384 700 390 719 390 740 C390 799 341 842 278 842 C215 842 167 799 167 740 C167 719 173 700 183 685 L1 0 Z M217 860 L332 860 L452 933 L299 978 L217 860 Z M227 262 L276 476 L325 262 L227 262 Z M278 689 C247 689 225 710 225 739 C225 768 247 790 278 790 C310 790 332 768 332 739 C332 710 310 689 278 689 L278 689 Z " />
<glyph glyph-name="aringacute" unicode="&#x1fb;" horiz-adv-x="450" d="M167 812 L274 812 L393 894 L253 936 L167 812 Z M147 -10 C198 -10 234 13 261 53 L261 0 L420 0 L420 339 C420 408 403 461 368 496 C333 530 280 549 210 549 C146 549 83 530 38 508 L80 380 C97 391 136 411 183 411 C232 411 262 385 262 331 L262 315 C236 327 205 335 169 335 C79 335 15 283 15 164 L15 152 C15 48 73 -10 147 -10 L147 -10 Z M208 102 C182 103 165 124 165 164 L165 170 C165 212 183 237 216 237 C233 237 251 232 262 227 L262 168 C262 126 237 101 208 102 L208 102 Z M227 578 C286 578 333 624 333 683 C333 743 286 788 227 788 C168 788 121 742 121 684 C121 624 168 578 227 578 L227 578 Z M227 630 C199 630 177 652 177 683 C177 714 199 737 227 737 C256 737 277 714 277 683 C277 652 256 630 227 630 L227 630 Z " />
<glyph glyph-name="AEacute" unicode="&#x1fc;" horiz-adv-x="750" d="M363 735 L479 735 L599 822 L448 868 L363 735 Z M-6 0 L157 0 L197 127 L338 127 L338 0 L725 0 L725 150 L501 150 L501 280 L698 280 L698 425 L501 425 L501 550 L721 550 L721 700 L231 700 L-6 0 Z M238 262 L326 549 L338 549 L338 262 L238 262 Z " />
<glyph glyph-name="aeacute" unicode="&#x1fd;" horiz-adv-x="693" d="M284 577 L387 577 L510 683 L370 731 L284 577 Z M166 -10 C227 -10 281 25 318 76 C356 19 417 -12 487 -12 C557 -12 613 14 663 56 L602 170 C576 144 543 124 504 124 C456 124 423 152 413 211 L673 211 C674 226 674 271 674 273 C674 445 600 553 473 553 C423 553 380 532 348 495 C317 529 272 549 209 549 C143 549 91 534 38 510 L79 377 C97 389 138 411 184 411 C232 411 262 384 262 331 L262 315 C236 327 205 335 169 335 C79 335 15 283 15 166 L15 158 C15 49 80 -10 166 -10 L166 -10 Z M412 310 C415 390 437 422 469 422 C502 422 522 386 525 310 L412 310 Z M213 103 C184 103 165 125 165 164 L165 171 C165 212 184 237 217 237 C236 237 252 232 267 225 C269 200 274 176 280 154 C261 120 237 103 213 103 L213 103 Z " />
<glyph glyph-name="Oslashacute" unicode="&#x1fe;" horiz-adv-x="581" d="M457 705 L434 667 C394 697 345 713 291 713 C133 713 26 583 26 365 L26 335 C26 236 48 155 88 96 L27 -5 L124 -5 L147 33 C187 3 235 -13 290 -13 C447 -13 555 118 555 336 L555 366 C555 464 532 545 493 604 L554 705 L457 705 Z M291 134 C267 134 245 144 229 165 L386 441 C389 418 391 391 391 361 L391 338 C391 194 351 134 291 134 L291 134 Z M190 339 L190 362 C190 507 231 566 290 566 C314 566 335 556 352 535 L195 259 C191 282 190 308 190 339 L190 339 Z M228 740 L344 740 L464 827 L313 873 L228 740 Z " />
<glyph glyph-name="oslashacute" unicode="&#x1ff;" horiz-adv-x="487" d="M385 545 L365 515 C331 539 290 553 244 553 C114 553 22 450 22 284 L22 255 C22 184 39 125 69 80 L11 -5 L102 -5 L122 25 C156 0 197 -13 243 -13 C373 -13 465 90 465 256 L465 285 C465 356 448 415 418 460 L476 545 L385 545 Z M184 581 L287 581 L410 687 L270 735 L184 581 Z M174 260 L174 280 C174 368 199 419 243 419 C260 419 274 412 285 398 L175 226 C174 237 174 248 174 260 L174 260 Z M244 122 C227 122 213 129 202 142 L312 313 C313 303 313 292 313 280 L313 260 C313 173 288 122 244 122 L244 122 Z " />
<glyph glyph-name="Scommaaccent" unicode="&#x218;" horiz-adv-x="469" d="M229 -9 C357 -9 453 77 453 203 L453 207 C453 310 388 367 287 421 C207 465 187 484 187 512 L187 513 C187 540 210 560 244 560 C295 560 340 528 370 502 L454 631 C386 690 313 709 246 709 C112 709 21 625 21 500 L21 497 C21 389 90 334 203 276 C268 241 287 222 287 195 C287 165 266 140 224 140 C170 140 117 177 74 214 L-7 81 C68 16 148 -9 229 -9 L229 -9 Z M168 -252 C249 -246 298 -215 298 -134 L298 -43 L167 -43 L167 -152 L227 -152 C227 -183 210 -199 161 -206 L168 -252 Z " />
<glyph glyph-name="scommaaccent" unicode="&#x219;" horiz-adv-x="385" d="M127 -252 C208 -246 257 -215 257 -134 L257 -43 L126 -43 L126 -152 L186 -152 C186 -183 169 -199 120 -206 L127 -252 Z M188 -11 C299 -11 373 56 373 163 L373 165 C373 241 329 285 240 332 C191 358 169 370 169 390 L169 392 C169 406 181 421 207 421 C242 421 281 401 310 380 L372 499 C315 537 255 551 202 551 C93 551 19 484 19 382 L19 380 C19 293 71 253 154 211 C204 185 223 172 223 152 L223 151 C223 135 211 120 184 120 C144 120 102 144 60 176 L-2 55 C63 5 133 -11 188 -11 L188 -11 Z " />
<glyph glyph-name="schwa" unicode="&#x259;" horiz-adv-x="456" d="M204 553 C134 553 79 526 28 485 L90 371 C116 395 149 417 188 417 C234 417 268 389 278 330 L18 330 L18 268 C18 96 91 -12 222 -12 C345 -12 434 92 434 261 L434 282 C434 455 339 553 204 553 L204 553 Z M280 231 C276 151 254 119 223 119 C189 119 169 155 167 231 L280 231 Z " />
<glyph glyph-name="circumflex" unicode="&#x2c6;" horiz-adv-x="500" d="M95 577 L191 577 L249 631 L308 577 L406 577 L311 717 L189 717 L95 577 Z " />
<glyph glyph-name="caron" unicode="&#x2c7;" horiz-adv-x="500" d="M406 717 L310 717 L251 663 L193 717 L95 717 L190 577 L311 577 L406 717 Z " />
<glyph glyph-name="breve" unicode="&#x2d8;" horiz-adv-x="500" d="M250 574 C332 574 391 619 399 708 L309 708 C302 679 284 661 250 661 C216 661 198 679 192 708 L101 708 C109 619 169 574 250 574 L250 574 Z " />
<glyph glyph-name="dotaccent" unicode="&#x2d9;" horiz-adv-x="500" d="M183 578 L318 578 L318 703 L183 703 L183 578 Z " />
<glyph glyph-name="ring" unicode="&#x2da;" horiz-adv-x="500" d="M250 574 C309 574 356 620 356 679 C356 739 309 784 250 784 C191 784 144 738 144 680 C144 620 191 574 250 574 L250 574 Z M250 626 C222 626 200 648 200 679 C200 710 222 733 250 733 C279 733 300 710 300 679 C300 648 279 626 250 626 L250 626 Z " />
<glyph glyph-name="ogonek" unicode="&#x2db;" horiz-adv-x="500" d="M345 -71 C306 -70 291 -63 291 -43 C291 -28 299 -13 321 14 L224 19 C185 -16 165 -47 165 -80 C165 -128 212 -154 289 -154 C308 -154 326 -153 345 -150 L345 -71 Z " />
<glyph glyph-name="tilde" unicode="&#x2dc;" horiz-adv-x="500" d="M325 576 C376 576 403 616 415 702 L338 719 C330 691 323 679 302 679 C290 679 275 686 249 695 C222 705 199 714 175 714 C125 714 97 674 85 588 L162 571 C170 599 177 610 198 610 C210 610 225 604 252 595 C278 585 302 576 325 576 L325 576 Z " />
<glyph glyph-name="hungarumlaut" unicode="&#x2dd;" horiz-adv-x="500" d="M76 577 L168 577 L268 670 L218 577 L311 577 L428 685 L302 731 L278 687 L160 731 L76 577 Z " />
<glyph glyph-name="commaaccent" unicode="&#x326;" horiz-adv-x="500" d="M187 -248 C268 -242 317 -211 317 -130 L317 -39 L186 -39 L186 -148 L246 -148 C246 -179 229 -195 180 -202 L187 -248 Z " />
<glyph glyph-name="Wgrave" unicode="&#x1e80;" horiz-adv-x="797" d="M459 735 L374 868 L223 822 L343 735 L459 735 Z M156 -3 L317 -3 L398 367 L480 -3 L641 -3 L792 700 L622 700 L552 295 L471 701 L329 701 L248 295 L178 700 L5 700 L156 -3 Z " />
<glyph glyph-name="wgrave" unicode="&#x1e81;" horiz-adv-x="653" d="M125 -3 L268 -3 L326 262 L383 -3 L527 -3 L647 541 L490 541 L443 264 L391 542 L263 542 L212 265 L165 541 L7 541 L125 -3 Z M282 577 L385 577 L299 731 L159 683 L282 577 Z " />
<glyph glyph-name="Wacute" unicode="&#x1e82;" horiz-adv-x="797" d="M336 735 L452 735 L572 822 L421 868 L336 735 Z M156 -3 L317 -3 L398 367 L480 -3 L641 -3 L792 700 L622 700 L552 295 L471 701 L329 701 L248 295 L178 700 L5 700 L156 -3 Z " />
<glyph glyph-name="wacute" unicode="&#x1e83;" horiz-adv-x="653" d="M267 577 L370 577 L493 683 L353 731 L267 577 Z M125 -3 L268 -3 L326 262 L383 -3 L527 -3 L647 541 L490 541 L443 264 L391 542 L263 542 L212 265 L165 541 L7 541 L125 -3 Z " />
<glyph glyph-name="Wdieresis" unicode="&#x1e84;" horiz-adv-x="797" d="M418 736 L551 736 L551 855 L418 855 L418 736 Z M244 736 L376 736 L376 855 L244 855 L244 736 Z M156 -3 L317 -3 L398 367 L480 -3 L641 -3 L792 700 L622 700 L552 295 L471 701 L329 701 L248 295 L178 700 L5 700 L156 -3 Z " />
<glyph glyph-name="wdieresis" unicode="&#x1e85;" horiz-adv-x="653" d="M344 578 L473 578 L473 703 L344 703 L344 578 Z M178 578 L307 578 L307 703 L178 703 L178 578 Z M125 -3 L268 -3 L326 262 L383 -3 L527 -3 L647 541 L490 541 L443 264 L391 542 L263 542 L212 265 L165 541 L7 541 L125 -3 Z " />
<glyph glyph-name="Ygrave" unicode="&#x1ef2;" horiz-adv-x="517" d="M176 0 L341 0 L341 262 L519 700 L347 700 L260 450 L173 700 L-3 700 L176 261 L176 0 Z M321 735 L236 868 L85 822 L205 735 L321 735 Z " />
<glyph glyph-name="ygrave" unicode="&#x1ef3;" horiz-adv-x="463" d="M234 231 L168 541 L5 541 L154 7 C149 -10 136 -14 122 -14 C109 -14 89 -9 70 2 L41 -117 C76 -135 115 -145 150 -145 C240 -145 286 -97 317 19 L459 541 L298 541 L234 231 Z M189 577 L292 577 L206 731 L66 683 L189 577 Z " />
<glyph glyph-name="enspace" unicode="&#x2002;" horiz-adv-x="500" d="" />
<glyph glyph-name="emspace" unicode="&#x2003;" horiz-adv-x="1000" d="" />
<glyph glyph-name="threeperemspace" unicode="&#x2004;" horiz-adv-x="333" d="" />
<glyph glyph-name="fourperemspace" unicode="&#x2005;" horiz-adv-x="250" d="" />
<glyph glyph-name="thinspace" unicode="&#x2009;" horiz-adv-x="122" d="" />
<glyph glyph-name="hairspace" unicode="&#x200a;" horiz-adv-x="67" d="" />
<glyph glyph-name="endash" unicode="&#x2013;" horiz-adv-x="475" d="M32 240 L444 240 L444 385 L32 385 L32 240 Z " />
<glyph glyph-name="emdash" unicode="&#x2014;" horiz-adv-x="749" d="M32 240 L718 240 L718 385 L32 385 L32 240 Z " />
<glyph glyph-name="quoteleft" unicode="&#x2018;" horiz-adv-x="241" d="M32 378 L204 378 L204 551 L128 551 C127 593 153 629 221 642 L208 705 C100 694 32 640 32 519 L32 378 Z " />
<glyph glyph-name="quoteright" unicode="&#x2019;" horiz-adv-x="241" d="M33 374 C141 385 209 439 209 559 L209 700 L37 700 L37 528 L113 528 C114 486 88 449 20 436 L33 374 Z " />
<glyph glyph-name="quotesinglbase" unicode="&#x201a;" horiz-adv-x="249" d="M33 -154 C144 -143 213 -89 213 32 L213 173 L40 173 L40 0 L117 0 C118 -42 91 -79 19 -92 L33 -154 Z " />
<glyph glyph-name="quotedblleft" unicode="&#x201c;" horiz-adv-x="456" d="M252 378 L420 378 L420 551 L345 551 C343 593 369 629 437 642 L423 705 C318 694 252 639 252 519 L252 378 Z M32 378 L200 378 L200 551 L125 551 C124 593 149 629 217 642 L204 705 C98 694 32 639 32 519 L32 378 Z " />
<glyph glyph-name="quotedblright" unicode="&#x201d;" horiz-adv-x="456" d="M253 374 C359 385 425 440 425 559 L425 700 L256 700 L256 528 L332 528 C333 486 307 449 239 436 L253 374 Z M33 374 C140 385 205 440 205 559 L205 700 L37 700 L37 528 L112 528 C113 486 87 449 20 436 L33 374 Z " />
<glyph glyph-name="quotedblbase" unicode="&#x201e;" horiz-adv-x="467" d="M255 -154 C365 -143 431 -89 431 32 L431 173 L263 173 L263 0 L338 0 C339 -42 313 -79 242 -92 L255 -154 Z M33 -154 C143 -143 209 -89 209 32 L209 173 L40 173 L40 0 L116 0 C117 -42 90 -79 19 -92 L33 -154 Z " />
<glyph glyph-name="dagger" unicode="&#x2020;" horiz-adv-x="311" d="M107 234 L204 234 L192 498 L285 487 L285 587 L193 576 L209 700 L103 700 L119 576 L27 587 L27 487 L120 498 L107 234 Z " />
<glyph glyph-name="daggerdbl" unicode="&#x2021;" horiz-adv-x="327" d="M111 0 L217 0 L201 124 L292 113 L292 213 L199 202 L214 350 L199 498 L292 487 L292 587 L201 576 L217 700 L111 700 L127 576 L35 587 L35 487 L129 498 L113 350 L129 202 L35 213 L35 113 L127 124 L111 0 Z " />
<glyph glyph-name="bullet" unicode="&#x2022;" horiz-adv-x="410" d="M205 183 C283 183 342 245 342 346 L342 360 C342 462 283 524 205 524 C128 524 68 462 68 360 L68 346 C68 245 128 183 205 183 L205 183 Z " />
<glyph glyph-name="ellipsis" unicode="&#x2026;" horiz-adv-x="736" d="M529 0 L700 0 L700 172 L529 172 L529 0 Z M283 0 L454 0 L454 172 L283 172 L283 0 Z M36 0 L207 0 L207 172 L36 172 L36 0 Z " />
<glyph glyph-name="perthousand" unicode="&#x2030;" horiz-adv-x="990" d="M163 417 C138 417 126 447 126 509 L126 521 C126 582 138 613 163 613 C188 613 201 582 201 520 L201 509 C201 447 189 417 163 417 L163 417 Z M163 322 C245 322 301 393 301 509 L301 521 C301 637 245 708 163 708 C82 708 25 637 25 521 L25 508 C25 392 81 322 163 322 L163 322 Z M593 700 L494 700 L306 364 L94 0 L193 0 L380 335 L593 700 Z M522 88 C497 88 484 118 484 180 L484 191 C484 253 497 284 522 284 C547 284 559 253 559 191 L559 180 C559 118 547 88 522 88 L522 88 Z M522 -8 C604 -8 660 63 660 179 L660 192 C660 308 604 378 522 378 C440 378 384 308 384 192 L384 179 C384 63 440 -8 522 -8 L522 -8 Z M828 88 C803 88 790 118 790 180 L790 191 C790 253 802 284 827 284 C852 284 865 253 865 191 L865 180 C865 118 853 88 828 88 L828 88 Z M827 -8 C909 -8 966 63 966 179 L966 192 C966 308 909 378 828 378 C746 378 689 308 689 192 L689 179 C689 63 746 -8 827 -8 L827 -8 Z " />
<glyph glyph-name="guilsinglleft" unicode="&#x2039;" horiz-adv-x="288" d="M162 40 L268 91 L168 271 L267 450 L162 500 L21 285 L21 255 L162 40 Z " />
<glyph glyph-name="guilsinglright" unicode="&#x203a;" horiz-adv-x="288" d="M126 40 L267 255 L267 285 L126 500 L20 449 L120 269 L21 90 L126 40 Z " />
<glyph glyph-name="Euro" unicode="&#x20ac;" horiz-adv-x="495" d="M487 648 C437 692 389 712 328 712 C211 712 112 634 84 483 L21 483 L21 380 L74 380 L74 370 L74 329 L74 325 L21 325 L21 221 L82 221 C109 68 202 -12 321 -12 C384 -12 436 11 487 58 L415 179 C398 161 373 140 336 140 C300 140 262 160 246 223 L372 223 L372 325 L235 325 L235 332 L235 369 L235 379 L372 379 L372 481 L248 481 C265 538 299 560 336 560 C373 560 393 541 411 524 L487 648 Z " />
<glyph glyph-name="published" unicode="&#x2117;" horiz-adv-x="622" d="M311 -13 C474 -13 592 131 592 339 L592 362 C592 570 475 713 311 713 C148 713 30 570 30 362 L30 339 C30 131 148 -13 311 -13 L311 -13 Z M311 25 C165 25 69 154 69 338 L69 362 C69 546 166 676 311 676 C457 676 553 547 553 363 L553 339 C553 155 456 25 311 25 L311 25 Z M203 157 L296 157 L296 274 L316 274 C390 276 456 317 456 413 L456 417 C456 509 398 554 312 554 L203 554 L203 157 Z M296 354 L296 473 L314 473 C344 473 363 454 363 414 L363 412 C363 374 343 354 313 354 L296 354 Z " />
<glyph glyph-name="servicemark" unicode="&#x2120;" horiz-adv-x="533" d="M249 388 L324 388 L324 560 L376 452 L378 452 L430 560 L430 388 L505 388 L505 700 L427 700 L377 596 L328 700 L249 700 L249 388 Z M115 384 C174 384 218 421 218 480 C218 528 191 552 134 580 C105 596 96 602 96 615 C96 626 105 636 123 636 C145 636 166 623 186 609 L217 673 C191 692 158 704 122 704 C57 704 18 663 18 608 C18 557 49 536 102 509 C131 494 140 487 140 474 C140 460 131 452 113 452 C88 452 58 470 38 485 L8 421 C38 398 76 384 115 384 L115 384 Z " />
<glyph glyph-name="trademark" unicode="&#x2122;" horiz-adv-x="526" d="M242 388 L317 388 L317 560 L369 452 L371 452 L423 560 L423 388 L498 388 L498 700 L420 700 L370 596 L321 700 L242 700 L242 388 Z M73 388 L151 388 L151 628 L211 628 L211 700 L13 700 L13 628 L73 628 L73 388 Z " />
<glyph glyph-name="minus" unicode="&#x2212;" horiz-adv-x="488" d="M454 278 L454 426 L34 426 L34 278 L454 278 Z " />
<glyph glyph-name="f_f" unicode="&#xfb00;" horiz-adv-x="603" d="M56 0 L216 0 L216 412 L296 412 L296 539 L214 539 L214 552 C214 582 230 596 259 596 C273 596 286 594 297 592 L297 712 C276 717 252 721 215 721 C162 721 123 708 96 681 C69 654 56 614 56 560 L56 540 L14 540 L14 412 L56 412 L56 0 Z M357 0 L517 0 L517 412 L598 412 L598 539 L515 539 L515 552 C515 582 532 596 561 596 C575 596 587 594 598 592 L598 712 C577 717 554 721 516 721 C464 721 424 708 398 681 C370 654 357 614 357 560 L357 539 L316 539 L316 412 L357 412 L357 0 Z " />
<glyph glyph-name="fi" unicode="&#xfb01;" horiz-adv-x="536" d="M56 0 L216 0 L216 412 L297 412 L297 539 L214 539 L214 552 C214 582 230 596 259 596 C273 596 286 594 297 592 L297 712 C276 717 252 721 215 721 C162 721 123 708 96 681 C69 654 56 614 56 560 L56 540 L14 540 L14 412 L56 412 L56 0 Z M340 0 L500 0 L500 541 L340 541 L340 0 Z M338 585 L502 585 L502 717 L338 717 L338 585 Z " />
<glyph glyph-name="fl" unicode="&#xfb02;" horiz-adv-x="536" d="M56 0 L216 0 L216 412 L297 412 L297 539 L214 539 L214 552 C214 582 230 596 259 596 C273 596 286 594 297 592 L297 712 C276 717 252 721 215 721 C162 721 123 708 96 681 C69 654 56 614 56 560 L56 540 L14 540 L14 412 L56 412 L56 0 Z M340 0 L500 0 L500 717 L340 717 L340 0 Z " />
<glyph glyph-name="f_f_i" unicode="&#xfb03;" horiz-adv-x="837" d="M56 0 L216 0 L216 412 L296 412 L296 539 L214 539 L214 552 C214 582 230 596 259 596 C273 596 286 594 297 592 L297 712 C276 717 252 721 215 721 C162 721 123 708 96 681 C69 654 56 614 56 560 L56 540 L14 540 L14 412 L56 412 L56 0 Z M357 0 L517 0 L517 412 L598 412 L598 539 L515 539 L515 552 C515 582 532 596 561 596 C575 596 587 594 598 592 L598 712 C577 717 554 721 516 721 C464 721 424 708 398 681 C370 654 357 614 357 560 L357 539 L316 539 L316 412 L357 412 L357 0 Z M640 0 L800 0 L800 541 L640 541 L640 0 Z M638 585 L802 585 L802 717 L638 717 L638 585 Z " />
<glyph glyph-name="f_f_l" unicode="&#xfb04;" horiz-adv-x="837" d="M56 0 L216 0 L216 412 L296 412 L296 539 L214 539 L214 552 C214 582 230 596 259 596 C273 596 286 594 297 592 L297 712 C276 717 252 721 215 721 C162 721 123 708 96 681 C69 654 56 614 56 560 L56 540 L14 540 L14 412 L56 412 L56 0 Z M357 0 L517 0 L517 412 L598 412 L598 539 L515 539 L515 552 C515 582 532 596 561 596 C575 596 587 594 598 592 L598 712 C577 717 554 721 516 721 C464 721 424 708 398 681 C370 654 357 614 357 560 L357 539 L316 539 L316 412 L357 412 L357 0 Z M640 0 L800 0 L800 717 L640 717 L640 0 Z " />
</font>
</svg>
