<?xml version="1.0" encoding="UTF-8"?>
<svg xmlns="http://www.w3.org/2000/svg" xmlns:xlink="http://www.w3.org/1999/xlink" version="1.2" >
<font id="Gotham XNarrow Light">
<font-face  font-family="Gotham XNarrow" units-per-em="1000" ascent="800" descent="-200" font-style="normal" font-weight="300" font-stretch="condensed" cap-height="700" x-height="520" underline-position="-75" underline-thickness="50" />
<missing-glyph  horiz-adv-x="500" d="M0 -200 L500 -200 L500 800 L0 800 L0 -200 Z M71 750 L429 750 L250 360 L71 750 Z M50 -76 L50 676 L222 300 L50 -76 Z M450 676 L450 -76 L278 300 L450 676 Z M250 240 L429 -150 L71 -150 L250 240 Z " />
<glyph glyph-name="NULL" d="" />
<glyph glyph-name="CR" unicode="&#xd;" horiz-adv-x="250" d="" />
<glyph glyph-name="space" unicode="&#x20;" horiz-adv-x="200" d="" />
<glyph glyph-name="exclam" unicode="&#x21;" horiz-adv-x="213" d="M94 183 L119 183 L134 630 L134 700 L79 700 L79 630 L94 183 Z M75 0 L138 0 L138 83 L75 83 L75 0 Z " />
<glyph glyph-name="quotedbl" unicode="&#x22;" horiz-adv-x="294" d="M184 454 L206 454 L251 692 L251 700 L196 700 L184 454 Z M52 454 L75 454 L120 692 L120 700 L65 700 L52 454 Z " />
<glyph glyph-name="numbersign" unicode="&#x23;" horiz-adv-x="497" d="M439 229 L347 229 L374 473 L465 473 L465 515 L378 515 L399 700 L359 700 L339 515 L194 515 L214 700 L175 700 L154 515 L58 515 L58 473 L150 473 L123 229 L31 229 L31 186 L118 186 L98 0 L138 0 L158 186 L303 186 L283 0 L322 0 L342 186 L439 186 L439 229 Z M189 473 L334 473 L308 229 L163 229 L189 473 Z " />
<glyph glyph-name="dollar" unicode="&#x24;" horiz-adv-x="442" d="M385 639 C342 677 296 699 241 702 L241 764 L202 764 L202 702 C109 691 48 621 48 531 L48 530 C48 434 101 385 203 341 L203 37 C149 40 102 61 58 110 L29 75 C76 22 140 -1 202 -4 L202 -99 L241 -99 L241 -2 C336 9 397 82 397 178 L397 180 C397 268 358 329 240 380 L240 661 C282 658 320 638 358 604 L385 639 Z M352 180 L352 179 C352 108 314 48 240 38 L240 330 C324 294 352 247 352 180 L352 180 Z M93 531 L93 533 C93 600 133 652 203 660 L203 392 C127 425 93 461 93 531 L93 531 Z " />
<glyph glyph-name="percent" unicode="&#x25;" horiz-adv-x="613" d="M157 365 C226 365 279 432 279 533 L279 539 C279 639 226 706 158 706 C90 706 37 639 37 538 L37 532 C37 432 89 365 157 365 L157 365 Z M157 666 C202 666 236 615 236 538 L236 532 C236 456 203 405 158 405 C114 405 79 455 79 533 L79 539 C79 614 112 666 157 666 L157 666 Z M290 358 L94 0 L137 0 L322 341 L520 700 L477 700 L290 358 Z M455 -6 C524 -6 577 61 577 162 L577 168 C577 268 524 335 456 335 C388 335 335 268 335 167 L335 161 C335 61 387 -6 455 -6 L455 -6 Z M456 34 C412 34 377 84 377 162 L377 168 C377 243 410 295 455 295 C500 295 534 244 534 167 L534 161 C534 85 501 34 456 34 L456 34 Z " />
<glyph glyph-name="ampersand" unicode="&#x26;" horiz-adv-x="510" d="M453 -9 L490 16 L400 141 C427 197 447 257 465 331 L425 343 C410 281 394 229 372 180 L234 382 C316 437 366 492 366 570 L366 575 C366 643 317 709 237 709 C155 709 99 643 99 569 L99 565 C99 512 121 467 171 393 C82 334 35 258 35 175 L35 170 C35 73 101 -8 200 -8 C276 -8 330 36 375 101 L453 -9 Z M211 414 C159 487 144 524 144 568 L144 570 C144 624 181 669 236 669 C287 669 321 625 321 572 L321 570 C321 510 286 459 211 414 L211 414 Z M201 34 C131 34 82 95 82 173 L82 178 C82 244 114 313 193 362 L349 136 C309 74 263 34 201 34 L201 34 Z " />
<glyph glyph-name="quotesingle" unicode="&#x27;" horiz-adv-x="156" d="M52 454 L75 454 L120 692 L120 700 L65 700 L52 454 Z " />
<glyph glyph-name="parenleft" unicode="&#x28;" horiz-adv-x="303" d="M259 -134 L276 -106 C167 -24 94 101 94 289 C94 478 167 603 276 685 L259 713 C134 631 48 488 48 289 C48 91 134 -52 259 -134 L259 -134 Z " />
<glyph glyph-name="parenright" unicode="&#x29;" horiz-adv-x="303" d="M44 -134 C169 -52 255 91 255 289 C255 488 169 631 44 713 L27 685 C136 603 209 478 209 289 C209 101 136 -24 27 -106 L44 -134 Z " />
<glyph glyph-name="asterisk" unicode="&#x2a;" horiz-adv-x="331" d="M147 423 L185 423 L176 543 L267 477 L287 510 L185 562 L287 615 L267 648 L176 582 L185 702 L147 702 L155 582 L64 648 L44 615 L146 562 L44 510 L64 477 L155 543 L147 423 Z " />
<glyph glyph-name="plus" unicode="&#x2b;" horiz-adv-x="438" d="M197 174 L241 174 L241 331 L395 331 L395 373 L241 373 L241 530 L197 530 L197 373 L43 373 L43 331 L197 331 L197 174 Z " />
<glyph glyph-name="comma" unicode="&#x2c;" horiz-adv-x="178" d="M44 -104 C100 -79 121 -51 121 11 L121 83 L57 83 L57 0 L84 0 C87 -38 72 -61 32 -79 L44 -104 Z " />
<glyph glyph-name="hyphen" unicode="&#x2d;" horiz-adv-x="317" d="M51 274 L267 274 L267 319 L51 319 L51 274 Z " />
<glyph glyph-name="period" unicode="&#x2e;" horiz-adv-x="178" d="M57 0 L121 0 L121 83 L57 83 L57 0 Z " />
<glyph glyph-name="slash" unicode="&#x2f;" horiz-adv-x="344" d="M-9 -109 L33 -109 L340 779 L298 779 L-9 -109 Z " />
<glyph glyph-name="zero" unicode="0" horiz-adv-x="490" d="M245 -9 C367 -9 442 120 442 345 L442 357 C442 582 367 709 246 709 C124 709 48 580 48 355 L48 343 C48 118 123 -9 245 -9 L245 -9 Z M246 33 C156 33 96 153 96 345 L96 357 C96 549 156 667 245 667 C334 667 395 547 395 355 L395 343 C395 151 335 33 246 33 L246 33 Z " />
<glyph glyph-name="one" unicode="1" horiz-adv-x="251" d="M125 0 L171 0 L171 702 L132 702 L25 651 L30 604 L125 648 L125 0 Z " />
<glyph glyph-name="two" unicode="2" horiz-adv-x="420" d="M33 0 L375 0 L375 45 L97 45 L274 310 C337 405 369 460 369 538 L369 541 C369 640 301 709 202 709 C131 709 73 672 37 614 L70 587 C107 641 150 664 197 664 C270 664 320 615 320 537 C320 471 292 419 235 334 L33 32 L33 0 Z " />
<glyph glyph-name="three" unicode="3" horiz-adv-x="411" d="M177 -9 C281 -9 367 73 367 199 L367 204 C367 324 282 378 185 391 L362 668 L362 700 L43 700 L43 654 L302 654 L128 382 L133 352 L135 352 C237 352 320 307 320 202 L320 198 C320 97 257 34 178 34 C120 34 85 57 53 87 L25 51 C61 17 110 -9 177 -9 L177 -9 Z " />
<glyph glyph-name="four" unicode="4" horiz-adv-x="455" d="M305 0 L348 0 L348 165 L424 165 L424 205 L348 205 L348 705 L308 705 L29 200 L35 165 L305 165 L305 0 Z M79 205 L305 613 L305 205 L79 205 Z " />
<glyph glyph-name="five" unicode="5" horiz-adv-x="425" d="M185 -9 C295 -9 381 84 381 216 L381 219 C381 353 299 422 199 422 C160 422 133 413 106 401 L119 655 L353 655 L353 700 L78 700 L62 376 L95 353 C124 367 152 378 195 378 C271 378 333 328 333 216 L333 213 C333 106 269 34 187 34 C136 34 96 56 65 84 L39 48 C75 16 125 -9 185 -9 L185 -9 Z " />
<glyph glyph-name="six" unicode="6" horiz-adv-x="455" d="M234 -9 C333 -9 412 84 412 220 L412 222 C412 360 332 433 239 433 C177 433 120 395 93 336 C97 540 159 665 260 665 C303 665 334 647 358 629 L380 668 C343 695 309 709 262 709 C135 709 49 578 49 326 L49 309 C49 156 78 80 123 35 C152 6 191 -9 234 -9 L234 -9 Z M236 33 C150 33 104 116 104 222 L104 225 C104 331 165 391 236 391 C308 391 365 331 365 221 L365 219 C365 117 315 33 236 33 L236 33 Z " />
<glyph glyph-name="seven" unicode="7" horiz-adv-x="406" d="M99 0 L147 0 L364 662 L364 700 L45 700 L45 655 L315 655 L99 0 Z " />
<glyph glyph-name="eight" unicode="8" horiz-adv-x="434" d="M217 -9 C322 -9 398 69 398 181 L398 186 C398 268 351 334 284 361 C340 389 381 445 381 526 L381 531 C381 642 303 709 217 709 C130 709 53 642 53 531 L53 526 C53 445 94 389 150 361 C82 334 36 268 36 186 L36 181 C36 69 112 -9 217 -9 L217 -9 Z M217 33 C134 33 83 99 83 182 L83 184 C83 274 142 340 217 340 C292 340 351 274 351 184 L351 182 C351 99 300 33 217 33 L217 33 Z M217 380 C150 380 99 447 99 527 L99 530 C99 611 149 667 217 667 C285 667 335 611 335 530 L335 527 C335 447 284 380 217 380 L217 380 Z " />
<glyph glyph-name="nine" unicode="9" horiz-adv-x="455" d="M195 35 C152 35 121 52 87 76 L65 37 C107 7 146 -9 193 -9 C320 -9 406 122 406 374 L406 391 C406 544 377 620 332 665 C303 694 264 709 221 709 C122 709 43 615 43 476 L43 474 C43 333 123 259 216 259 C278 259 334 296 361 355 C357 161 296 35 195 35 L195 35 Z M219 301 C147 301 90 362 90 475 L90 477 C90 582 140 667 219 667 C305 667 351 583 351 474 L351 471 C351 362 290 301 219 301 L219 301 Z " />
<glyph glyph-name="colon" unicode="&#x3a;" horiz-adv-x="188" d="M62 437 L126 437 L126 520 L62 520 L62 437 Z M62 0 L126 0 L126 83 L62 83 L62 0 Z " />
<glyph glyph-name="semicolon" unicode="&#x3b;" horiz-adv-x="188" d="M62 437 L126 437 L126 520 L62 520 L62 437 Z M49 -104 C105 -79 126 -51 126 11 L126 83 L62 83 L62 0 L89 0 C92 -38 77 -61 37 -79 L49 -104 Z " />
<glyph glyph-name="less" unicode="&#x3c;" horiz-adv-x="438" d="M372 149 L372 201 L98 352 L372 503 L372 555 L48 372 L48 332 L372 149 Z " />
<glyph glyph-name="equal" unicode="&#x3d;" horiz-adv-x="438" d="M51 414 L387 414 L387 459 L51 459 L51 414 Z M51 245 L387 245 L387 290 L51 290 L51 245 Z " />
<glyph glyph-name="greater" unicode="&#x3e;" horiz-adv-x="438" d="M66 149 L390 332 L390 372 L66 555 L66 503 L340 352 L66 201 L66 149 Z " />
<glyph glyph-name="question" unicode="&#x3f;" horiz-adv-x="384" d="M150 183 L179 183 L188 326 C276 354 348 415 348 526 L348 530 C348 629 277 706 174 706 C109 706 60 678 20 641 L46 606 C79 637 120 663 171 663 C247 663 301 608 301 527 L301 524 C301 430 241 378 146 358 L141 352 L150 183 Z M136 0 L198 0 L198 83 L136 83 L136 0 Z " />
<glyph glyph-name="at" unicode="&#x40;" horiz-adv-x="755" d="M369 -143 C452 -143 508 -122 569 -85 L555 -62 C497 -97 446 -115 369 -115 C196 -115 70 18 70 237 C70 458 196 681 403 681 C577 681 684 531 684 364 C684 233 627 106 555 106 C517 106 499 134 499 172 C499 190 501 215 506 241 L552 482 L509 489 L494 410 C481 462 448 505 387 505 C286 505 202 370 202 222 C202 128 253 71 318 71 C382 71 424 119 457 176 C458 115 492 73 551 73 C640 73 714 200 714 365 C714 554 591 709 403 709 C186 709 41 486 41 234 C41 1 183 -143 369 -143 L369 -143 Z M328 113 C279 113 247 149 247 227 C247 298 273 384 317 429 C338 450 364 463 391 463 C441 463 478 413 478 344 C478 262 441 187 403 149 C381 127 354 113 328 113 L328 113 Z " />
<glyph glyph-name="A" unicode="A" horiz-adv-x="543" d="M34 0 L81 0 L139 196 L402 196 L460 0 L509 0 L296 704 L247 704 L34 0 Z M152 239 L271 639 L389 239 L152 239 Z " />
<glyph glyph-name="B" unicode="B" horiz-adv-x="495" d="M73 0 L225 0 C363 0 453 69 453 185 L453 187 C453 283 392 336 309 356 C373 377 433 424 433 524 L433 526 C433 574 416 615 387 644 C351 680 298 700 232 700 L73 700 L73 0 Z M386 521 C386 429 324 375 221 375 L120 375 L120 657 L231 657 C327 657 386 605 386 523 L386 521 Z M406 187 L406 185 C406 94 337 43 227 43 L120 43 L120 332 L225 332 C341 332 406 280 406 187 L406 187 Z " />
<glyph glyph-name="C" unicode="C" horiz-adv-x="472" d="M293 -7 C354 -7 404 19 441 53 L415 88 C382 58 341 37 296 37 C184 37 97 156 97 347 L97 354 C97 542 186 663 297 663 C342 663 381 644 412 616 L438 653 C403 684 358 707 299 707 C162 707 50 579 50 354 L50 345 C50 117 157 -7 293 -7 L293 -7 Z " />
<glyph glyph-name="D" unicode="D" horiz-adv-x="534" d="M73 0 L208 0 C370 0 484 130 484 344 L484 357 C484 571 370 700 208 700 L73 700 L73 0 Z M204 657 C342 657 437 543 437 356 L437 343 C437 156 343 43 205 43 L120 43 L120 657 L204 657 Z " />
<glyph glyph-name="E" unicode="E" horiz-adv-x="446" d="M73 0 L406 0 L406 43 L120 43 L120 332 L375 332 L375 375 L120 375 L120 657 L402 657 L402 700 L73 700 L73 0 Z " />
<glyph glyph-name="F" unicode="F" horiz-adv-x="429" d="M73 0 L120 0 L120 321 L367 321 L367 364 L120 364 L120 657 L394 657 L394 700 L73 700 L73 0 Z " />
<glyph glyph-name="G" unicode="G" horiz-adv-x="530" d="M310 -7 C372 -7 429 17 466 45 L466 360 L272 360 L272 317 L421 317 L421 68 C392 49 355 36 313 36 C185 36 97 151 97 347 L97 354 C97 547 192 663 309 663 C359 663 400 646 433 616 L460 656 C414 692 370 707 309 707 C160 707 50 571 50 355 L50 344 C50 125 151 -7 310 -7 L310 -7 Z " />
<glyph glyph-name="H" unicode="H" horiz-adv-x="536" d="M73 0 L120 0 L120 331 L417 331 L417 0 L464 0 L464 700 L417 700 L417 374 L120 374 L120 700 L73 700 L73 0 Z " />
<glyph glyph-name="I" unicode="I" horiz-adv-x="206" d="M80 0 L127 0 L127 700 L80 700 L80 0 Z " />
<glyph glyph-name="J" unicode="J" horiz-adv-x="345" d="M138 -7 C179 -7 211 5 238 32 C264 58 279 100 279 155 L279 700 L233 700 L233 156 C233 76 195 36 142 36 C107 36 80 49 51 90 L17 62 C44 17 89 -7 138 -7 L138 -7 Z " />
<glyph glyph-name="K" unicode="K" horiz-adv-x="491" d="M73 0 L120 0 L120 207 L216 346 L422 0 L477 0 L245 389 L459 700 L404 700 L120 278 L120 700 L73 700 L73 0 Z " />
<glyph glyph-name="L" unicode="L" horiz-adv-x="401" d="M73 0 L378 0 L378 43 L120 43 L120 700 L73 700 L73 0 Z " />
<glyph glyph-name="M" unicode="M" horiz-adv-x="615" d="M73 0 L118 0 L118 607 L305 199 L309 199 L496 607 L496 0 L542 0 L542 700 L491 700 L307 297 L124 700 L73 700 L73 0 Z " />
<glyph glyph-name="N" unicode="N" horiz-adv-x="550" d="M73 0 L118 0 L118 611 L436 0 L477 0 L477 700 L432 700 L432 103 L120 700 L73 700 L73 0 Z " />
<glyph glyph-name="O" unicode="O" horiz-adv-x="561" d="M281 -9 C416 -9 512 126 512 344 L512 356 C512 574 416 709 281 709 C146 709 50 574 50 356 L50 344 C50 126 146 -9 281 -9 L281 -9 Z M281 35 C177 35 98 155 98 344 L98 356 C98 545 177 665 281 665 C385 665 464 545 464 356 L464 344 C464 155 385 35 281 35 L281 35 Z " />
<glyph glyph-name="P" unicode="P" horiz-adv-x="470" d="M73 0 L120 0 L120 259 L211 259 C348 259 440 343 440 481 L440 483 C440 617 353 700 218 700 L73 700 L73 0 Z M120 301 L120 657 L216 657 C323 657 393 595 393 482 L393 480 C393 369 326 301 215 301 L120 301 Z " />
<glyph glyph-name="Q" unicode="Q" horiz-adv-x="561" d="M521 11 L447 87 C488 148 512 236 512 344 L512 356 C512 574 416 709 281 709 C146 709 50 574 50 356 L50 344 C50 126 146 -9 281 -9 C334 -9 382 13 420 53 L488 -20 L521 11 Z M281 35 C177 35 98 155 98 344 L98 356 C98 545 177 665 281 665 C385 665 464 545 464 356 L464 344 C464 249 446 173 415 120 L330 211 L297 180 L389 85 C360 52 323 35 281 35 L281 35 Z " />
<glyph glyph-name="R" unicode="R" horiz-adv-x="502" d="M73 0 L120 0 L120 285 L216 285 C228 285 240 285 252 286 L413 0 L468 0 L300 296 C388 320 450 386 450 494 L450 496 C450 556 430 606 396 641 C359 678 302 700 232 700 L73 700 L73 0 Z M120 328 L120 657 L230 657 C336 657 404 601 404 495 L404 493 C404 397 349 328 207 328 L120 328 Z " />
<glyph glyph-name="S" unicode="S" horiz-adv-x="440" d="M213 -10 C319 -10 397 68 397 166 L397 168 C397 239 377 296 240 376 C128 442 100 480 100 542 L100 544 C100 610 150 666 230 666 C277 666 323 646 366 606 L395 644 C344 690 287 710 232 710 C126 710 52 634 52 541 L52 539 C52 465 79 412 215 333 C327 268 350 224 350 168 L350 166 C350 93 294 34 213 34 C154 34 103 63 56 109 L25 71 C85 13 146 -10 213 -10 L213 -10 Z " />
<glyph glyph-name="T" unicode="T" horiz-adv-x="419" d="M186 0 L233 0 L233 657 L393 657 L393 700 L27 700 L27 657 L186 657 L186 0 Z " />
<glyph glyph-name="U" unicode="U" horiz-adv-x="532" d="M266 -10 C386 -10 466 75 466 221 L466 700 L419 700 L419 218 C419 97 360 33 267 33 C172 33 114 100 114 220 L114 700 L68 700 L68 219 C68 75 147 -10 266 -10 L266 -10 Z " />
<glyph glyph-name="V" unicode="V" horiz-adv-x="517" d="M236 -5 L281 -5 L484 700 L436 700 L259 70 L83 700 L34 700 L236 -5 Z " />
<glyph glyph-name="W" unicode="W" horiz-adv-x="783" d="M205 -5 L246 -5 L392 605 L537 -5 L578 -5 L746 700 L698 700 L558 85 L413 701 L372 701 L227 85 L86 700 L37 700 L205 -5 Z " />
<glyph glyph-name="X" unicode="X" horiz-adv-x="485" d="M389 700 L241 404 L95 700 L43 700 L214 363 L31 0 L82 0 L241 324 L402 0 L454 0 L270 365 L440 700 L389 700 Z " />
<glyph glyph-name="Y" unicode="Y" horiz-adv-x="479" d="M216 0 L263 0 L263 294 L463 700 L412 700 L240 343 L68 700 L16 700 L216 293 L216 0 Z " />
<glyph glyph-name="Z" unicode="Z" horiz-adv-x="459" d="M43 0 L418 0 L418 43 L102 43 L418 672 L418 700 L56 700 L56 657 L359 657 L43 29 L43 0 Z " />
<glyph glyph-name="bracketleft" unicode="&#x5b;" horiz-adv-x="315" d="M85 -130 L271 -130 L271 -95 L128 -95 L128 665 L271 665 L271 700 L85 700 L85 -130 Z " />
<glyph glyph-name="backslash" unicode="&#x5c;" horiz-adv-x="344" d="M311 -109 L353 -109 L46 779 L4 779 L311 -109 Z " />
<glyph glyph-name="bracketright" unicode="&#x5d;" horiz-adv-x="315" d="M44 -130 L230 -130 L230 700 L44 700 L44 665 L187 665 L187 -95 L44 -95 L44 -130 Z " />
<glyph glyph-name="asciicircum" unicode="&#x5e;" horiz-adv-x="370" d="M65 519 L108 519 L184 645 L260 519 L305 519 L204 692 L166 692 L65 519 Z " />
<glyph glyph-name="underscore" unicode="&#x5f;" horiz-adv-x="504" d="M-2 -159 L506 -159 L506 -121 L-2 -121 L-2 -159 Z " />
<glyph glyph-name="grave" unicode="&#x60;" horiz-adv-x="500" d="M275 582 L307 582 L236 709 L185 682 L275 582 Z " />
<glyph glyph-name="a" unicode="a" horiz-adv-x="411" d="M177 -10 C241 -10 284 27 309 79 L309 0 L353 0 L353 362 C353 416 336 459 310 484 C281 513 242 527 195 527 C147 527 102 511 64 490 L80 452 C107 470 149 485 191 485 C266 485 309 440 309 358 L309 305 C278 316 243 325 197 325 C97 325 35 257 35 158 L35 152 C35 55 99 -10 177 -10 L177 -10 Z M182 30 C120 30 80 82 80 154 L80 160 C80 233 121 285 199 285 C242 285 277 276 309 263 L309 172 C309 96 256 30 182 30 L182 30 Z " />
<glyph glyph-name="b" unicode="b" horiz-adv-x="458" d="M252 -9 C337 -9 417 81 417 254 L417 268 C417 442 337 530 252 530 C181 530 136 478 109 416 L109 714 L65 714 L65 0 L109 0 L109 104 C136 42 180 -9 252 -9 L252 -9 Z M247 31 C174 31 106 113 106 251 L106 269 C106 407 174 490 247 490 C315 490 372 413 372 266 L372 254 C372 106 316 31 247 31 L247 31 Z " />
<glyph glyph-name="c" unicode="c" horiz-adv-x="365" d="M226 -9 C279 -9 317 17 339 41 L313 72 C289 49 262 33 227 32 C159 31 85 101 85 253 L85 262 C85 407 154 489 226 489 C264 489 293 469 314 450 L338 485 C311 510 275 530 229 530 C128 530 40 437 40 263 L40 253 C40 80 121 -9 226 -9 L226 -9 Z " />
<glyph glyph-name="d" unicode="d" horiz-adv-x="458" d="M207 -9 C278 -9 323 43 350 105 L350 0 L394 0 L394 714 L350 714 L350 417 C323 479 279 530 207 530 C122 530 42 440 42 267 L42 253 C42 79 122 -9 207 -9 L207 -9 Z M212 31 C144 31 87 108 87 255 L87 267 C87 415 143 490 212 490 C285 490 353 408 353 270 L353 252 C353 114 285 31 212 31 L212 31 Z " />
<glyph glyph-name="e" unicode="e" horiz-adv-x="416" d="M234 -9 C288 -9 329 9 368 42 L345 76 C314 48 280 32 238 32 C157 32 88 105 84 242 L377 242 L377 270 C377 431 312 530 212 530 C118 530 40 431 40 260 L40 253 C40 83 127 -9 234 -9 L234 -9 Z M84 281 C90 412 144 489 212 489 C286 489 331 396 333 281 L84 281 Z " />
<glyph glyph-name="f" unicode="f" horiz-adv-x="257" d="M88 0 L132 0 L132 480 L245 480 L245 521 L132 521 L132 577 C132 643 157 674 205 674 C217 674 235 671 249 667 L249 710 C236 713 219 716 205 716 C170 716 143 706 123 686 C101 663 88 627 88 578 L88 521 L28 521 L28 480 L88 480 L88 0 Z " />
<glyph glyph-name="g" unicode="g" horiz-adv-x="458" d="M213 -141 C271 -141 317 -125 349 -93 C378 -64 394 -22 394 34 L394 521 L350 521 L350 419 C323 479 277 530 208 530 C121 530 42 442 42 284 L42 277 C42 117 121 31 207 31 C277 31 322 82 350 143 L350 33 C350 -56 299 -100 215 -100 C169 -100 117 -85 77 -62 L60 -101 C112 -128 163 -141 213 -141 L213 -141 Z M213 71 C144 71 87 144 87 278 L87 283 C87 418 144 490 213 490 C282 490 352 413 352 284 L352 277 C352 148 282 71 213 71 L213 71 Z " />
<glyph glyph-name="h" unicode="h" horiz-adv-x="442" d="M65 0 L109 0 L109 338 C109 429 162 491 231 491 C300 491 339 443 339 340 L339 0 L383 0 L383 356 C383 471 325 530 241 530 C172 530 131 487 109 438 L109 714 L65 714 L65 0 Z " />
<glyph glyph-name="i" unicode="i" horiz-adv-x="186" d="M68 639 L118 639 L118 708 L68 708 L68 639 Z M71 0 L115 0 L115 521 L71 521 L71 0 Z " />
<glyph glyph-name="j" unicode="j" horiz-adv-x="191" d="M73 639 L123 639 L123 708 L73 708 L73 639 Z M16 -142 C93 -142 120 -87 120 -23 L120 521 L76 521 L76 -13 C76 -65 62 -101 11 -101 C4 -101 -7 -99 -14 -96 L-14 -136 C-6 -139 5 -142 16 -142 L16 -142 Z " />
<glyph glyph-name="k" unicode="k" horiz-adv-x="395" d="M65 0 L109 0 L109 156 L184 264 L319 0 L370 0 L212 305 L360 521 L310 521 L109 219 L109 714 L65 714 L65 0 Z " />
<glyph glyph-name="l" unicode="l" horiz-adv-x="186" d="M71 0 L115 0 L115 714 L71 714 L71 0 Z " />
<glyph glyph-name="m" unicode="m" horiz-adv-x="693" d="M65 0 L109 0 L109 338 C109 429 160 491 225 491 C290 491 327 443 327 340 L327 0 L371 0 L371 337 C371 434 423 491 487 491 C552 491 589 443 589 340 L589 0 L633 0 L633 356 C633 471 577 530 494 530 C420 530 380 484 356 438 C334 500 287 530 234 530 C170 530 131 488 109 438 L109 521 L65 521 L65 0 Z " />
<glyph glyph-name="n" unicode="n" horiz-adv-x="442" d="M65 0 L109 0 L109 338 C109 429 162 491 231 491 C300 491 339 443 339 340 L339 0 L383 0 L383 356 C383 471 325 530 241 530 C172 530 131 487 109 438 L109 521 L65 521 L65 0 Z " />
<glyph glyph-name="o" unicode="o" horiz-adv-x="443" d="M221 -9 C326 -9 403 101 403 257 L403 264 C403 421 327 530 222 530 C117 530 40 420 40 264 L40 257 C40 100 116 -9 221 -9 L221 -9 Z M222 32 C147 32 85 123 85 257 L85 264 C85 397 146 489 221 489 C295 489 358 397 358 264 L358 257 C358 124 297 32 222 32 L222 32 Z " />
<glyph glyph-name="p" unicode="p" horiz-adv-x="458" d="M65 -139 L109 -139 L109 104 C136 42 180 -9 252 -9 C337 -9 417 81 417 254 L417 268 C417 442 337 530 252 530 C181 530 136 478 109 416 L109 521 L65 521 L65 -139 Z M247 31 C174 31 106 113 106 251 L106 269 C106 407 174 490 247 490 C315 490 372 413 372 266 L372 254 C372 106 316 31 247 31 L247 31 Z " />
<glyph glyph-name="q" unicode="q" horiz-adv-x="458" d="M350 -139 L394 -139 L394 521 L350 521 L350 417 C323 479 279 530 207 530 C122 530 42 440 42 267 L42 253 C42 79 122 -9 207 -9 C278 -9 323 43 350 105 L350 -139 Z M212 31 C144 31 87 108 87 255 L87 267 C87 415 143 490 212 490 C285 490 353 408 353 270 L353 252 C353 114 285 31 212 31 L212 31 Z " />
<glyph glyph-name="r" unicode="r" horiz-adv-x="282" d="M65 0 L109 0 L109 311 C109 424 178 480 259 480 L262 480 L262 527 C188 531 134 484 109 424 L109 521 L65 521 L65 0 Z " />
<glyph glyph-name="s" unicode="s" horiz-adv-x="342" d="M163 -7 C243 -7 308 48 308 130 L308 131 C308 194 280 234 183 290 C106 334 82 362 82 405 L82 406 C82 452 120 487 174 487 C216 487 250 469 283 439 L311 473 C280 502 234 528 176 528 C97 528 38 477 38 402 L38 401 C38 337 74 298 162 249 C243 204 264 172 264 130 L264 128 C264 72 221 34 165 34 C122 34 81 53 39 97 L10 63 C59 15 110 -7 163 -7 L163 -7 Z " />
<glyph glyph-name="t" unicode="t" horiz-adv-x="276" d="M191 -5 C208 -5 226 -2 241 4 L241 45 C227 39 211 36 196 36 C155 36 128 52 128 106 L128 480 L240 480 L240 521 L128 521 L128 673 L84 673 L84 521 L27 521 L27 480 L84 480 L84 100 C84 25 128 -5 191 -5 L191 -5 Z " />
<glyph glyph-name="u" unicode="u" horiz-adv-x="442" d="M201 -9 C270 -9 311 34 333 83 L333 0 L377 0 L377 521 L333 521 L333 183 C333 92 280 30 211 30 C142 30 103 78 103 181 L103 521 L59 521 L59 165 C59 50 117 -9 201 -9 L201 -9 Z " />
<glyph glyph-name="v" unicode="v" horiz-adv-x="416" d="M189 -3 L227 -3 L385 521 L340 521 L208 66 L78 521 L31 521 L189 -3 Z " />
<glyph glyph-name="w" unicode="w" horiz-adv-x="628" d="M169 -3 L208 -3 L314 437 L420 -3 L460 -3 L591 521 L547 521 L441 68 L335 521 L296 521 L188 68 L84 521 L37 521 L169 -3 Z " />
<glyph glyph-name="x" unicode="x" horiz-adv-x="405" d="M89 521 L41 521 L175 268 L33 0 L80 0 L201 233 L323 0 L371 0 L227 269 L362 521 L315 521 L201 304 L89 521 Z " />
<glyph glyph-name="y" unicode="y" horiz-adv-x="416" d="M214 64 L77 521 L30 521 L193 -4 C167 -78 145 -99 109 -99 C90 -99 69 -91 56 -81 L41 -122 C64 -137 91 -142 109 -142 C166 -142 205 -109 236 0 L385 521 L338 521 L214 64 Z " />
<glyph glyph-name="z" unicode="z" horiz-adv-x="367" d="M35 0 L328 0 L328 39 L89 39 L331 495 L331 521 L46 521 L46 482 L278 482 L35 26 L35 0 Z " />
<glyph glyph-name="braceleft" unicode="&#x7b;" horiz-adv-x="341" d="M303 -138 L308 -106 C210 -91 182 -54 182 15 C182 67 208 109 208 161 C208 224 179 274 110 289 C179 304 208 354 208 417 C208 469 182 511 182 563 C182 632 210 669 308 684 L303 716 C173 700 137 639 137 567 C137 513 163 465 163 412 C163 358 135 305 48 305 L33 305 L33 273 L48 273 C135 273 163 220 163 166 C163 113 137 65 137 11 C137 -61 173 -122 303 -138 L303 -138 Z " />
<glyph glyph-name="bar" unicode="&#x7c;" horiz-adv-x="241" d="M101 -109 L140 -109 L140 779 L101 779 L101 -109 Z " />
<glyph glyph-name="braceright" unicode="&#x7d;" horiz-adv-x="341" d="M38 -138 C168 -122 204 -61 204 11 C204 65 178 113 178 166 C178 220 206 273 293 273 L308 273 L308 305 L293 305 C206 305 178 358 178 412 C178 465 204 513 204 567 C204 639 168 700 38 716 L33 684 C131 669 159 632 159 563 C159 511 133 469 133 417 C133 354 162 304 231 289 C162 274 133 224 133 161 C133 109 159 67 159 15 C159 -54 131 -91 33 -106 L38 -138 Z " />
<glyph glyph-name="asciitilde" unicode="&#x7e;" horiz-adv-x="352" d="M227 250 C257 250 277 275 292 332 L260 340 C250 308 241 293 224 293 C213 293 200 300 180 316 C160 330 145 339 125 339 C95 339 75 315 61 258 L92 250 C102 282 111 297 128 297 C139 297 152 289 172 274 C192 259 207 250 227 250 L227 250 Z " />
<glyph glyph-name="uni00A0" unicode="&#xa0;" horiz-adv-x="200" d="" />
<glyph glyph-name="exclamdown" unicode="&#xa1;" horiz-adv-x="213" d="M75 617 L138 617 L138 700 L75 700 L75 617 Z M79 0 L134 0 L134 70 L119 517 L94 517 L79 70 L79 0 Z " />
<glyph glyph-name="cent" unicode="&#xa2;" horiz-adv-x="392" d="M263 704 L223 704 L217 620 C116 612 44 519 44 354 L44 347 C44 203 100 113 181 89 L174 -5 L214 -5 L221 83 L228 83 C284 83 327 106 359 139 L334 171 C308 145 277 125 232 125 L223 125 L253 576 C287 570 311 552 331 536 L357 568 C330 593 297 613 256 619 L263 704 Z M90 347 L90 356 C90 498 142 568 215 577 L185 134 C128 157 90 226 90 347 L90 347 Z " />
<glyph glyph-name="sterling" unicode="&#xa3;" horiz-adv-x="435" d="M45 0 L405 0 L405 42 L154 42 L154 319 L341 319 L341 360 L154 360 L154 497 C154 562 161 609 192 639 C214 661 243 666 264 666 C309 666 344 643 368 610 L402 638 C384 666 339 708 266 708 C219 708 181 690 158 667 C115 624 108 570 108 497 L108 360 L43 360 L43 319 L108 319 L108 41 L45 22 L45 0 Z " />
<glyph glyph-name="yen" unicode="&#xa5;" horiz-adv-x="462" d="M71 273 L209 273 L209 174 L71 174 L71 135 L209 135 L209 0 L254 0 L254 135 L391 135 L391 174 L254 174 L254 273 L391 273 L391 311 L263 311 L448 700 L397 700 L232 339 L68 700 L14 700 L199 311 L71 311 L71 273 Z " />
<glyph glyph-name="section" unicode="&#xa7;" horiz-adv-x="455" d="M290 218 C379 234 418 286 418 339 L418 341 C418 397 384 432 269 481 C175 521 140 547 140 590 L140 592 C140 634 172 666 231 666 C281 666 320 648 352 624 L376 659 C335 691 288 708 235 708 C151 708 93 659 93 592 L93 590 C93 545 117 515 165 482 C76 466 37 414 37 361 L37 359 C37 303 71 268 186 219 C280 179 315 153 315 110 L315 108 C315 66 283 34 224 34 C174 34 135 52 103 76 L79 41 C120 9 167 -8 220 -8 C304 -8 362 41 362 108 L362 110 C362 155 338 185 290 218 L290 218 Z M259 247 C243 247 223 250 192 262 C106 296 82 324 82 361 L82 365 C82 416 135 453 196 453 C212 453 232 450 263 438 C349 404 373 376 373 339 L373 335 C373 284 320 247 259 247 L259 247 Z " />
<glyph glyph-name="dieresis" unicode="&#xa8;" horiz-adv-x="500" d="M283 589 L335 589 L335 659 L283 659 L283 589 Z M165 589 L217 589 L217 659 L165 659 L165 589 Z " />
<glyph glyph-name="copyright" unicode="&#xa9;" horiz-adv-x="630" d="M315 -11 C480 -11 596 148 596 339 L596 362 C596 554 481 711 315 711 C150 711 34 553 34 362 L34 338 C34 147 149 -11 315 -11 L315 -11 Z M315 15 C162 15 62 162 62 338 L62 362 C62 538 162 685 315 685 C468 685 569 538 569 362 L569 339 C569 163 468 15 315 15 L315 15 Z M323 157 C357 157 383 169 409 194 L388 222 C369 204 351 194 325 194 C272 194 229 249 229 347 L229 358 C229 455 271 510 324 510 C350 510 371 498 386 484 L407 514 C382 535 358 547 324 547 C250 547 190 477 190 356 L190 348 C190 226 249 157 323 157 L323 157 Z " />
<glyph glyph-name="ordfeminine" unicode="&#xaa;" horiz-adv-x="299" d="M132 406 C161 406 184 422 200 448 L200 411 L235 411 L235 606 C235 634 228 658 214 673 C198 692 173 702 142 702 C113 702 90 695 65 683 L77 652 C94 661 116 668 139 668 C177 668 200 645 200 604 L200 582 C183 588 165 592 143 592 C87 592 51 556 51 500 L51 495 C51 440 89 406 132 406 L132 406 Z M136 438 C106 438 86 462 86 497 L86 501 C86 535 107 561 144 561 C167 561 184 557 200 551 L200 511 C200 470 171 438 136 438 L136 438 Z M50 312 L245 312 L245 344 L50 344 L50 312 Z " />
<glyph glyph-name="guillemotleft" unicode="&#xab;" horiz-adv-x="401" d="M324 43 L356 61 L240 256 L356 449 L324 467 L189 259 L189 251 L324 43 Z M173 43 L206 61 L89 256 L206 449 L173 467 L39 259 L39 251 L173 43 Z " />
<glyph glyph-name="registered" unicode="&#xae;" horiz-adv-x="348" d="M174 357 C257 357 318 434 318 530 L318 542 C318 638 257 715 174 715 C92 715 31 638 31 541 L31 529 C31 433 91 357 174 357 L174 357 Z M174 375 C100 375 50 444 50 529 L50 541 C50 626 100 696 174 696 C249 696 298 627 298 542 L298 530 C298 444 248 375 174 375 L174 375 Z M124 446 L148 446 L148 516 L178 516 L215 446 L242 446 L201 522 C222 530 236 546 236 575 C236 610 212 632 175 632 L124 632 L124 446 Z M148 537 L148 609 L174 609 C197 609 212 597 212 574 C212 550 197 537 174 537 L148 537 Z " />
<glyph glyph-name="macron" unicode="&#xaf;" horiz-adv-x="500" d="M143 598 L357 598 L357 639 L143 639 L143 598 Z " />
<glyph glyph-name="degree" unicode="&#xb0;" horiz-adv-x="319" d="M159 406 C223 406 277 465 277 553 L277 559 C277 648 223 707 159 707 C96 707 42 648 42 559 L42 553 C42 465 96 406 159 406 L159 406 Z M159 444 C114 444 83 489 83 553 L83 559 C83 623 114 669 159 669 C204 669 236 623 236 559 L236 553 C236 489 204 444 159 444 L159 444 Z " />
<glyph glyph-name="plusminus" unicode="&#xb1;" horiz-adv-x="438" d="M392 341 L392 384 L241 384 L241 536 L197 536 L197 384 L46 384 L46 341 L197 341 L197 189 L241 189 L241 341 L392 341 Z M392 63 L392 106 L46 106 L46 63 L392 63 Z " />
<glyph glyph-name="two.sup" unicode="&#xb2;" horiz-adv-x="300" d="M41 452 L258 452 L258 487 L93 487 L196 608 C232 651 254 678 254 725 C254 780 212 818 155 818 C106 818 75 795 44 759 L68 735 C85 753 110 783 153 783 C187 783 216 762 216 724 C216 692 200 667 167 627 L41 478 L41 452 Z " />
<glyph glyph-name="three.sup" unicode="&#xb3;" horiz-adv-x="300" d="M140 446 C201 446 254 488 254 552 C254 617 208 647 145 657 L251 785 L251 813 L48 813 L48 778 L204 778 L99 650 L102 627 L112 627 C180 626 217 600 217 553 C217 505 182 479 143 479 C102 479 76 499 56 518 L34 492 C57 469 92 446 140 446 L140 446 Z " />
<glyph glyph-name="acute" unicode="&#xb4;" horiz-adv-x="500" d="M193 582 L225 582 L315 682 L264 709 L193 582 Z " />
<glyph glyph-name="paragraph" unicode="&#xb6;" horiz-adv-x="379" d="M263 0 L310 0 L310 700 L253 700 C119 700 32 617 32 485 L32 483 C32 349 121 265 261 265 L263 265 L263 0 Z " />
<glyph glyph-name="periodcentered" unicode="&#xb7;" horiz-adv-x="179" d="M57 255 L122 255 L122 340 L57 340 L57 255 Z " />
<glyph glyph-name="cedilla" unicode="&#xb8;" horiz-adv-x="500" d="M229 -121 L283 10 L248 10 L180 -100 L229 -121 Z " />
<glyph glyph-name="one.sup" unicode="&#xb9;" horiz-adv-x="244" d="M156 452 L156 814 L124 814 L41 773 L45 737 L120 773 L120 452 L156 452 Z " />
<glyph glyph-name="ordmasculine" unicode="&#xba;" horiz-adv-x="299" d="M149 406 C212 406 255 468 255 552 L255 559 C255 642 213 704 150 704 C87 704 45 642 45 558 L45 551 C45 468 86 406 149 406 L149 406 Z M48 312 L252 312 L252 344 L48 344 L48 312 Z M150 440 C106 440 82 492 82 552 L82 559 C82 617 105 669 149 669 C193 669 217 617 217 558 L217 551 C217 492 194 440 150 440 L150 440 Z " />
<glyph glyph-name="guillemotright" unicode="&#xbb;" horiz-adv-x="401" d="M227 43 L362 251 L362 259 L227 467 L195 449 L312 254 L195 61 L227 43 Z M77 43 L211 251 L211 259 L77 467 L44 449 L161 254 L44 61 L77 43 Z " />
<glyph glyph-name="onequarter" unicode="&#xbc;" horiz-adv-x="620" d="M158 340 L158 702 L126 702 L43 661 L47 625 L122 661 L122 340 L158 340 Z M108 0 L146 0 L317 343 L497 701 L459 701 L289 357 L108 0 Z M539 78 L581 78 L581 109 L539 109 L539 363 L497 363 L347 105 L351 78 L505 78 L505 -1 L539 -1 L539 78 Z M505 109 L386 109 L502 310 L505 310 L505 109 Z " />
<glyph glyph-name="onehalf" unicode="&#xbd;" horiz-adv-x="620" d="M357 0 L574 0 L574 35 L409 35 L512 156 C548 199 570 226 570 273 C570 328 528 366 471 366 C422 366 391 343 360 307 L384 283 C401 301 426 331 469 331 C503 331 532 310 532 272 C532 240 516 215 483 175 L357 26 L357 0 Z M86 0 L124 0 L295 343 L475 701 L437 701 L267 357 L86 0 Z M158 340 L158 702 L126 702 L43 661 L47 625 L122 661 L122 340 L158 340 Z " />
<glyph glyph-name="threequarters" unicode="&#xbe;" horiz-adv-x="675" d="M597 78 L639 78 L639 109 L597 109 L597 363 L555 363 L405 105 L409 78 L563 78 L563 -1 L597 -1 L597 78 Z M563 109 L444 109 L560 310 L563 310 L563 109 Z M164 0 L202 0 L373 343 L553 701 L515 701 L345 357 L164 0 Z M142 334 C203 334 256 376 256 440 C256 505 210 535 147 545 L253 673 L253 701 L50 701 L50 666 L206 666 L101 538 L104 515 L114 515 C182 514 219 488 219 441 C219 393 184 367 145 367 C104 367 78 387 58 406 L36 380 C59 357 94 334 142 334 L142 334 Z " />
<glyph glyph-name="questiondown" unicode="&#xbf;" horiz-adv-x="384" d="M186 617 L248 617 L248 700 L186 700 L186 617 Z M210 -6 C275 -6 324 22 364 59 L338 94 C305 63 264 37 213 37 C137 37 83 92 83 173 L83 176 C83 270 143 322 238 342 L243 348 L234 517 L205 517 L196 374 C108 346 36 285 36 174 L36 170 C36 71 107 -6 210 -6 L210 -6 Z " />
<glyph glyph-name="Agrave" unicode="&#xc0;" horiz-adv-x="543" d="M34 0 L81 0 L139 196 L402 196 L460 0 L509 0 L296 704 L247 704 L34 0 Z M152 239 L271 639 L389 239 L152 239 Z M291 755 L218 864 L167 840 L255 755 L291 755 Z " />
<glyph glyph-name="Aacute" unicode="&#xc1;" horiz-adv-x="543" d="M34 0 L81 0 L139 196 L402 196 L460 0 L509 0 L296 704 L247 704 L34 0 Z M152 239 L271 639 L389 239 L152 239 Z M252 755 L288 755 L376 840 L325 864 L252 755 Z " />
<glyph glyph-name="Acircumflex" unicode="&#xc2;" horiz-adv-x="543" d="M34 0 L81 0 L139 196 L402 196 L460 0 L509 0 L296 704 L247 704 L34 0 Z M152 239 L271 639 L389 239 L152 239 Z M167 755 L211 755 L270 814 L329 755 L375 755 L292 856 L250 856 L167 755 Z " />
<glyph glyph-name="Atilde" unicode="&#xc3;" horiz-adv-x="543" d="M34 0 L81 0 L139 196 L402 196 L460 0 L509 0 L296 704 L247 704 L34 0 Z M152 239 L271 639 L389 239 L152 239 Z M326 756 C356 756 376 782 391 829 L358 837 C347 811 338 799 321 799 C311 799 298 805 278 816 C257 829 241 837 220 837 C190 837 169 811 154 764 L188 756 C198 782 207 795 224 795 C235 795 248 788 267 777 C289 765 304 756 326 756 L326 756 Z " />
<glyph glyph-name="Adieresis" unicode="&#xc4;" horiz-adv-x="543" d="M34 0 L81 0 L139 196 L402 196 L460 0 L509 0 L296 704 L247 704 L34 0 Z M152 239 L271 639 L389 239 L152 239 Z M306 761 L364 761 L364 829 L306 829 L306 761 Z M177 761 L236 761 L236 829 L177 829 L177 761 Z " />
<glyph glyph-name="Aring" unicode="&#xc5;" horiz-adv-x="543" d="M34 0 L81 0 L139 196 L402 196 L460 0 L509 0 L307 667 C337 679 359 707 359 741 C359 788 320 823 272 823 C223 823 182 788 182 741 C182 706 204 678 236 666 L34 0 Z M152 238 L271 639 L389 238 L152 238 Z M271 689 C239 689 216 711 216 741 C216 771 239 794 271 794 C302 794 326 771 326 741 C326 711 302 689 271 689 L271 689 Z " />
<glyph glyph-name="AE" unicode="&#xc6;" horiz-adv-x="697" d="M9 0 L57 0 L134 196 L329 196 L329 0 L656 0 L656 43 L376 43 L376 332 L626 332 L626 374 L376 374 L376 657 L653 657 L653 700 L285 700 L9 0 Z M151 238 L313 658 L329 658 L329 238 L151 238 Z " />
<glyph glyph-name="Ccedilla" unicode="&#xc7;" horiz-adv-x="472" d="M245 -121 L292 -7 L293 -7 C354 -7 404 19 441 53 L415 88 C382 58 341 37 296 37 C184 37 97 156 97 347 L97 354 C97 542 186 663 297 663 C342 663 381 644 412 616 L438 653 C403 684 358 707 299 707 C162 707 50 579 50 354 L50 345 C50 138 138 17 255 -4 L196 -100 L245 -121 Z " />
<glyph glyph-name="Egrave" unicode="&#xc8;" horiz-adv-x="446" d="M259 749 L186 858 L135 834 L223 749 L259 749 Z M73 0 L406 0 L406 43 L120 43 L120 332 L375 332 L375 375 L120 375 L120 657 L402 657 L402 700 L73 700 L73 0 Z " />
<glyph glyph-name="Eacute" unicode="&#xc9;" horiz-adv-x="446" d="M220 749 L256 749 L344 834 L293 858 L220 749 Z M73 0 L406 0 L406 43 L120 43 L120 332 L375 332 L375 375 L120 375 L120 657 L402 657 L402 700 L73 700 L73 0 Z " />
<glyph glyph-name="Ecircumflex" unicode="&#xca;" horiz-adv-x="446" d="M73 0 L406 0 L406 43 L120 43 L120 332 L375 332 L375 375 L120 375 L120 657 L402 657 L402 700 L73 700 L73 0 Z M136 752 L180 752 L239 811 L298 752 L344 752 L261 853 L219 853 L136 752 Z " />
<glyph glyph-name="Edieresis" unicode="&#xcb;" horiz-adv-x="446" d="M275 755 L333 755 L333 823 L275 823 L275 755 Z M146 755 L205 755 L205 823 L146 823 L146 755 Z M73 0 L406 0 L406 43 L120 43 L120 332 L375 332 L375 375 L120 375 L120 657 L402 657 L402 700 L73 700 L73 0 Z " />
<glyph glyph-name="Igrave" unicode="&#xcc;" horiz-adv-x="206" d="M80 0 L127 0 L127 700 L80 700 L80 0 Z M122 749 L49 858 L-2 834 L86 749 L122 749 Z " />
<glyph glyph-name="Iacute" unicode="&#xcd;" horiz-adv-x="206" d="M80 0 L127 0 L127 700 L80 700 L80 0 Z M85 749 L121 749 L209 834 L158 858 L85 749 Z " />
<glyph glyph-name="Icircumflex" unicode="&#xce;" horiz-adv-x="206" d="M80 0 L127 0 L127 700 L80 700 L80 0 Z M0 752 L44 752 L103 811 L162 752 L208 752 L125 853 L83 853 L0 752 Z " />
<glyph glyph-name="Idieresis" unicode="&#xcf;" horiz-adv-x="206" d="M80 0 L127 0 L127 700 L80 700 L80 0 Z M139 755 L197 755 L197 823 L139 823 L139 755 Z M10 755 L69 755 L69 823 L10 823 L10 755 Z " />
<glyph glyph-name="Eth" unicode="&#xd0;" horiz-adv-x="548" d="M87 0 L223 0 C384 0 499 130 499 344 L499 357 C499 571 384 700 223 700 L87 700 L87 373 L25 373 L25 331 L87 331 L87 0 Z M272 331 L272 373 L134 373 L134 657 L222 657 C358 657 451 543 451 356 L451 343 C451 156 360 43 223 43 L134 43 L134 331 L272 331 Z " />
<glyph glyph-name="Ntilde" unicode="&#xd1;" horiz-adv-x="550" d="M330 745 C360 745 380 771 395 818 L362 826 C351 800 342 788 325 788 C315 788 302 794 282 805 C261 818 245 826 224 826 C194 826 173 800 158 753 L192 745 C202 771 211 784 228 784 C239 784 252 777 271 766 C293 754 308 745 330 745 L330 745 Z M73 0 L118 0 L118 611 L436 0 L477 0 L477 700 L432 700 L432 103 L120 700 L73 700 L73 0 Z " />
<glyph glyph-name="Ograve" unicode="&#xd2;" horiz-adv-x="561" d="M300 755 L227 864 L176 840 L264 755 L300 755 Z M281 -9 C416 -9 512 126 512 344 L512 356 C512 574 416 709 281 709 C146 709 50 574 50 356 L50 344 C50 126 146 -9 281 -9 L281 -9 Z M281 35 C177 35 98 155 98 344 L98 356 C98 545 177 665 281 665 C385 665 464 545 464 356 L464 344 C464 155 385 35 281 35 L281 35 Z " />
<glyph glyph-name="Oacute" unicode="&#xd3;" horiz-adv-x="561" d="M261 755 L297 755 L385 840 L334 864 L261 755 Z M281 -9 C416 -9 512 126 512 344 L512 356 C512 574 416 709 281 709 C146 709 50 574 50 356 L50 344 C50 126 146 -9 281 -9 L281 -9 Z M281 35 C177 35 98 155 98 344 L98 356 C98 545 177 665 281 665 C385 665 464 545 464 356 L464 344 C464 155 385 35 281 35 L281 35 Z " />
<glyph glyph-name="Ocircumflex" unicode="&#xd4;" horiz-adv-x="561" d="M281 -9 C416 -9 512 126 512 344 L512 356 C512 574 416 709 281 709 C146 709 50 574 50 356 L50 344 C50 126 146 -9 281 -9 L281 -9 Z M281 35 C177 35 98 155 98 344 L98 356 C98 545 177 665 281 665 C385 665 464 545 464 356 L464 344 C464 155 385 35 281 35 L281 35 Z M176 758 L220 758 L279 817 L338 758 L384 758 L301 859 L259 859 L176 758 Z " />
<glyph glyph-name="Otilde" unicode="&#xd5;" horiz-adv-x="561" d="M336 756 C366 756 386 782 401 829 L368 837 C357 811 348 799 331 799 C321 799 308 805 288 816 C267 829 251 837 230 837 C200 837 179 811 164 764 L198 756 C208 782 217 795 234 795 C245 795 258 788 277 777 C299 765 314 756 336 756 L336 756 Z M281 -9 C416 -9 512 126 512 344 L512 356 C512 574 416 709 281 709 C146 709 50 574 50 356 L50 344 C50 126 146 -9 281 -9 L281 -9 Z M281 35 C177 35 98 155 98 344 L98 356 C98 545 177 665 281 665 C385 665 464 545 464 356 L464 344 C464 155 385 35 281 35 L281 35 Z " />
<glyph glyph-name="Odieresis" unicode="&#xd6;" horiz-adv-x="561" d="M316 761 L374 761 L374 829 L316 829 L316 761 Z M187 761 L246 761 L246 829 L187 829 L187 761 Z M281 -9 C416 -9 512 126 512 344 L512 356 C512 574 416 709 281 709 C146 709 50 574 50 356 L50 344 C50 126 146 -9 281 -9 L281 -9 Z M281 35 C177 35 98 155 98 344 L98 356 C98 545 177 665 281 665 C385 665 464 545 464 356 L464 344 C464 155 385 35 281 35 L281 35 Z " />
<glyph glyph-name="multiply" unicode="&#xd7;" horiz-adv-x="438" d="M341 191 L373 221 L247 352 L373 484 L342 513 L219 382 L97 513 L65 483 L191 352 L65 220 L96 191 L219 322 L341 191 Z " />
<glyph glyph-name="Oslash" unicode="&#xd8;" horiz-adv-x="561" d="M467 707 L426 641 C388 685 338 709 281 709 C145 709 50 572 50 355 L50 344 C50 242 70 157 107 97 L46 -7 L95 -7 L136 58 C174 15 223 -9 280 -9 C416 -9 512 128 512 345 L512 356 C512 458 490 543 454 603 L516 707 L467 707 Z M96 346 L96 356 C96 549 175 668 280 668 C329 668 372 643 404 598 L134 142 C110 194 96 264 96 346 L96 346 Z M281 32 C232 32 190 56 158 100 L427 558 C451 505 466 436 466 354 L466 344 C466 151 387 32 281 32 L281 32 Z " />
<glyph glyph-name="Ugrave" unicode="&#xd9;" horiz-adv-x="532" d="M286 744 L213 853 L162 829 L250 744 L286 744 Z M266 -10 C386 -10 466 75 466 221 L466 700 L419 700 L419 218 C419 97 360 33 267 33 C172 33 114 100 114 220 L114 700 L68 700 L68 219 C68 75 147 -10 266 -10 L266 -10 Z " />
<glyph glyph-name="Uacute" unicode="&#xda;" horiz-adv-x="532" d="M247 744 L283 744 L371 829 L320 853 L247 744 Z M266 -10 C386 -10 466 75 466 221 L466 700 L419 700 L419 218 C419 97 360 33 267 33 C172 33 114 100 114 220 L114 700 L68 700 L68 219 C68 75 147 -10 266 -10 L266 -10 Z " />
<glyph glyph-name="Ucircumflex" unicode="&#xdb;" horiz-adv-x="532" d="M266 -10 C386 -10 466 75 466 221 L466 700 L419 700 L419 218 C419 97 360 33 267 33 C172 33 114 100 114 220 L114 700 L68 700 L68 219 C68 75 147 -10 266 -10 L266 -10 Z M162 747 L206 747 L265 806 L324 747 L370 747 L287 848 L245 848 L162 747 Z " />
<glyph glyph-name="Udieresis" unicode="&#xdc;" horiz-adv-x="532" d="M301 750 L359 750 L359 818 L301 818 L301 750 Z M172 750 L231 750 L231 818 L172 818 L172 750 Z M266 -10 C386 -10 466 75 466 221 L466 700 L419 700 L419 218 C419 97 360 33 267 33 C172 33 114 100 114 220 L114 700 L68 700 L68 219 C68 75 147 -10 266 -10 L266 -10 Z " />
<glyph glyph-name="Yacute" unicode="&#xdd;" horiz-adv-x="479" d="M216 0 L263 0 L263 294 L463 700 L412 700 L240 343 L68 700 L16 700 L216 293 L216 0 Z M220 744 L256 744 L344 829 L293 853 L220 744 Z " />
<glyph glyph-name="Thorn" unicode="&#xde;" horiz-adv-x="472" d="M73 0 L120 0 L120 135 L211 135 C348 135 440 220 440 358 L440 360 C440 493 353 576 218 576 L121 576 L121 700 L73 700 L73 0 Z M120 177 L120 533 L216 533 C323 533 393 471 393 358 L393 356 C393 245 326 177 215 177 L120 177 Z " />
<glyph glyph-name="germandbls" unicode="&#xdf;" horiz-adv-x="438" d="M193 -2 C323 0 399 73 399 185 L399 190 C399 290 334 345 247 369 C316 397 371 461 371 554 L371 558 C371 654 309 718 224 718 C127 718 65 641 65 518 L65 0 L109 0 L109 521 C109 616 154 676 222 676 C281 676 326 632 326 555 L326 552 C326 479 285 411 193 380 L193 345 C297 329 354 276 354 187 L354 184 C354 97 299 41 193 36 L193 -2 Z " />
<glyph glyph-name="agrave" unicode="&#xe0;" horiz-adv-x="411" d="M177 -10 C241 -10 284 27 309 79 L309 0 L353 0 L353 362 C353 416 336 459 310 484 C281 513 242 527 195 527 C147 527 102 511 64 490 L80 452 C107 470 149 485 191 485 C266 485 309 440 309 358 L309 305 C278 316 243 325 197 325 C97 325 35 257 35 158 L35 152 C35 55 99 -10 177 -10 L177 -10 Z M182 30 C120 30 80 82 80 154 L80 160 C80 233 121 285 199 285 C242 285 277 276 309 263 L309 172 C309 96 256 30 182 30 L182 30 Z M192 582 L224 582 L153 709 L102 682 L192 582 Z " />
<glyph glyph-name="aacute" unicode="&#xe1;" horiz-adv-x="411" d="M177 -10 C241 -10 284 27 309 79 L309 0 L353 0 L353 362 C353 416 336 459 310 484 C281 513 242 527 195 527 C147 527 102 511 64 490 L80 452 C107 470 149 485 191 485 C266 485 309 440 309 358 L309 305 C278 316 243 325 197 325 C97 325 35 257 35 158 L35 152 C35 55 99 -10 177 -10 L177 -10 Z M182 30 C120 30 80 82 80 154 L80 160 C80 233 121 285 199 285 C242 285 277 276 309 263 L309 172 C309 96 256 30 182 30 L182 30 Z M187 582 L219 582 L309 682 L258 709 L187 582 Z " />
<glyph glyph-name="acircumflex" unicode="&#xe2;" horiz-adv-x="411" d="M177 -10 C241 -10 284 27 309 79 L309 0 L353 0 L353 362 C353 416 336 459 310 484 C281 513 242 527 195 527 C147 527 102 511 64 490 L80 452 C107 470 149 485 191 485 C266 485 309 440 309 358 L309 305 C278 316 243 325 197 325 C97 325 35 257 35 158 L35 152 C35 55 99 -10 177 -10 L177 -10 Z M182 30 C120 30 80 82 80 154 L80 160 C80 233 121 285 199 285 C242 285 277 276 309 263 L309 172 C309 96 256 30 182 30 L182 30 Z M111 585 L148 585 L204 658 L260 585 L299 585 L223 707 L187 707 L111 585 Z " />
<glyph glyph-name="atilde" unicode="&#xe3;" horiz-adv-x="411" d="M177 -10 C241 -10 284 27 309 79 L309 0 L353 0 L353 362 C353 416 336 459 310 484 C281 513 242 527 195 527 C147 527 102 511 64 490 L80 452 C107 470 149 485 191 485 C266 485 309 440 309 358 L309 305 C278 316 243 325 197 325 C97 325 35 257 35 158 L35 152 C35 55 99 -10 177 -10 L177 -10 Z M182 30 C120 30 80 82 80 154 L80 160 C80 233 121 285 199 285 C242 285 277 276 309 263 L309 172 C309 96 256 30 182 30 L182 30 Z M257 583 C286 583 305 607 320 663 L288 671 C278 640 269 625 254 625 C243 625 231 632 212 647 C192 663 178 672 157 672 C128 672 109 647 94 591 L126 583 C136 615 145 630 160 630 C171 630 183 623 202 607 C222 592 236 583 257 583 L257 583 Z " />
<glyph glyph-name="adieresis" unicode="&#xe4;" horiz-adv-x="411" d="M177 -10 C241 -10 284 27 309 79 L309 0 L353 0 L353 362 C353 416 336 459 310 484 C281 513 242 527 195 527 C147 527 102 511 64 490 L80 452 C107 470 149 485 191 485 C266 485 309 440 309 358 L309 305 C278 316 243 325 197 325 C97 325 35 257 35 158 L35 152 C35 55 99 -10 177 -10 L177 -10 Z M182 30 C120 30 80 82 80 154 L80 160 C80 233 121 285 199 285 C242 285 277 276 309 263 L309 172 C309 96 256 30 182 30 L182 30 Z M238 589 L290 589 L290 659 L238 659 L238 589 Z M120 589 L172 589 L172 659 L120 659 L120 589 Z " />
<glyph glyph-name="aring" unicode="&#xe5;" horiz-adv-x="411" d="M177 -10 C241 -10 284 27 309 79 L309 0 L353 0 L353 362 C353 416 336 459 310 484 C281 513 242 527 195 527 C147 527 102 511 64 490 L80 452 C107 470 149 485 191 485 C266 485 309 440 309 358 L309 305 C278 316 243 325 197 325 C97 325 35 257 35 158 L35 152 C35 55 99 -10 177 -10 L177 -10 Z M182 30 C120 30 80 82 80 154 L80 160 C80 233 121 285 199 285 C242 285 277 276 309 263 L309 172 C309 96 256 30 182 30 L182 30 Z M204 582 C253 582 291 620 291 667 C291 714 254 752 206 752 C157 752 119 714 119 667 C119 620 156 582 204 582 L204 582 Z M205 609 C173 609 149 634 149 667 C149 699 173 725 205 725 C237 725 261 699 261 667 C261 634 237 609 205 609 L205 609 Z " />
<glyph glyph-name="ae" unicode="&#xe6;" horiz-adv-x="677" d="M176 -10 C252 -10 302 47 331 109 C364 32 423 -9 494 -9 C550 -9 584 8 629 42 L606 76 C575 48 541 32 496 32 C417 32 349 104 345 242 L638 242 L638 270 C638 430 570 530 473 530 C415 530 365 492 335 427 C317 493 266 527 189 527 C145 527 104 515 64 496 L79 456 C113 475 147 485 187 485 C264 485 305 440 305 358 L305 305 C274 316 241 325 196 325 C96 325 35 257 35 158 L35 152 C35 55 98 -10 176 -10 L176 -10 Z M345 281 C351 413 404 489 472 489 C546 489 592 397 594 281 L345 281 Z M181 30 C119 30 80 82 80 154 L80 160 C80 233 120 285 196 285 C236 285 269 276 303 265 C303 238 306 191 315 154 C292 91 246 30 181 30 L181 30 Z " />
<glyph glyph-name="ccedilla" unicode="&#xe7;" horiz-adv-x="365" d="M181 -121 L227 -9 C279 -8 317 17 339 41 L313 72 C289 49 262 33 227 32 C159 31 85 101 85 253 L85 262 C85 407 154 489 226 489 C264 489 293 469 314 450 L338 485 C311 510 275 530 229 530 C128 530 40 437 40 263 L40 253 C40 100 103 13 190 -5 L132 -100 L181 -121 Z " />
<glyph glyph-name="egrave" unicode="&#xe8;" horiz-adv-x="416" d="M234 -9 C288 -9 329 9 368 42 L345 76 C314 48 280 32 238 32 C157 32 88 105 84 242 L377 242 L377 270 C377 431 312 530 212 530 C118 530 40 431 40 260 L40 253 C40 83 127 -9 234 -9 L234 -9 Z M84 281 C90 412 144 489 212 489 C286 489 331 396 333 281 L84 281 Z M199 582 L231 582 L160 709 L109 682 L199 582 Z " />
<glyph glyph-name="eacute" unicode="&#xe9;" horiz-adv-x="416" d="M234 -9 C288 -9 329 9 368 42 L345 76 C314 48 280 32 238 32 C157 32 88 105 84 242 L377 242 L377 270 C377 431 312 530 212 530 C118 530 40 431 40 260 L40 253 C40 83 127 -9 234 -9 L234 -9 Z M84 281 C90 412 144 489 212 489 C286 489 331 396 333 281 L84 281 Z M193 582 L225 582 L315 682 L264 709 L193 582 Z " />
<glyph glyph-name="ecircumflex" unicode="&#xea;" horiz-adv-x="416" d="M234 -9 C288 -9 329 9 368 42 L345 76 C314 48 280 32 238 32 C157 32 88 105 84 242 L377 242 L377 270 C377 431 312 530 212 530 C118 530 40 431 40 260 L40 253 C40 83 127 -9 234 -9 L234 -9 Z M84 281 C90 412 144 489 212 489 C286 489 331 396 333 281 L84 281 Z M118 585 L155 585 L211 658 L267 585 L306 585 L230 707 L194 707 L118 585 Z " />
<glyph glyph-name="edieresis" unicode="&#xeb;" horiz-adv-x="416" d="M234 -9 C288 -9 329 9 368 42 L345 76 C314 48 280 32 238 32 C157 32 88 105 84 242 L377 242 L377 270 C377 431 312 530 212 530 C118 530 40 431 40 260 L40 253 C40 83 127 -9 234 -9 L234 -9 Z M84 281 C90 412 144 489 212 489 C286 489 331 396 333 281 L84 281 Z M245 589 L297 589 L297 659 L245 659 L245 589 Z M127 589 L179 589 L179 659 L127 659 L127 589 Z " />
<glyph glyph-name="igrave" unicode="&#xec;" horiz-adv-x="186" d="M71 0 L115 0 L115 521 L71 521 L71 0 Z M80 582 L112 582 L41 709 L-10 682 L80 582 Z " />
<glyph glyph-name="iacute" unicode="&#xed;" horiz-adv-x="186" d="M75 582 L107 582 L197 682 L146 709 L75 582 Z M71 0 L115 0 L115 521 L71 521 L71 0 Z " />
<glyph glyph-name="icircumflex" unicode="&#xee;" horiz-adv-x="186" d="M-1 585 L36 585 L92 658 L148 585 L187 585 L111 707 L75 707 L-1 585 Z M71 0 L115 0 L115 521 L71 521 L71 0 Z " />
<glyph glyph-name="idieresis" unicode="&#xef;" horiz-adv-x="186" d="M126 589 L178 589 L178 659 L126 659 L126 589 Z M8 589 L60 589 L60 659 L8 659 L8 589 Z M71 0 L115 0 L115 521 L71 521 L71 0 Z " />
<glyph glyph-name="eth" unicode="&#xf0;" horiz-adv-x="442" d="M339 684 L319 716 L243 672 C231 686 219 700 206 714 L147 714 C168 693 189 672 207 651 L129 606 L149 574 L232 622 C276 567 309 513 328 463 C297 501 260 526 212 526 C124 526 40 426 40 264 L40 257 C40 96 123 -9 219 -9 C319 -9 401 90 401 272 L401 283 C401 414 349 533 266 642 L339 684 Z M221 32 C146 32 85 124 85 256 L85 263 C85 396 143 486 216 486 C291 486 356 405 356 264 L356 257 C356 120 295 32 221 32 L221 32 Z " />
<glyph glyph-name="ntilde" unicode="&#xf1;" horiz-adv-x="442" d="M65 0 L109 0 L109 338 C109 429 162 491 231 491 C300 491 339 443 339 340 L339 0 L383 0 L383 356 C383 471 325 530 241 530 C172 530 131 487 109 438 L109 521 L65 521 L65 0 Z M276 583 C305 583 324 607 339 663 L307 671 C297 640 288 625 273 625 C262 625 250 632 231 647 C211 663 197 672 176 672 C147 672 128 647 113 591 L145 583 C155 615 164 630 179 630 C190 630 202 623 221 607 C241 592 255 583 276 583 L276 583 Z " />
<glyph glyph-name="ograve" unicode="&#xf2;" horiz-adv-x="443" d="M221 -9 C326 -9 403 101 403 257 L403 264 C403 421 327 530 222 530 C117 530 40 420 40 264 L40 257 C40 100 116 -9 221 -9 L221 -9 Z M222 32 C147 32 85 123 85 257 L85 264 C85 397 146 489 221 489 C295 489 358 397 358 264 L358 257 C358 124 297 32 222 32 L222 32 Z M208 582 L240 582 L169 709 L118 682 L208 582 Z " />
<glyph glyph-name="oacute" unicode="&#xf3;" horiz-adv-x="443" d="M202 582 L234 582 L324 682 L273 709 L202 582 Z M221 -9 C326 -9 403 101 403 257 L403 264 C403 421 327 530 222 530 C117 530 40 420 40 264 L40 257 C40 100 116 -9 221 -9 L221 -9 Z M222 32 C147 32 85 123 85 257 L85 264 C85 397 146 489 221 489 C295 489 358 397 358 264 L358 257 C358 124 297 32 222 32 L222 32 Z " />
<glyph glyph-name="ocircumflex" unicode="&#xf4;" horiz-adv-x="443" d="M128 585 L165 585 L221 658 L277 585 L316 585 L240 707 L204 707 L128 585 Z M221 -9 C326 -9 403 101 403 257 L403 264 C403 421 327 530 222 530 C117 530 40 420 40 264 L40 257 C40 100 116 -9 221 -9 L221 -9 Z M222 32 C147 32 85 123 85 257 L85 264 C85 397 146 489 221 489 C295 489 358 397 358 264 L358 257 C358 124 297 32 222 32 L222 32 Z " />
<glyph glyph-name="otilde" unicode="&#xf5;" horiz-adv-x="443" d="M221 -9 C326 -9 403 101 403 257 L403 264 C403 421 327 530 222 530 C117 530 40 420 40 264 L40 257 C40 100 116 -9 221 -9 L221 -9 Z M222 32 C147 32 85 123 85 257 L85 264 C85 397 146 489 221 489 C295 489 358 397 358 264 L358 257 C358 124 297 32 222 32 L222 32 Z M274 583 C303 583 322 607 337 663 L305 671 C295 640 286 625 271 625 C260 625 248 632 229 647 C209 663 195 672 174 672 C145 672 126 647 111 591 L143 583 C153 615 162 630 177 630 C188 630 200 623 219 607 C239 592 253 583 274 583 L274 583 Z " />
<glyph glyph-name="odieresis" unicode="&#xf6;" horiz-adv-x="443" d="M255 589 L307 589 L307 659 L255 659 L255 589 Z M137 589 L189 589 L189 659 L137 659 L137 589 Z M221 -9 C326 -9 403 101 403 257 L403 264 C403 421 327 530 222 530 C117 530 40 420 40 264 L40 257 C40 100 116 -9 221 -9 L221 -9 Z M222 32 C147 32 85 123 85 257 L85 264 C85 397 146 489 221 489 C295 489 358 397 358 264 L358 257 C358 124 297 32 222 32 L222 32 Z " />
<glyph glyph-name="divide" unicode="&#xf7;" horiz-adv-x="438" d="M187 464 L251 464 L251 541 L187 541 L187 464 Z M395 329 L395 375 L43 375 L43 329 L395 329 Z M187 163 L251 163 L251 240 L187 240 L187 163 Z " />
<glyph glyph-name="oslash" unicode="&#xf8;" horiz-adv-x="443" d="M360 526 L330 480 C300 512 263 530 222 530 C122 530 40 422 40 264 L40 257 C40 182 58 119 87 73 L38 -5 L83 -5 L112 41 C142 9 180 -9 221 -9 C321 -9 403 99 403 257 L403 264 C403 338 385 402 356 448 L405 526 L360 526 Z M222 31 C188 31 156 47 132 79 L331 407 C348 370 359 322 359 263 L359 257 C359 123 299 31 222 31 L222 31 Z M84 258 L84 264 C84 397 144 490 221 490 C254 490 286 473 311 441 L112 114 C94 150 84 199 84 258 L84 258 Z " />
<glyph glyph-name="ugrave" unicode="&#xf9;" horiz-adv-x="442" d="M201 -9 C270 -9 311 34 333 83 L333 0 L377 0 L377 521 L333 521 L333 183 C333 92 280 30 211 30 C142 30 103 78 103 181 L103 521 L59 521 L59 165 C59 50 117 -9 201 -9 L201 -9 Z M205 579 L237 579 L166 706 L115 679 L205 579 Z " />
<glyph glyph-name="uacute" unicode="&#xfa;" horiz-adv-x="442" d="M199 579 L231 579 L321 679 L270 706 L199 579 Z M201 -9 C270 -9 311 34 333 83 L333 0 L377 0 L377 521 L333 521 L333 183 C333 92 280 30 211 30 C142 30 103 78 103 181 L103 521 L59 521 L59 165 C59 50 117 -9 201 -9 L201 -9 Z " />
<glyph glyph-name="ucircumflex" unicode="&#xfb;" horiz-adv-x="442" d="M124 582 L161 582 L217 655 L273 582 L312 582 L236 704 L200 704 L124 582 Z M201 -9 C270 -9 311 34 333 83 L333 0 L377 0 L377 521 L333 521 L333 183 C333 92 280 30 211 30 C142 30 103 78 103 181 L103 521 L59 521 L59 165 C59 50 117 -9 201 -9 L201 -9 Z " />
<glyph glyph-name="udieresis" unicode="&#xfc;" horiz-adv-x="442" d="M251 586 L303 586 L303 656 L251 656 L251 586 Z M133 586 L185 586 L185 656 L133 656 L133 586 Z M201 -9 C270 -9 311 34 333 83 L333 0 L377 0 L377 521 L333 521 L333 183 C333 92 280 30 211 30 C142 30 103 78 103 181 L103 521 L59 521 L59 165 C59 50 117 -9 201 -9 L201 -9 Z " />
<glyph glyph-name="yacute" unicode="&#xfd;" horiz-adv-x="416" d="M214 64 L77 521 L30 521 L193 -4 C167 -78 145 -99 109 -99 C90 -99 69 -91 56 -81 L41 -122 C64 -137 91 -142 109 -142 C166 -142 205 -109 236 0 L385 521 L338 521 L214 64 Z M191 579 L223 579 L313 679 L262 706 L191 579 Z " />
<glyph glyph-name="thorn" unicode="&#xfe;" horiz-adv-x="458" d="M65 -139 L109 -139 L109 104 C136 42 180 -9 248 -9 C334 -9 417 87 417 254 L417 268 C417 436 334 530 248 530 C181 530 136 478 109 416 L109 714 L65 714 L65 -139 Z M243 31 C174 31 106 113 106 251 L106 269 C106 407 174 490 243 490 C312 490 372 407 372 266 L372 254 C372 112 313 31 243 31 L243 31 Z " />
<glyph glyph-name="ydieresis" unicode="&#xff;" horiz-adv-x="416" d="M214 64 L77 521 L30 521 L193 -4 C167 -78 145 -99 109 -99 C90 -99 69 -91 56 -81 L41 -122 C64 -137 91 -142 109 -142 C166 -142 205 -109 236 0 L385 521 L338 521 L214 64 Z M242 586 L294 586 L294 656 L242 656 L242 586 Z M124 586 L176 586 L176 656 L124 656 L124 586 Z " />
<glyph glyph-name="Amacron" unicode="&#x100;" horiz-adv-x="543" d="M34 0 L81 0 L139 196 L402 196 L460 0 L509 0 L296 704 L247 704 L34 0 Z M152 239 L271 639 L389 239 L152 239 Z M154 772 L388 772 L388 815 L154 815 L154 772 Z " />
<glyph glyph-name="amacron" unicode="&#x101;" horiz-adv-x="411" d="M177 -10 C241 -10 284 27 309 79 L309 0 L353 0 L353 362 C353 416 336 459 310 484 C281 513 242 527 195 527 C147 527 102 511 64 490 L80 452 C107 470 149 485 191 485 C266 485 309 440 309 358 L309 305 C278 316 243 325 197 325 C97 325 35 257 35 158 L35 152 C35 55 99 -10 177 -10 L177 -10 Z M182 30 C120 30 80 82 80 154 L80 160 C80 233 121 285 199 285 C242 285 277 276 309 263 L309 172 C309 96 256 30 182 30 L182 30 Z M98 598 L312 598 L312 639 L98 639 L98 598 Z " />
<glyph glyph-name="Abreve" unicode="&#x102;" horiz-adv-x="543" d="M34 0 L81 0 L139 196 L402 196 L460 0 L509 0 L296 704 L247 704 L34 0 Z M152 239 L271 639 L389 239 L152 239 Z M271 756 C329 756 372 786 379 842 L339 842 C330 814 308 799 271 799 C234 799 212 814 203 842 L163 842 C170 786 213 756 271 756 L271 756 Z " />
<glyph glyph-name="abreve" unicode="&#x103;" horiz-adv-x="411" d="M177 -10 C241 -10 284 27 309 79 L309 0 L353 0 L353 362 C353 416 336 459 310 484 C281 513 242 527 195 527 C147 527 102 511 64 490 L80 452 C107 470 149 485 191 485 C266 485 309 440 309 358 L309 305 C278 316 243 325 197 325 C97 325 35 257 35 158 L35 152 C35 55 99 -10 177 -10 L177 -10 Z M182 30 C120 30 80 82 80 154 L80 160 C80 233 121 285 199 285 C242 285 277 276 309 263 L309 172 C309 96 256 30 182 30 L182 30 Z M205 583 C262 583 304 616 310 682 L273 682 C264 645 243 625 205 625 C167 625 146 645 137 682 L100 682 C106 616 148 583 205 583 L205 583 Z " />
<glyph glyph-name="Aogonek" unicode="&#x104;" horiz-adv-x="543" d="M513 -99 C476 -97 461 -88 461 -66 C461 -47 472 -29 497 0 L509 0 L296 704 L247 704 L34 0 L81 0 L139 196 L402 196 L460 0 L461 0 C434 -27 419 -50 419 -76 C419 -109 443 -132 499 -133 C503 -133 505 -133 513 -132 L513 -99 Z M152 239 L271 639 L389 239 L152 239 Z " />
<glyph glyph-name="aogonek" unicode="&#x105;" horiz-adv-x="411" d="M361 -99 C324 -97 309 -88 309 -66 C309 -47 320 -29 345 0 L353 0 L353 362 C353 416 336 459 310 484 C281 513 242 527 195 527 C147 527 102 511 64 490 L80 452 C107 470 149 485 191 485 C266 485 309 440 309 358 L309 305 C278 316 243 325 197 325 C97 325 35 257 35 158 L35 152 C35 55 99 -10 177 -10 C241 -10 284 27 309 79 L309 0 C282 -27 267 -50 267 -76 C267 -109 291 -132 347 -133 C351 -133 353 -133 361 -132 L361 -99 Z M182 30 C120 30 80 82 80 154 L80 160 C80 233 121 285 199 285 C242 285 277 276 309 263 L309 172 C309 96 256 30 182 30 L182 30 Z " />
<glyph glyph-name="Cacute" unicode="&#x106;" horiz-adv-x="472" d="M293 -7 C354 -7 404 19 441 53 L415 88 C382 58 341 37 296 37 C184 37 97 156 97 347 L97 354 C97 542 186 663 297 663 C342 663 381 644 412 616 L438 653 C403 684 358 707 299 707 C162 707 50 579 50 354 L50 345 C50 117 157 -7 293 -7 L293 -7 Z M260 755 L296 755 L384 840 L333 864 L260 755 Z " />
<glyph glyph-name="cacute" unicode="&#x107;" horiz-adv-x="365" d="M197 582 L229 582 L319 682 L268 709 L197 582 Z M226 -9 C279 -9 317 17 339 41 L313 72 C289 49 262 33 227 32 C159 31 85 101 85 253 L85 262 C85 407 154 489 226 489 C264 489 293 469 314 450 L338 485 C311 510 275 530 229 530 C128 530 40 437 40 263 L40 253 C40 80 121 -9 226 -9 L226 -9 Z " />
<glyph glyph-name="Cdotaccent" unicode="&#x10a;" horiz-adv-x="472" d="M249 761 L309 761 L309 829 L249 829 L249 761 Z M293 -7 C354 -7 404 19 441 53 L415 88 C382 58 341 37 296 37 C184 37 97 156 97 347 L97 354 C97 542 186 663 297 663 C342 663 381 644 412 616 L438 653 C403 684 358 707 299 707 C162 707 50 579 50 354 L50 345 C50 117 157 -7 293 -7 L293 -7 Z " />
<glyph glyph-name="cdotaccent" unicode="&#x10b;" horiz-adv-x="365" d="M226 -9 C279 -9 317 17 339 41 L313 72 C289 49 262 33 227 32 C159 31 85 101 85 253 L85 262 C85 407 154 489 226 489 C264 489 293 469 314 450 L338 485 C311 510 275 530 229 530 C128 530 40 437 40 263 L40 253 C40 80 121 -9 226 -9 L226 -9 Z M189 589 L245 589 L245 660 L189 660 L189 589 Z " />
<glyph glyph-name="Ccaron" unicode="&#x10c;" horiz-adv-x="472" d="M293 -7 C354 -7 404 19 441 53 L415 88 C382 58 341 37 296 37 C184 37 97 156 97 347 L97 354 C97 542 186 663 297 663 C342 663 381 644 412 616 L438 653 C403 684 358 707 299 707 C162 707 50 579 50 354 L50 345 C50 117 157 -7 293 -7 L293 -7 Z M383 859 L339 859 L280 799 L221 859 L175 859 L258 758 L300 758 L383 859 Z " />
<glyph glyph-name="ccaron" unicode="&#x10d;" horiz-adv-x="365" d="M311 707 L274 707 L218 634 L162 707 L123 707 L199 585 L235 585 L311 707 Z M226 -9 C279 -9 317 17 339 41 L313 72 C289 49 262 33 227 32 C159 31 85 101 85 253 L85 262 C85 407 154 489 226 489 C264 489 293 469 314 450 L338 485 C311 510 275 530 229 530 C128 530 40 437 40 263 L40 253 C40 80 121 -9 226 -9 L226 -9 Z " />
<glyph glyph-name="Dcaron" unicode="&#x10e;" horiz-adv-x="534" d="M73 0 L208 0 C370 0 484 130 484 344 L484 357 C484 571 370 700 208 700 L73 700 L73 0 Z M204 657 C342 657 437 543 437 356 L437 343 C437 156 343 43 205 43 L120 43 L120 657 L204 657 Z M360 853 L316 853 L257 793 L198 853 L152 853 L235 752 L277 752 L360 853 Z " />
<glyph glyph-name="dcaron" unicode="&#x10f;" horiz-adv-x="458" d="M438 566 L460 566 L492 712 L492 715 L448 715 L438 566 Z M207 -9 C278 -9 323 43 350 105 L350 0 L394 0 L394 714 L350 714 L350 417 C323 479 279 530 207 530 C122 530 42 440 42 267 L42 253 C42 79 122 -9 207 -9 L207 -9 Z M212 31 C144 31 87 108 87 255 L87 267 C87 415 143 490 212 490 C285 490 353 408 353 270 L353 252 C353 114 285 31 212 31 L212 31 Z " />
<glyph glyph-name="Dcroat" unicode="&#x110;" horiz-adv-x="548" d="M87 0 L223 0 C384 0 499 130 499 344 L499 357 C499 571 384 700 223 700 L87 700 L87 373 L25 373 L25 331 L87 331 L87 0 Z M272 331 L272 373 L134 373 L134 657 L222 657 C358 657 451 543 451 356 L451 343 C451 156 360 43 223 43 L134 43 L134 331 L272 331 Z " />
<glyph glyph-name="dcroat" unicode="&#x111;" horiz-adv-x="458" d="M221 605 L350 605 L350 417 C323 478 278 530 211 530 C124 530 42 434 42 267 L42 253 C42 85 124 -9 211 -9 C278 -9 322 43 350 105 L350 0 L394 0 L394 605 L448 605 L448 643 L394 643 L394 714 L350 714 L350 643 L221 643 L221 605 Z M216 31 C146 31 87 113 87 254 L87 267 C87 409 145 490 216 490 C284 490 352 408 352 269 L352 251 C352 113 284 31 216 31 L216 31 Z " />
<glyph glyph-name="Emacron" unicode="&#x112;" horiz-adv-x="446" d="M123 766 L357 766 L357 809 L123 809 L123 766 Z M73 0 L406 0 L406 43 L120 43 L120 332 L375 332 L375 375 L120 375 L120 657 L402 657 L402 700 L73 700 L73 0 Z " />
<glyph glyph-name="emacron" unicode="&#x113;" horiz-adv-x="416" d="M234 -9 C288 -9 329 9 368 42 L345 76 C314 48 280 32 238 32 C157 32 88 105 84 242 L377 242 L377 270 C377 431 312 530 212 530 C118 530 40 431 40 260 L40 253 C40 83 127 -9 234 -9 L234 -9 Z M84 281 C90 412 144 489 212 489 C286 489 331 396 333 281 L84 281 Z M105 598 L319 598 L319 639 L105 639 L105 598 Z " />
<glyph glyph-name="Ebreve" unicode="&#x114;" horiz-adv-x="446" d="M240 750 C298 750 341 780 348 836 L308 836 C299 808 277 793 240 793 C203 793 181 808 172 836 L132 836 C139 780 182 750 240 750 L240 750 Z M73 0 L406 0 L406 43 L120 43 L120 332 L375 332 L375 375 L120 375 L120 657 L402 657 L402 700 L73 700 L73 0 Z " />
<glyph glyph-name="ebreve" unicode="&#x115;" horiz-adv-x="416" d="M234 -9 C288 -9 329 9 368 42 L345 76 C314 48 280 32 238 32 C157 32 88 105 84 242 L377 242 L377 270 C377 431 312 530 212 530 C118 530 40 431 40 260 L40 253 C40 83 127 -9 234 -9 L234 -9 Z M84 281 C90 412 144 489 212 489 C286 489 331 396 333 281 L84 281 Z M212 583 C269 583 311 616 317 682 L280 682 C271 645 250 625 212 625 C174 625 153 645 144 682 L107 682 C113 616 155 583 212 583 L212 583 Z " />
<glyph glyph-name="Edotaccent" unicode="&#x116;" horiz-adv-x="446" d="M210 755 L270 755 L270 823 L210 823 L210 755 Z M73 0 L406 0 L406 43 L120 43 L120 332 L375 332 L375 375 L120 375 L120 657 L402 657 L402 700 L73 700 L73 0 Z " />
<glyph glyph-name="edotaccent" unicode="&#x117;" horiz-adv-x="416" d="M234 -9 C288 -9 329 9 368 42 L345 76 C314 48 280 32 238 32 C157 32 88 105 84 242 L377 242 L377 270 C377 431 312 530 212 530 C118 530 40 431 40 260 L40 253 C40 83 127 -9 234 -9 L234 -9 Z M84 281 C90 412 144 489 212 489 C286 489 331 396 333 281 L84 281 Z M184 589 L240 589 L240 660 L184 660 L184 589 Z " />
<glyph glyph-name="Eogonek" unicode="&#x118;" horiz-adv-x="446" d="M73 0 L352 0 C325 -27 310 -50 310 -76 C310 -109 334 -132 390 -133 C394 -133 396 -133 404 -132 L404 -99 C367 -97 352 -88 352 -66 C352 -47 363 -29 388 0 L406 0 L406 43 L120 43 L120 332 L375 332 L375 375 L120 375 L120 657 L402 657 L402 700 L73 700 L73 0 Z " />
<glyph glyph-name="eogonek" unicode="&#x119;" horiz-adv-x="416" d="M345 76 C314 48 280 32 238 32 C157 32 88 105 84 242 L377 242 L377 270 C377 431 312 530 212 530 C118 530 40 431 40 260 L40 253 C40 83 127 -9 234 -9 C253 -9 270 -7 288 -2 C261 -29 247 -51 247 -76 C247 -109 271 -132 327 -133 C331 -133 333 -133 341 -132 L341 -99 C304 -97 289 -88 289 -66 C289 -34 335 10 338 13 L368 42 L345 76 Z M84 281 C90 412 144 489 212 489 C286 489 331 396 333 281 L84 281 Z " />
<glyph glyph-name="Ecaron" unicode="&#x11a;" horiz-adv-x="446" d="M344 853 L300 853 L241 793 L182 853 L136 853 L219 752 L261 752 L344 853 Z M73 0 L406 0 L406 43 L120 43 L120 332 L375 332 L375 375 L120 375 L120 657 L402 657 L402 700 L73 700 L73 0 Z " />
<glyph glyph-name="ecaron" unicode="&#x11b;" horiz-adv-x="416" d="M234 -9 C288 -9 329 9 368 42 L345 76 C314 48 280 32 238 32 C157 32 88 105 84 242 L377 242 L377 270 C377 431 312 530 212 530 C118 530 40 431 40 260 L40 253 C40 83 127 -9 234 -9 L234 -9 Z M84 281 C90 412 144 489 212 489 C286 489 331 396 333 281 L84 281 Z M306 707 L269 707 L213 634 L157 707 L118 707 L194 585 L230 585 L306 707 Z " />
<glyph glyph-name="Gbreve" unicode="&#x11e;" horiz-adv-x="530" d="M289 756 C347 756 390 786 397 842 L357 842 C348 814 326 799 289 799 C252 799 230 814 221 842 L181 842 C188 786 231 756 289 756 L289 756 Z M310 -7 C372 -7 429 17 466 45 L466 360 L272 360 L272 317 L421 317 L421 68 C392 49 355 36 313 36 C185 36 97 151 97 347 L97 354 C97 547 192 663 309 663 C359 663 400 646 433 616 L460 656 C414 692 370 707 309 707 C160 707 50 571 50 355 L50 344 C50 125 151 -7 310 -7 L310 -7 Z " />
<glyph glyph-name="gbreve" unicode="&#x11f;" horiz-adv-x="458" d="M213 -141 C271 -141 317 -125 349 -93 C378 -64 394 -22 394 34 L394 521 L350 521 L350 419 C323 479 277 530 208 530 C121 530 42 442 42 284 L42 277 C42 117 121 31 207 31 C277 31 322 82 350 143 L350 33 C350 -56 299 -100 215 -100 C169 -100 117 -85 77 -62 L60 -101 C112 -128 163 -141 213 -141 L213 -141 Z M213 71 C144 71 87 144 87 278 L87 283 C87 418 144 490 213 490 C282 490 352 413 352 284 L352 277 C352 148 282 71 213 71 L213 71 Z M234 583 C291 583 333 616 339 682 L302 682 C293 645 272 625 234 625 C196 625 175 645 166 682 L129 682 C135 616 177 583 234 583 L234 583 Z " />
<glyph glyph-name="Gdotaccent" unicode="&#x120;" horiz-adv-x="530" d="M259 761 L319 761 L319 829 L259 829 L259 761 Z M310 -7 C372 -7 429 17 466 45 L466 360 L272 360 L272 317 L421 317 L421 68 C392 49 355 36 313 36 C185 36 97 151 97 347 L97 354 C97 547 192 663 309 663 C359 663 400 646 433 616 L460 656 C414 692 370 707 309 707 C160 707 50 571 50 355 L50 344 C50 125 151 -7 310 -7 L310 -7 Z " />
<glyph glyph-name="gdotaccent" unicode="&#x121;" horiz-adv-x="458" d="M213 -141 C271 -141 317 -125 349 -93 C378 -64 394 -22 394 34 L394 521 L350 521 L350 419 C323 479 277 530 208 530 C121 530 42 442 42 284 L42 277 C42 117 121 31 207 31 C277 31 322 82 350 143 L350 33 C350 -56 299 -100 215 -100 C169 -100 117 -85 77 -62 L60 -101 C112 -128 163 -141 213 -141 L213 -141 Z M213 71 C144 71 87 144 87 278 L87 283 C87 418 144 490 213 490 C282 490 352 413 352 284 L352 277 C352 148 282 71 213 71 L213 71 Z M206 589 L262 589 L262 660 L206 660 L206 589 Z " />
<glyph glyph-name="Gcommaaccent" unicode="&#x122;" horiz-adv-x="530" d="M258 -200 C299 -185 316 -163 316 -121 L316 -65 L260 -65 L260 -127 L284 -127 C286 -154 276 -169 248 -180 L258 -200 Z M310 -7 C372 -7 429 17 466 45 L466 360 L272 360 L272 317 L421 317 L421 68 C392 49 355 36 313 36 C185 36 97 151 97 347 L97 354 C97 547 192 663 309 663 C359 663 400 646 433 616 L460 656 C414 692 370 707 309 707 C160 707 50 571 50 355 L50 344 C50 125 151 -7 310 -7 L310 -7 Z " />
<glyph glyph-name="gcommaaccent" unicode="&#x123;" horiz-adv-x="458" d="M262 733 C221 718 204 696 204 654 L204 598 L260 598 L260 660 L236 660 C234 687 244 702 272 713 L262 733 Z M213 -141 C271 -141 317 -125 349 -93 C378 -64 394 -22 394 34 L394 521 L350 521 L350 419 C323 479 277 530 208 530 C121 530 42 442 42 284 L42 277 C42 117 121 31 207 31 C277 31 322 82 350 143 L350 33 C350 -56 299 -100 215 -100 C169 -100 117 -85 77 -62 L60 -101 C112 -128 163 -141 213 -141 L213 -141 Z M213 71 C144 71 87 144 87 278 L87 283 C87 418 144 490 213 490 C282 490 352 413 352 284 L352 277 C352 148 282 71 213 71 L213 71 Z " />
<glyph glyph-name="Hbar" unicode="&#x126;" horiz-adv-x="565" d="M25 539 L87 539 L87 0 L134 0 L134 329 L431 329 L431 0 L478 0 L478 539 L540 539 L540 579 L478 579 L478 700 L431 700 L431 579 L134 579 L134 700 L87 700 L87 579 L25 579 L25 539 Z M134 372 L134 540 L431 540 L431 372 L134 372 Z " />
<glyph glyph-name="hbar" unicode="&#x127;" horiz-adv-x="442" d="M238 605 L238 643 L109 643 L109 714 L65 714 L65 643 L10 643 L10 605 L65 605 L65 0 L109 0 L109 338 C109 429 162 491 231 491 C300 491 339 438 339 346 L339 0 L383 0 L383 351 C383 462 326 530 239 530 C171 530 131 487 109 438 L109 605 L238 605 Z " />
<glyph glyph-name="Imacron" unicode="&#x12a;" horiz-adv-x="206" d="M80 0 L127 0 L127 700 L80 700 L80 0 Z M-13 766 L221 766 L221 809 L-13 809 L-13 766 Z " />
<glyph glyph-name="imacron" unicode="&#x12b;" horiz-adv-x="186" d="M71 0 L115 0 L115 521 L71 521 L71 0 Z M-14 598 L200 598 L200 639 L-14 639 L-14 598 Z " />
<glyph glyph-name="Ibreve" unicode="&#x12c;" horiz-adv-x="206" d="M80 0 L127 0 L127 700 L80 700 L80 0 Z M104 750 C162 750 205 780 212 836 L172 836 C163 808 141 793 104 793 C67 793 45 808 36 836 L-4 836 C3 780 46 750 104 750 L104 750 Z " />
<glyph glyph-name="ibreve" unicode="&#x12d;" horiz-adv-x="186" d="M71 0 L115 0 L115 521 L71 521 L71 0 Z M93 583 C150 583 192 616 198 682 L161 682 C152 645 131 625 93 625 C55 625 34 645 25 682 L-12 682 C-6 616 36 583 93 583 L93 583 Z " />
<glyph glyph-name="Iogonek" unicode="&#x12e;" horiz-adv-x="206" d="M80 0 L84 0 C57 -27 42 -50 42 -76 C42 -109 66 -132 122 -133 C126 -133 128 -133 136 -132 L136 -99 C99 -97 84 -88 84 -66 C84 -47 95 -29 120 0 L127 0 L127 700 L80 700 L80 0 Z " />
<glyph glyph-name="iogonek" unicode="&#x12f;" horiz-adv-x="186" d="M71 0 L74 0 C47 -27 32 -50 32 -76 C32 -109 56 -132 112 -133 C116 -133 118 -133 126 -132 L126 -99 C89 -97 74 -88 74 -66 C74 -47 85 -29 110 0 L115 0 L115 521 L71 521 L71 0 Z M68 639 L118 639 L118 708 L68 708 L68 639 Z " />
<glyph glyph-name="Idotaccent" unicode="&#x130;" horiz-adv-x="206" d="M80 0 L127 0 L127 700 L80 700 L80 0 Z M74 755 L134 755 L134 823 L74 823 L74 755 Z " />
<glyph glyph-name="dotlessi" unicode="&#x131;" horiz-adv-x="186" d="M71 0 L115 0 L115 521 L71 521 L71 0 Z " />
<glyph glyph-name="Kcommaaccent" unicode="&#x136;" horiz-adv-x="491" d="M220 -192 C261 -177 278 -155 278 -113 L278 -57 L222 -57 L222 -119 L246 -119 C248 -146 238 -161 210 -172 L220 -192 Z M73 0 L120 0 L120 207 L216 346 L422 0 L477 0 L245 389 L459 700 L404 700 L120 278 L120 700 L73 700 L73 0 Z " />
<glyph glyph-name="kcommaaccent" unicode="&#x137;" horiz-adv-x="395" d="M175 -194 C216 -179 233 -157 233 -115 L233 -59 L177 -59 L177 -121 L201 -121 C203 -148 193 -163 165 -174 L175 -194 Z M65 0 L109 0 L109 156 L184 264 L319 0 L370 0 L212 305 L360 521 L310 521 L109 219 L109 714 L65 714 L65 0 Z " />
<glyph glyph-name="Lacute" unicode="&#x139;" horiz-adv-x="401" d="M87 749 L123 749 L211 834 L160 858 L87 749 Z M73 0 L378 0 L378 43 L120 43 L120 700 L73 700 L73 0 Z " />
<glyph glyph-name="lacute" unicode="&#x13a;" horiz-adv-x="186" d="M76 755 L112 755 L200 840 L149 864 L76 755 Z M71 0 L115 0 L115 714 L71 714 L71 0 Z " />
<glyph glyph-name="Lcommaaccent" unicode="&#x13b;" horiz-adv-x="401" d="M191 -197 C232 -182 249 -160 249 -118 L249 -62 L193 -62 L193 -124 L217 -124 C219 -151 209 -166 181 -177 L191 -197 Z M73 0 L378 0 L378 43 L120 43 L120 700 L73 700 L73 0 Z " />
<glyph glyph-name="lcommaaccent" unicode="&#x13c;" horiz-adv-x="186" d="M62 -197 C103 -182 120 -160 120 -118 L120 -62 L64 -62 L64 -124 L88 -124 C90 -151 80 -166 52 -177 L62 -197 Z M71 0 L115 0 L115 714 L71 714 L71 0 Z " />
<glyph glyph-name="Lcaron" unicode="&#x13d;" horiz-adv-x="401" d="M181 551 L203 551 L235 697 L235 700 L191 700 L181 551 Z M73 0 L378 0 L378 43 L120 43 L120 700 L73 700 L73 0 Z " />
<glyph glyph-name="lcaron" unicode="&#x13e;" horiz-adv-x="186" d="M160 566 L182 566 L214 712 L214 715 L170 715 L160 566 Z M71 0 L115 0 L115 714 L71 714 L71 0 Z " />
<glyph glyph-name="Ldot" unicode="&#x13f;" horiz-adv-x="401" d="M271 325 L329 325 L329 397 L271 397 L271 325 Z M73 0 L378 0 L378 43 L120 43 L120 700 L73 700 L73 0 Z " />
<glyph glyph-name="ldot" unicode="&#x140;" horiz-adv-x="237" d="M185 321 L239 321 L239 398 L185 398 L185 321 Z M71 0 L115 0 L115 714 L71 714 L71 0 Z " />
<glyph glyph-name="Lslash" unicode="&#x141;" horiz-adv-x="416" d="M257 392 L257 443 L134 371 L134 700 L87 700 L87 344 L25 307 L25 257 L87 294 L87 0 L392 0 L392 43 L134 43 L134 321 L257 392 Z " />
<glyph glyph-name="lslash" unicode="&#x142;" horiz-adv-x="210" d="M191 393 L191 443 L127 401 L127 714 L83 714 L83 373 L19 334 L19 284 L83 324 L83 0 L127 0 L127 352 L191 393 Z " />
<glyph glyph-name="Nacute" unicode="&#x143;" horiz-adv-x="550" d="M256 744 L292 744 L380 829 L329 853 L256 744 Z M73 0 L118 0 L118 611 L436 0 L477 0 L477 700 L432 700 L432 103 L120 700 L73 700 L73 0 Z " />
<glyph glyph-name="nacute" unicode="&#x144;" horiz-adv-x="442" d="M204 582 L236 582 L326 682 L275 709 L204 582 Z M65 0 L109 0 L109 338 C109 429 162 491 231 491 C300 491 339 443 339 340 L339 0 L383 0 L383 356 C383 471 325 530 241 530 C172 530 131 487 109 438 L109 521 L65 521 L65 0 Z " />
<glyph glyph-name="Ncommaaccent" unicode="&#x145;" horiz-adv-x="550" d="M243 -192 C284 -177 301 -155 301 -113 L301 -57 L245 -57 L245 -119 L269 -119 C271 -146 261 -161 233 -172 L243 -192 Z M73 0 L118 0 L118 611 L436 0 L477 0 L477 700 L432 700 L432 103 L120 700 L73 700 L73 0 Z " />
<glyph glyph-name="ncommaaccent" unicode="&#x146;" horiz-adv-x="442" d="M192 -194 C233 -179 250 -157 250 -115 L250 -59 L194 -59 L194 -121 L218 -121 C220 -148 210 -163 182 -174 L192 -194 Z M65 0 L109 0 L109 338 C109 429 162 491 231 491 C300 491 339 443 339 340 L339 0 L383 0 L383 356 C383 471 325 530 241 530 C172 530 131 487 109 438 L109 521 L65 521 L65 0 Z " />
<glyph glyph-name="Ncaron" unicode="&#x147;" horiz-adv-x="550" d="M378 848 L334 848 L275 788 L216 848 L170 848 L253 747 L295 747 L378 848 Z M73 0 L118 0 L118 611 L436 0 L477 0 L477 700 L432 700 L432 103 L120 700 L73 700 L73 0 Z " />
<glyph glyph-name="ncaron" unicode="&#x148;" horiz-adv-x="442" d="M317 707 L280 707 L224 634 L168 707 L129 707 L205 585 L241 585 L317 707 Z M65 0 L109 0 L109 338 C109 429 162 491 231 491 C300 491 339 443 339 340 L339 0 L383 0 L383 356 C383 471 325 530 241 530 C172 530 131 487 109 438 L109 521 L65 521 L65 0 Z " />
<glyph glyph-name="Omacron" unicode="&#x14c;" horiz-adv-x="561" d="M163 772 L397 772 L397 815 L163 815 L163 772 Z M281 -9 C416 -9 512 126 512 344 L512 356 C512 574 416 709 281 709 C146 709 50 574 50 356 L50 344 C50 126 146 -9 281 -9 L281 -9 Z M281 35 C177 35 98 155 98 344 L98 356 C98 545 177 665 281 665 C385 665 464 545 464 356 L464 344 C464 155 385 35 281 35 L281 35 Z " />
<glyph glyph-name="omacron" unicode="&#x14d;" horiz-adv-x="443" d="M115 598 L329 598 L329 639 L115 639 L115 598 Z M221 -9 C326 -9 403 101 403 257 L403 264 C403 421 327 530 222 530 C117 530 40 420 40 264 L40 257 C40 100 116 -9 221 -9 L221 -9 Z M222 32 C147 32 85 123 85 257 L85 264 C85 397 146 489 221 489 C295 489 358 397 358 264 L358 257 C358 124 297 32 222 32 L222 32 Z " />
<glyph glyph-name="Obreve" unicode="&#x14e;" horiz-adv-x="561" d="M280 756 C338 756 381 786 388 842 L348 842 C339 814 317 799 280 799 C243 799 221 814 212 842 L172 842 C179 786 222 756 280 756 L280 756 Z M281 -9 C416 -9 512 126 512 344 L512 356 C512 574 416 709 281 709 C146 709 50 574 50 356 L50 344 C50 126 146 -9 281 -9 L281 -9 Z M281 35 C177 35 98 155 98 344 L98 356 C98 545 177 665 281 665 C385 665 464 545 464 356 L464 344 C464 155 385 35 281 35 L281 35 Z " />
<glyph glyph-name="obreve" unicode="&#x14f;" horiz-adv-x="443" d="M221 -9 C326 -9 403 101 403 257 L403 264 C403 421 327 530 222 530 C117 530 40 420 40 264 L40 257 C40 100 116 -9 221 -9 L221 -9 Z M222 32 C147 32 85 123 85 257 L85 264 C85 397 146 489 221 489 C295 489 358 397 358 264 L358 257 C358 124 297 32 222 32 L222 32 Z M222 583 C279 583 321 616 327 682 L290 682 C281 645 260 625 222 625 C184 625 163 645 154 682 L117 682 C123 616 165 583 222 583 L222 583 Z " />
<glyph glyph-name="Ohungarumlaut" unicode="&#x150;" horiz-adv-x="561" d="M281 -9 C416 -9 512 126 512 344 L512 356 C512 574 416 709 281 709 C146 709 50 574 50 356 L50 344 C50 126 146 -9 281 -9 L281 -9 Z M281 35 C177 35 98 155 98 344 L98 356 C98 545 177 665 281 665 C385 665 464 545 464 356 L464 344 C464 155 385 35 281 35 L281 35 Z M202 755 L238 755 L324 840 L275 864 L202 755 Z M309 755 L345 755 L432 840 L382 864 L309 755 Z " />
<glyph glyph-name="ohungarumlaut" unicode="&#x151;" horiz-adv-x="443" d="M250 582 L283 582 L368 684 L321 709 L250 582 Z M144 582 L177 582 L262 684 L215 709 L144 582 Z M221 -9 C326 -9 403 101 403 257 L403 264 C403 421 327 530 222 530 C117 530 40 420 40 264 L40 257 C40 100 116 -9 221 -9 L221 -9 Z M222 32 C147 32 85 123 85 257 L85 264 C85 397 146 489 221 489 C295 489 358 397 358 264 L358 257 C358 124 297 32 222 32 L222 32 Z " />
<glyph glyph-name="OE" unicode="&#x152;" horiz-adv-x="767" d="M325 0 L726 0 L726 43 L446 43 L446 332 L696 332 L696 374 L446 374 L446 657 L723 657 L723 700 L325 700 C164 700 50 570 50 356 L50 343 C50 129 164 0 325 0 L325 0 Z M326 43 C190 43 97 157 97 344 L97 357 C97 544 188 657 325 657 L399 657 L399 43 L326 43 Z " />
<glyph glyph-name="oe" unicode="&#x153;" horiz-adv-x="732" d="M221 -9 C291 -9 350 44 379 130 C406 43 471 -9 549 -9 C605 -9 639 8 684 42 L661 76 C630 48 596 32 551 32 C472 32 404 104 400 242 L693 242 L693 270 C693 430 625 530 528 530 C463 530 405 482 378 394 C350 478 292 530 222 530 C122 530 40 422 40 264 L40 257 C40 98 121 -9 221 -9 L221 -9 Z M400 281 C406 413 459 489 527 489 C601 489 647 397 649 281 L400 281 Z M222 32 C145 32 85 123 85 257 L85 264 C85 397 144 489 221 489 C297 489 358 397 358 264 L358 257 C358 124 299 32 222 32 L222 32 Z " />
<glyph glyph-name="Racute" unicode="&#x154;" horiz-adv-x="502" d="M73 0 L120 0 L120 285 L216 285 C228 285 240 285 252 286 L413 0 L468 0 L300 296 C388 320 450 386 450 494 L450 496 C450 556 430 606 396 641 C359 678 302 700 232 700 L73 700 L73 0 Z M120 328 L120 657 L230 657 C336 657 404 601 404 495 L404 493 C404 397 349 328 207 328 L120 328 Z M217 749 L253 749 L341 834 L290 858 L217 749 Z " />
<glyph glyph-name="racute" unicode="&#x155;" horiz-adv-x="282" d="M133 582 L165 582 L255 682 L204 709 L133 582 Z M65 0 L109 0 L109 311 C109 424 178 480 259 480 L262 480 L262 527 C188 531 134 484 109 424 L109 521 L65 521 L65 0 Z " />
<glyph glyph-name="Rcommaaccent" unicode="&#x156;" horiz-adv-x="502" d="M211 -192 C252 -177 269 -155 269 -113 L269 -57 L213 -57 L213 -119 L237 -119 C239 -146 229 -161 201 -172 L211 -192 Z M73 0 L120 0 L120 285 L216 285 C228 285 240 285 252 286 L413 0 L468 0 L300 296 C388 320 450 386 450 494 L450 496 C450 556 430 606 396 641 C359 678 302 700 232 700 L73 700 L73 0 Z M120 328 L120 657 L230 657 C336 657 404 601 404 495 L404 493 C404 397 349 328 207 328 L120 328 Z " />
<glyph glyph-name="rcommaaccent" unicode="&#x157;" horiz-adv-x="282" d="M60 -197 C101 -182 118 -160 118 -118 L118 -62 L62 -62 L62 -124 L86 -124 C88 -151 78 -166 50 -177 L60 -197 Z M65 0 L109 0 L109 311 C109 424 178 480 259 480 L262 480 L262 527 C188 531 134 484 109 424 L109 521 L65 521 L65 0 Z " />
<glyph glyph-name="Rcaron" unicode="&#x158;" horiz-adv-x="502" d="M341 853 L297 853 L238 793 L179 853 L133 853 L216 752 L258 752 L341 853 Z M73 0 L120 0 L120 285 L216 285 C228 285 240 285 252 286 L413 0 L468 0 L300 296 C388 320 450 386 450 494 L450 496 C450 556 430 606 396 641 C359 678 302 700 232 700 L73 700 L73 0 Z M120 328 L120 657 L230 657 C336 657 404 601 404 495 L404 493 C404 397 349 328 207 328 L120 328 Z " />
<glyph glyph-name="rcaron" unicode="&#x159;" horiz-adv-x="282" d="M245 707 L208 707 L152 634 L96 707 L57 707 L133 585 L169 585 L245 707 Z M65 0 L109 0 L109 311 C109 424 178 480 259 480 L262 480 L262 527 C188 531 134 484 109 424 L109 521 L65 521 L65 0 Z " />
<glyph glyph-name="Sacute" unicode="&#x15a;" horiz-adv-x="440" d="M213 -10 C319 -10 397 68 397 166 L397 168 C397 239 377 296 240 376 C128 442 100 480 100 542 L100 544 C100 610 150 666 230 666 C277 666 323 646 366 606 L395 644 C344 690 287 710 232 710 C126 710 52 634 52 541 L52 539 C52 465 79 412 215 333 C327 268 350 224 350 168 L350 166 C350 93 294 34 213 34 C154 34 103 63 56 109 L25 71 C85 13 146 -10 213 -10 L213 -10 Z M208 755 L244 755 L332 840 L281 864 L208 755 Z " />
<glyph glyph-name="sacute" unicode="&#x15b;" horiz-adv-x="342" d="M155 582 L187 582 L277 682 L226 709 L155 582 Z M163 -7 C243 -7 308 48 308 130 L308 131 C308 194 280 234 183 290 C106 334 82 362 82 405 L82 406 C82 452 120 487 174 487 C216 487 250 469 283 439 L311 473 C280 502 234 528 176 528 C97 528 38 477 38 402 L38 401 C38 337 74 298 162 249 C243 204 264 172 264 130 L264 128 C264 72 221 34 165 34 C122 34 81 53 39 97 L10 63 C59 15 110 -7 163 -7 L163 -7 Z " />
<glyph glyph-name="Scedilla" unicode="&#x15e;" horiz-adv-x="440" d="M198 -121 L245 -7 C334 6 397 78 397 166 L397 168 C397 239 377 296 240 376 C128 442 100 480 100 542 L100 544 C100 610 150 666 230 666 C277 666 323 646 366 606 L395 644 C344 690 287 710 232 710 C126 710 52 634 52 541 L52 539 C52 465 79 412 215 333 C327 268 350 224 350 168 L350 166 C350 93 294 34 213 34 C154 34 103 63 56 109 L25 71 C82 15 141 -8 204 -10 L149 -100 L198 -121 Z " />
<glyph glyph-name="scedilla" unicode="&#x15f;" horiz-adv-x="342" d="M142 -121 L190 -5 C257 6 308 57 308 130 L308 131 C308 194 280 234 183 290 C106 334 82 362 82 405 L82 406 C82 452 120 487 174 487 C216 487 250 469 283 439 L311 473 C280 502 234 528 176 528 C97 528 38 477 38 402 L38 401 C38 337 74 298 162 249 C243 204 264 172 264 130 L264 128 C264 72 221 34 165 34 C122 34 81 53 39 97 L10 63 C55 19 102 -3 150 -6 L93 -100 L142 -121 Z " />
<glyph glyph-name="Scaron" unicode="&#x160;" horiz-adv-x="440" d="M213 -10 C319 -10 397 68 397 166 L397 168 C397 239 377 296 240 376 C128 442 100 480 100 542 L100 544 C100 610 150 666 230 666 C277 666 323 646 366 606 L395 644 C344 690 287 710 232 710 C126 710 52 634 52 541 L52 539 C52 465 79 412 215 333 C327 268 350 224 350 168 L350 166 C350 93 294 34 213 34 C154 34 103 63 56 109 L25 71 C85 13 146 -10 213 -10 L213 -10 Z M332 859 L288 859 L229 799 L170 859 L124 859 L207 758 L249 758 L332 859 Z " />
<glyph glyph-name="scaron" unicode="&#x161;" horiz-adv-x="342" d="M267 707 L230 707 L174 634 L118 707 L79 707 L155 585 L191 585 L267 707 Z M163 -7 C243 -7 308 48 308 130 L308 131 C308 194 280 234 183 290 C106 334 82 362 82 405 L82 406 C82 452 120 487 174 487 C216 487 250 469 283 439 L311 473 C280 502 234 528 176 528 C97 528 38 477 38 402 L38 401 C38 337 74 298 162 249 C243 204 264 172 264 130 L264 128 C264 72 221 34 165 34 C122 34 81 53 39 97 L10 63 C59 15 110 -7 163 -7 L163 -7 Z " />
<glyph glyph-name="Tcommaaccent" unicode="&#x162;" horiz-adv-x="419" d="M179 -197 C220 -182 237 -160 237 -118 L237 -62 L181 -62 L181 -124 L205 -124 C207 -151 197 -166 169 -177 L179 -197 Z M186 0 L233 0 L233 657 L393 657 L393 700 L27 700 L27 657 L186 657 L186 0 Z " />
<glyph glyph-name="tcommaaccent" unicode="&#x163;" horiz-adv-x="276" d="M129 -197 C170 -182 187 -160 187 -118 L187 -62 L131 -62 L131 -124 L155 -124 C157 -151 147 -166 119 -177 L129 -197 Z M191 -5 C208 -5 226 -2 241 4 L241 45 C227 39 211 36 196 36 C155 36 128 52 128 106 L128 480 L240 480 L240 521 L128 521 L128 673 L84 673 L84 521 L27 521 L27 480 L84 480 L84 100 C84 25 128 -5 191 -5 L191 -5 Z " />
<glyph glyph-name="Tcaron" unicode="&#x164;" horiz-adv-x="419" d="M314 853 L270 853 L211 793 L152 853 L106 853 L189 752 L231 752 L314 853 Z M186 0 L233 0 L233 657 L393 657 L393 700 L27 700 L27 657 L186 657 L186 0 Z " />
<glyph glyph-name="tcaron" unicode="&#x165;" horiz-adv-x="276" d="M197 566 L219 566 L251 712 L251 715 L207 715 L197 566 Z M191 -5 C208 -5 226 -2 241 4 L241 45 C227 39 211 36 196 36 C155 36 128 52 128 106 L128 480 L240 480 L240 521 L128 521 L128 673 L84 673 L84 521 L27 521 L27 480 L84 480 L84 100 C84 25 128 -5 191 -5 L191 -5 Z " />
<glyph glyph-name="Umacron" unicode="&#x16a;" horiz-adv-x="532" d="M149 761 L383 761 L383 804 L149 804 L149 761 Z M266 -10 C386 -10 466 75 466 221 L466 700 L419 700 L419 218 C419 97 360 33 267 33 C172 33 114 100 114 220 L114 700 L68 700 L68 219 C68 75 147 -10 266 -10 L266 -10 Z " />
<glyph glyph-name="umacron" unicode="&#x16b;" horiz-adv-x="442" d="M201 -9 C270 -9 311 34 333 83 L333 0 L377 0 L377 521 L333 521 L333 183 C333 92 280 30 211 30 C142 30 103 78 103 181 L103 521 L59 521 L59 165 C59 50 117 -9 201 -9 L201 -9 Z M111 595 L325 595 L325 636 L111 636 L111 595 Z " />
<glyph glyph-name="Ubreve" unicode="&#x16c;" horiz-adv-x="532" d="M266 745 C324 745 367 775 374 831 L334 831 C325 803 303 788 266 788 C229 788 207 803 198 831 L158 831 C165 775 208 745 266 745 L266 745 Z M266 -10 C386 -10 466 75 466 221 L466 700 L419 700 L419 218 C419 97 360 33 267 33 C172 33 114 100 114 220 L114 700 L68 700 L68 219 C68 75 147 -10 266 -10 L266 -10 Z " />
<glyph glyph-name="ubreve" unicode="&#x16d;" horiz-adv-x="442" d="M201 -9 C270 -9 311 34 333 83 L333 0 L377 0 L377 521 L333 521 L333 183 C333 92 280 30 211 30 C142 30 103 78 103 181 L103 521 L59 521 L59 165 C59 50 117 -9 201 -9 L201 -9 Z M218 580 C275 580 317 613 323 679 L286 679 C277 642 256 622 218 622 C180 622 159 642 150 679 L113 679 C119 613 161 580 218 580 L218 580 Z " />
<glyph glyph-name="Uring" unicode="&#x16e;" horiz-adv-x="532" d="M266 -10 C386 -10 466 75 466 221 L466 700 L419 700 L419 218 C419 97 360 33 267 33 C172 33 114 100 114 220 L114 700 L68 700 L68 219 C68 75 147 -10 266 -10 L266 -10 Z M265 734 C314 734 354 769 354 815 C354 861 316 896 267 896 C218 896 178 861 178 815 C178 769 216 734 265 734 L265 734 Z M266 762 C234 762 211 785 211 815 C211 845 234 868 266 868 C298 868 321 845 321 815 C321 785 298 762 266 762 L266 762 Z " />
<glyph glyph-name="uring" unicode="&#x16f;" horiz-adv-x="442" d="M217 569 C266 569 304 607 304 654 C304 701 267 739 219 739 C170 739 132 701 132 654 C132 607 169 569 217 569 L217 569 Z M218 596 C186 596 162 621 162 654 C162 686 186 712 218 712 C250 712 274 686 274 654 C274 621 250 596 218 596 L218 596 Z M201 -9 C270 -9 311 34 333 83 L333 0 L377 0 L377 521 L333 521 L333 183 C333 92 280 30 211 30 C142 30 103 78 103 181 L103 521 L59 521 L59 165 C59 50 117 -9 201 -9 L201 -9 Z " />
<glyph glyph-name="Uhungarumlaut" unicode="&#x170;" horiz-adv-x="532" d="M266 -10 C386 -10 466 75 466 221 L466 700 L419 700 L419 218 C419 97 360 33 267 33 C172 33 114 100 114 220 L114 700 L68 700 L68 219 C68 75 147 -10 266 -10 L266 -10 Z M187 744 L223 744 L309 829 L260 853 L187 744 Z M294 744 L330 744 L417 829 L367 853 L294 744 Z " />
<glyph glyph-name="uhungarumlaut" unicode="&#x171;" horiz-adv-x="442" d="M201 -9 C270 -9 311 34 333 83 L333 0 L377 0 L377 521 L333 521 L333 183 C333 92 280 30 211 30 C142 30 103 78 103 181 L103 521 L59 521 L59 165 C59 50 117 -9 201 -9 L201 -9 Z M246 579 L279 579 L364 681 L317 706 L246 579 Z M140 579 L173 579 L258 681 L211 706 L140 579 Z " />
<glyph glyph-name="Uogonek" unicode="&#x172;" horiz-adv-x="532" d="M308 -99 C271 -97 256 -88 256 -66 C256 -49 265 -33 284 -9 C394 -1 466 82 466 221 L466 700 L419 700 L419 218 C419 97 360 33 267 33 C172 33 114 100 114 220 L114 700 L68 700 L68 219 C68 82 139 -1 247 -9 C225 -33 214 -53 214 -76 C214 -109 238 -132 294 -133 C298 -133 300 -133 308 -132 L308 -99 Z " />
<glyph glyph-name="uogonek" unicode="&#x173;" horiz-adv-x="442" d="M201 -9 C270 -9 311 34 333 83 L333 0 L335 0 C308 -27 293 -50 293 -76 C293 -109 317 -132 373 -133 C377 -133 379 -133 387 -132 L387 -99 C350 -97 335 -88 335 -66 C335 -47 346 -29 371 0 L377 0 L377 521 L333 521 L333 183 C333 92 280 30 211 30 C142 30 103 78 103 181 L103 521 L59 521 L59 165 C59 50 117 -9 201 -9 L201 -9 Z " />
<glyph glyph-name="Wcircumflex" unicode="&#x174;" horiz-adv-x="783" d="M205 -5 L246 -5 L392 605 L537 -5 L578 -5 L746 700 L698 700 L558 85 L413 701 L372 701 L227 85 L86 700 L37 700 L205 -5 Z M287 752 L331 752 L390 811 L449 752 L495 752 L412 853 L370 853 L287 752 Z " />
<glyph glyph-name="wcircumflex" unicode="&#x175;" horiz-adv-x="628" d="M219 582 L256 582 L312 655 L368 582 L407 582 L331 704 L295 704 L219 582 Z M169 -3 L208 -3 L314 437 L420 -3 L460 -3 L591 521 L547 521 L441 68 L335 521 L296 521 L188 68 L84 521 L37 521 L169 -3 Z " />
<glyph glyph-name="Ycircumflex" unicode="&#x176;" horiz-adv-x="479" d="M216 0 L263 0 L263 294 L463 700 L412 700 L240 343 L68 700 L16 700 L216 293 L216 0 Z M136 747 L180 747 L239 806 L298 747 L344 747 L261 848 L219 848 L136 747 Z " />
<glyph glyph-name="ycircumflex" unicode="&#x177;" horiz-adv-x="416" d="M214 64 L77 521 L30 521 L193 -4 C167 -78 145 -99 109 -99 C90 -99 69 -91 56 -81 L41 -122 C64 -137 91 -142 109 -142 C166 -142 205 -109 236 0 L385 521 L338 521 L214 64 Z M115 582 L152 582 L208 655 L264 582 L303 582 L227 704 L191 704 L115 582 Z " />
<glyph glyph-name="Ydieresis" unicode="&#x178;" horiz-adv-x="479" d="M216 0 L263 0 L263 294 L463 700 L412 700 L240 343 L68 700 L16 700 L216 293 L216 0 Z M276 750 L334 750 L334 818 L276 818 L276 750 Z M147 750 L206 750 L206 818 L147 818 L147 750 Z " />
<glyph glyph-name="Zacute" unicode="&#x179;" horiz-adv-x="459" d="M43 0 L418 0 L418 43 L102 43 L418 672 L418 700 L56 700 L56 657 L359 657 L43 29 L43 0 Z M216 749 L252 749 L340 834 L289 858 L216 749 Z " />
<glyph glyph-name="zacute" unicode="&#x17a;" horiz-adv-x="367" d="M169 582 L201 582 L291 682 L240 709 L169 582 Z M35 0 L328 0 L328 39 L89 39 L331 495 L331 521 L46 521 L46 482 L278 482 L35 26 L35 0 Z " />
<glyph glyph-name="Zdotaccent" unicode="&#x17b;" horiz-adv-x="459" d="M206 755 L266 755 L266 823 L206 823 L206 755 Z M43 0 L418 0 L418 43 L102 43 L418 672 L418 700 L56 700 L56 657 L359 657 L43 29 L43 0 Z " />
<glyph glyph-name="zdotaccent" unicode="&#x17c;" horiz-adv-x="367" d="M35 0 L328 0 L328 39 L89 39 L331 495 L331 521 L46 521 L46 482 L278 482 L35 26 L35 0 Z M159 589 L215 589 L215 660 L159 660 L159 589 Z " />
<glyph glyph-name="Zcaron" unicode="&#x17d;" horiz-adv-x="459" d="M340 853 L296 853 L237 793 L178 853 L132 853 L215 752 L257 752 L340 853 Z M43 0 L418 0 L418 43 L102 43 L418 672 L418 700 L56 700 L56 657 L359 657 L43 29 L43 0 Z " />
<glyph glyph-name="zcaron" unicode="&#x17e;" horiz-adv-x="367" d="M281 707 L244 707 L188 634 L132 707 L93 707 L169 585 L205 585 L281 707 Z M35 0 L328 0 L328 39 L89 39 L331 495 L331 521 L46 521 L46 482 L278 482 L35 26 L35 0 Z " />
<glyph glyph-name="florin" unicode="&#x192;" horiz-adv-x="387" d="M63 -5 C127 -5 162 32 173 112 L209 387 L332 387 L332 426 L214 426 L233 576 C241 635 265 662 305 662 C327 662 347 657 365 650 L365 694 C348 701 328 705 303 705 C237 705 198 664 187 583 L167 426 L87 426 L87 387 L162 387 L127 115 C120 61 98 37 62 37 C46 37 31 40 20 43 L20 1 C31 -2 46 -5 63 -5 L63 -5 Z " />
<glyph glyph-name="Aringacute" unicode="&#x1fa;" horiz-adv-x="543" d="M34 0 L81 0 L139 196 L402 196 L460 0 L509 0 L307 667 C337 679 359 707 359 741 C359 788 320 823 272 823 C223 823 182 788 182 741 C182 706 204 678 236 666 L34 0 Z M152 238 L271 639 L389 238 L152 238 Z M271 689 C239 689 216 711 216 741 C216 771 239 794 271 794 C302 794 326 771 326 741 C326 711 302 689 271 689 L271 689 Z M251 847 L289 847 L374 916 L325 939 L251 847 Z " />
<glyph glyph-name="aringacute" unicode="&#x1fb;" horiz-adv-x="411" d="M185 782 L220 782 L306 862 L258 887 L185 782 Z M177 -10 C241 -10 284 27 309 79 L309 0 L353 0 L353 362 C353 416 336 459 310 484 C281 513 242 527 195 527 C147 527 102 511 64 490 L80 452 C107 470 149 485 191 485 C266 485 309 440 309 358 L309 305 C278 316 243 325 197 325 C97 325 35 257 35 158 L35 152 C35 55 99 -10 177 -10 L177 -10 Z M182 30 C120 30 80 82 80 154 L80 160 C80 233 121 285 199 285 C242 285 277 276 309 263 L309 172 C309 96 256 30 182 30 L182 30 Z M204 582 C253 582 291 620 291 667 C291 714 254 752 206 752 C157 752 119 714 119 667 C119 620 156 582 204 582 L204 582 Z M205 609 C173 609 149 634 149 667 C149 699 173 725 205 725 C237 725 261 699 261 667 C261 634 237 609 205 609 L205 609 Z " />
<glyph glyph-name="AEacute" unicode="&#x1fc;" horiz-adv-x="697" d="M385 749 L421 749 L509 834 L458 858 L385 749 Z M9 0 L57 0 L134 196 L329 196 L329 0 L656 0 L656 43 L376 43 L376 332 L626 332 L626 374 L376 374 L376 657 L653 657 L653 700 L285 700 L9 0 Z M151 238 L313 658 L329 658 L329 238 L151 238 Z " />
<glyph glyph-name="aeacute" unicode="&#x1fd;" horiz-adv-x="677" d="M317 582 L349 582 L439 682 L388 709 L317 582 Z M176 -10 C252 -10 302 47 331 109 C364 32 423 -9 494 -9 C550 -9 584 8 629 42 L606 76 C575 48 541 32 496 32 C417 32 349 104 345 242 L638 242 L638 270 C638 430 570 530 473 530 C415 530 365 492 335 427 C317 493 266 527 189 527 C145 527 104 515 64 496 L79 456 C113 475 147 485 187 485 C264 485 305 440 305 358 L305 305 C274 316 241 325 196 325 C96 325 35 257 35 158 L35 152 C35 55 98 -10 176 -10 L176 -10 Z M345 281 C351 413 404 489 472 489 C546 489 592 397 594 281 L345 281 Z M181 30 C119 30 80 82 80 154 L80 160 C80 233 120 285 196 285 C236 285 269 276 303 265 C303 238 306 191 315 154 C292 91 246 30 181 30 L181 30 Z " />
<glyph glyph-name="Oslashacute" unicode="&#x1fe;" horiz-adv-x="561" d="M467 707 L426 641 C388 685 338 709 281 709 C145 709 50 572 50 355 L50 344 C50 242 70 157 107 97 L46 -7 L95 -7 L136 58 C174 15 223 -9 280 -9 C416 -9 512 128 512 345 L512 356 C512 458 490 543 454 603 L516 707 L467 707 Z M96 346 L96 356 C96 549 175 668 280 668 C329 668 372 643 404 598 L134 142 C110 194 96 264 96 346 L96 346 Z M281 32 C232 32 190 56 158 100 L427 558 C451 505 466 436 466 354 L466 344 C466 151 387 32 281 32 L281 32 Z M263 755 L299 755 L387 840 L336 864 L263 755 Z " />
<glyph glyph-name="oslashacute" unicode="&#x1ff;" horiz-adv-x="443" d="M360 526 L330 480 C300 512 263 530 222 530 C122 530 40 422 40 264 L40 257 C40 182 58 119 87 73 L38 -5 L83 -5 L112 41 C142 9 180 -9 221 -9 C321 -9 403 99 403 257 L403 264 C403 338 385 402 356 448 L405 526 L360 526 Z M222 31 C188 31 156 47 132 79 L331 407 C348 370 359 322 359 263 L359 257 C359 123 299 31 222 31 L222 31 Z M84 258 L84 264 C84 397 144 490 221 490 C254 490 286 473 311 441 L112 114 C94 150 84 199 84 258 L84 258 Z M202 582 L234 582 L324 682 L273 709 L202 582 Z " />
<glyph glyph-name="Scommaaccent" unicode="&#x218;" horiz-adv-x="440" d="M186 -197 C227 -182 244 -160 244 -118 L244 -62 L188 -62 L188 -124 L212 -124 C214 -151 204 -166 176 -177 L186 -197 Z M213 -10 C319 -10 397 68 397 166 L397 168 C397 239 377 296 240 376 C128 442 100 480 100 542 L100 544 C100 610 150 666 230 666 C277 666 323 646 366 606 L395 644 C344 690 287 710 232 710 C126 710 52 634 52 541 L52 539 C52 465 79 412 215 333 C327 268 350 224 350 168 L350 166 C350 93 294 34 213 34 C154 34 103 63 56 109 L25 71 C85 13 146 -10 213 -10 L213 -10 Z " />
<glyph glyph-name="scommaaccent" unicode="&#x219;" horiz-adv-x="342" d="M138 -197 C179 -182 196 -160 196 -118 L196 -62 L140 -62 L140 -124 L164 -124 C166 -151 156 -166 128 -177 L138 -197 Z M163 -7 C243 -7 308 48 308 130 L308 131 C308 194 280 234 183 290 C106 334 82 362 82 405 L82 406 C82 452 120 487 174 487 C216 487 250 469 283 439 L311 473 C280 502 234 528 176 528 C97 528 38 477 38 402 L38 401 C38 337 74 298 162 249 C243 204 264 172 264 130 L264 128 C264 72 221 34 165 34 C122 34 81 53 39 97 L10 63 C59 15 110 -7 163 -7 L163 -7 Z " />
<glyph glyph-name="schwa" unicode="&#x259;" horiz-adv-x="416" d="M182 529 C128 529 87 511 48 478 L71 444 C102 472 136 488 178 488 C259 488 328 415 332 278 L39 278 L39 250 C39 89 104 -10 204 -10 C298 -10 376 89 376 260 L376 267 C376 437 289 529 182 529 L182 529 Z M332 239 C326 108 272 31 204 31 C130 31 85 124 83 239 L332 239 Z " />
<glyph glyph-name="circumflex" unicode="&#x2c6;" horiz-adv-x="500" d="M156 585 L193 585 L249 658 L305 585 L344 585 L268 707 L232 707 L156 585 Z " />
<glyph glyph-name="caron" unicode="&#x2c7;" horiz-adv-x="500" d="M344 707 L307 707 L251 634 L195 707 L156 707 L232 585 L268 585 L344 707 Z " />
<glyph glyph-name="breve" unicode="&#x2d8;" horiz-adv-x="500" d="M250 583 C307 583 349 616 355 682 L318 682 C309 645 288 625 250 625 C212 625 191 645 182 682 L145 682 C151 616 193 583 250 583 L250 583 Z " />
<glyph glyph-name="dotaccent" unicode="&#x2d9;" horiz-adv-x="500" d="M222 589 L278 589 L278 660 L222 660 L222 589 Z " />
<glyph glyph-name="ring" unicode="&#x2da;" horiz-adv-x="500" d="M249 582 C298 582 336 620 336 667 C336 714 299 752 251 752 C202 752 164 714 164 667 C164 620 201 582 249 582 L249 582 Z M250 609 C218 609 194 634 194 667 C194 699 218 725 250 725 C282 725 306 699 306 667 C306 634 282 609 250 609 L250 609 Z " />
<glyph glyph-name="ogonek" unicode="&#x2db;" horiz-adv-x="500" d="M298 -99 C261 -97 246 -88 246 -66 C246 -47 258 -28 285 3 L255 8 C222 -23 204 -48 204 -76 C204 -109 228 -132 284 -133 C288 -133 290 -133 298 -132 L298 -99 Z " />
<glyph glyph-name="tilde" unicode="&#x2dc;" horiz-adv-x="500" d="M300 583 C329 583 348 607 363 663 L331 671 C321 640 312 625 297 625 C286 625 274 632 255 647 C235 663 221 672 200 672 C171 672 152 647 137 591 L169 583 C179 615 188 630 203 630 C214 630 226 623 245 607 C265 592 279 583 300 583 L300 583 Z " />
<glyph glyph-name="hungarumlaut" unicode="&#x2dd;" horiz-adv-x="500" d="M241 582 L274 582 L359 684 L312 709 L241 582 Z M135 582 L168 582 L253 684 L206 709 L135 582 Z " />
<glyph glyph-name="commaaccent" unicode="&#x326;" horiz-adv-x="500" d="M222 -197 C263 -182 280 -160 280 -118 L280 -62 L224 -62 L224 -124 L248 -124 C250 -151 240 -166 212 -177 L222 -197 Z " />
<glyph glyph-name="baht" unicode="&#xe3f;" horiz-adv-x="463" d="M258 779 L247 697 C234 699 220 700 206 700 L71 700 L71 0 L164 0 L148 -119 L188 -119 L204 0 C333 3 417 72 417 184 L417 185 C417 282 357 336 272 355 C342 375 403 422 403 524 L403 526 C403 605 357 663 285 687 L297 779 L258 779 Z M371 185 L371 184 C371 95 308 46 206 42 L240 330 C325 317 371 266 371 185 L371 185 Z M117 373 L117 658 L205 658 C218 658 231 656 243 654 L210 374 C204 373 197 373 191 373 L117 373 Z M117 42 L117 333 L195 333 L206 333 L172 42 L117 42 Z M357 522 L357 521 C357 445 317 395 246 379 L277 645 C327 624 357 581 357 522 L357 522 Z " />
<glyph glyph-name="Wgrave" unicode="&#x1e80;" horiz-adv-x="783" d="M409 749 L336 858 L285 834 L373 749 L409 749 Z M205 -5 L246 -5 L392 605 L537 -5 L578 -5 L746 700 L698 700 L558 85 L413 701 L372 701 L227 85 L86 700 L37 700 L205 -5 Z " />
<glyph glyph-name="wgrave" unicode="&#x1e81;" horiz-adv-x="628" d="M169 -3 L208 -3 L314 437 L420 -3 L460 -3 L591 521 L547 521 L441 68 L335 521 L296 521 L188 68 L84 521 L37 521 L169 -3 Z M300 582 L332 582 L261 709 L210 682 L300 582 Z " />
<glyph glyph-name="Wacute" unicode="&#x1e82;" horiz-adv-x="783" d="M372 749 L408 749 L496 834 L445 858 L372 749 Z M205 -5 L246 -5 L392 605 L537 -5 L578 -5 L746 700 L698 700 L558 85 L413 701 L372 701 L227 85 L86 700 L37 700 L205 -5 Z " />
<glyph glyph-name="wacute" unicode="&#x1e83;" horiz-adv-x="628" d="M295 582 L327 582 L417 682 L366 709 L295 582 Z M169 -3 L208 -3 L314 437 L420 -3 L460 -3 L591 521 L547 521 L441 68 L335 521 L296 521 L188 68 L84 521 L37 521 L169 -3 Z " />
<glyph glyph-name="Wdieresis" unicode="&#x1e84;" horiz-adv-x="783" d="M426 755 L484 755 L484 823 L426 823 L426 755 Z M297 755 L356 755 L356 823 L297 823 L297 755 Z M205 -5 L246 -5 L392 605 L537 -5 L578 -5 L746 700 L698 700 L558 85 L413 701 L372 701 L227 85 L86 700 L37 700 L205 -5 Z " />
<glyph glyph-name="wdieresis" unicode="&#x1e85;" horiz-adv-x="628" d="M346 589 L398 589 L398 659 L346 659 L346 589 Z M228 589 L280 589 L280 659 L228 659 L228 589 Z M169 -3 L208 -3 L314 437 L420 -3 L460 -3 L591 521 L547 521 L441 68 L335 521 L296 521 L188 68 L84 521 L37 521 L169 -3 Z " />
<glyph glyph-name="Ygrave" unicode="&#x1ef2;" horiz-adv-x="479" d="M216 0 L263 0 L263 294 L463 700 L412 700 L240 343 L68 700 L16 700 L216 293 L216 0 Z M259 744 L186 853 L135 829 L223 744 L259 744 Z " />
<glyph glyph-name="ygrave" unicode="&#x1ef3;" horiz-adv-x="416" d="M214 64 L77 521 L30 521 L193 -4 C167 -78 145 -99 109 -99 C90 -99 69 -91 56 -81 L41 -122 C64 -137 91 -142 109 -142 C166 -142 205 -109 236 0 L385 521 L338 521 L214 64 Z M195 579 L227 579 L156 706 L105 679 L195 579 Z " />
<glyph glyph-name="enspace" unicode="&#x2002;" horiz-adv-x="500" d="" />
<glyph glyph-name="emspace" unicode="&#x2003;" horiz-adv-x="1000" d="" />
<glyph glyph-name="threeperemspace" unicode="&#x2004;" horiz-adv-x="333" d="" />
<glyph glyph-name="fourperemspace" unicode="&#x2005;" horiz-adv-x="250" d="" />
<glyph glyph-name="figurespace" unicode="&#x2007;" horiz-adv-x="450" d="" />
<glyph glyph-name="thinspace" unicode="&#x2009;" horiz-adv-x="112" d="" />
<glyph glyph-name="hairspace" unicode="&#x200a;" horiz-adv-x="59" d="" />
<glyph glyph-name="endash" unicode="&#x2013;" horiz-adv-x="444" d="M51 274 L393 274 L393 318 L51 318 L51 274 Z " />
<glyph glyph-name="emdash" unicode="&#x2014;" horiz-adv-x="690" d="M51 274 L640 274 L640 318 L51 318 L51 274 Z " />
<glyph glyph-name="quoteleft" unicode="&#x2018;" horiz-adv-x="178" d="M54 513 L118 513 L118 598 L91 598 C88 636 103 659 143 677 L131 702 C75 677 54 649 54 587 L54 513 Z " />
<glyph glyph-name="quoteright" unicode="&#x2019;" horiz-adv-x="178" d="M47 513 C103 537 124 566 124 628 L124 700 L60 700 L60 617 L87 617 C90 579 75 556 35 538 L47 513 Z " />
<glyph glyph-name="quotesinglbase" unicode="&#x201a;" horiz-adv-x="178" d="M44 -104 C100 -79 121 -51 121 11 L121 83 L57 83 L57 0 L84 0 C87 -38 72 -61 32 -79 L44 -104 Z " />
<glyph glyph-name="quotedblleft" unicode="&#x201c;" horiz-adv-x="326" d="M202 513 L265 513 L265 598 L238 598 C235 636 251 659 291 677 L279 702 C222 677 202 649 202 587 L202 513 Z M54 513 L118 513 L118 598 L91 598 C88 636 103 659 143 677 L131 702 C75 677 54 649 54 587 L54 513 Z " />
<glyph glyph-name="quotedblright" unicode="&#x201d;" horiz-adv-x="326" d="M194 513 C251 537 271 566 271 628 L271 700 L208 700 L208 617 L235 617 C238 579 223 556 182 538 L194 513 Z M47 513 C103 537 124 566 124 628 L124 700 L60 700 L60 617 L87 617 C90 579 75 556 35 538 L47 513 Z " />
<glyph glyph-name="quotedblbase" unicode="&#x201e;" horiz-adv-x="326" d="M191 -104 C248 -79 268 -51 268 11 L268 83 L205 83 L205 0 L232 0 C235 -38 219 -61 179 -79 L191 -104 Z M44 -104 C100 -79 121 -51 121 11 L121 83 L57 83 L57 0 L84 0 C87 -38 72 -61 32 -79 L44 -104 Z " />
<glyph glyph-name="dagger" unicode="&#x2020;" horiz-adv-x="294" d="M126 238 L169 238 L162 527 L260 518 L260 561 L162 552 L172 700 L123 700 L132 552 L34 561 L34 518 L133 527 L126 238 Z " />
<glyph glyph-name="daggerdbl" unicode="&#x2021;" horiz-adv-x="316" d="M133 0 L182 0 L173 148 L271 139 L271 182 L173 173 L181 350 L173 527 L271 518 L271 561 L173 552 L183 700 L134 700 L144 552 L45 561 L45 518 L144 527 L136 350 L144 173 L45 182 L45 139 L144 148 L133 0 Z " />
<glyph glyph-name="bullet" unicode="&#x2022;" horiz-adv-x="367" d="M184 238 C238 238 280 280 280 349 L280 358 C280 427 237 468 184 468 C130 468 88 427 88 358 L88 349 C88 280 129 238 184 238 L184 238 Z " />
<glyph glyph-name="ellipsis" unicode="&#x2026;" horiz-adv-x="544" d="M423 0 L487 0 L487 84 L423 84 L423 0 Z M240 0 L304 0 L304 84 L240 84 L240 0 Z M57 0 L121 0 L121 84 L57 84 L57 0 Z " />
<glyph glyph-name="perthousand" unicode="&#x2030;" horiz-adv-x="909" d="M158 405 C114 405 79 455 79 533 L79 539 C79 614 112 666 157 666 C202 666 236 615 236 538 L236 532 C236 456 203 405 158 405 L158 405 Z M157 365 C226 365 279 432 279 533 L279 539 C279 639 226 706 158 706 C90 706 37 639 37 538 L37 532 C37 432 89 365 157 365 L157 365 Z M520 700 L477 700 L290 358 L94 0 L137 0 L322 341 L520 700 Z M456 34 C412 34 377 84 377 162 L377 168 C377 243 410 295 455 295 C500 295 534 244 534 167 L534 161 C534 85 501 34 456 34 L456 34 Z M455 -6 C524 -6 577 61 577 162 L577 168 C577 268 524 335 456 335 C388 335 335 268 335 167 L335 161 C335 61 387 -6 455 -6 L455 -6 Z M752 34 C708 34 673 84 673 162 L673 168 C673 243 706 295 751 295 C796 295 830 244 830 167 L830 161 C830 85 798 34 752 34 L752 34 Z M751 -6 C820 -6 873 61 873 162 L873 168 C873 268 820 335 752 335 C684 335 631 268 631 167 L631 161 C631 61 684 -6 751 -6 L751 -6 Z " />
<glyph glyph-name="guilsinglleft" unicode="&#x2039;" horiz-adv-x="250" d="M173 43 L206 61 L89 256 L206 449 L173 467 L39 259 L39 251 L173 43 Z " />
<glyph glyph-name="guilsinglright" unicode="&#x203a;" horiz-adv-x="250" d="M77 43 L211 251 L211 259 L77 467 L44 449 L161 254 L44 61 L77 43 Z " />
<glyph glyph-name="fraction" unicode="&#x2044;" horiz-adv-x="75" d="M-157 0 L-119 0 L52 343 L232 701 L194 701 L24 357 L-157 0 Z " />
<glyph glyph-name="zero.sup" unicode="&#x2070;" horiz-adv-x="300" d="M152 446 C220 446 262 511 262 630 L262 635 C262 756 221 818 152 818 C83 818 42 754 42 634 L42 629 C42 509 83 446 152 446 L152 446 Z M152 784 C198 784 225 730 225 634 L225 629 C225 533 197 480 152 480 C107 480 79 534 79 630 L79 635 C79 731 105 784 152 784 L152 784 Z " />
<glyph glyph-name="four.sup" unicode="&#x2074;" horiz-adv-x="300" d="M229 530 L271 530 L271 561 L229 561 L229 815 L187 815 L37 557 L41 530 L195 530 L195 451 L229 451 L229 530 Z M195 561 L76 561 L192 762 L195 762 L195 561 Z " />
<glyph glyph-name="five.sup" unicode="&#x2075;" horiz-adv-x="300" d="M143 446 C212 446 257 496 257 564 C257 632 210 672 149 672 C126 672 106 666 91 660 L100 776 L241 776 L241 812 L68 812 L56 635 L81 622 C99 632 119 639 143 639 C186 639 220 616 220 563 C220 517 195 479 144 479 C112 479 84 495 62 516 L41 488 C69 460 110 446 143 446 L143 446 Z " />
<glyph glyph-name="six.sup" unicode="&#x2076;" horiz-adv-x="300" d="M152 446 C213 446 259 496 259 567 C259 643 213 681 158 681 C125 681 95 666 78 637 C81 736 118 784 169 784 C194 784 212 773 227 761 L246 791 C227 806 201 818 169 818 C97 818 43 754 43 619 L43 609 C43 535 58 496 83 472 C99 456 124 446 152 446 L152 446 Z M152 479 C108 479 82 515 82 567 C82 620 116 648 153 648 C194 648 223 621 223 567 C223 514 197 479 152 479 L152 479 Z " />
<glyph glyph-name="seven.sup" unicode="&#x2077;" horiz-adv-x="300" d="M118 451 L257 783 L257 812 L48 812 L48 776 L218 776 L78 451 L118 451 Z " />
<glyph glyph-name="eight.sup" unicode="&#x2078;" horiz-adv-x="300" d="M152 446 C217 446 262 486 262 549 C262 589 238 623 201 638 C231 653 253 683 253 722 C253 782 206 818 153 818 C99 818 52 782 52 722 C52 683 74 653 103 638 C67 622 43 589 43 548 C43 486 87 446 152 446 L152 446 Z M152 785 C191 785 217 759 217 722 C217 684 191 654 152 654 C114 654 88 684 88 722 C88 759 114 785 152 785 L152 785 Z M152 621 C196 621 227 590 227 548 C227 508 198 479 152 479 C107 479 78 508 78 548 C78 590 109 621 152 621 L152 621 Z " />
<glyph glyph-name="nine.sup" unicode="&#x2079;" horiz-adv-x="300" d="M154 818 C92 818 46 767 46 695 C46 618 92 579 147 579 C180 579 210 594 227 623 C224 528 187 480 136 480 C111 480 92 491 73 505 L54 475 C77 458 104 446 136 446 C208 446 262 510 262 645 L262 655 C262 729 246 769 222 792 C205 809 179 818 154 818 L154 818 Z M152 612 C111 612 82 640 82 695 C82 750 108 785 153 785 C197 785 223 750 223 697 C223 640 189 612 152 612 L152 612 Z " />
<glyph glyph-name="zero.inf" unicode="&#x2080;" horiz-adv-x="300" d="M152 -138 C220 -138 262 -73 262 46 L262 51 C262 172 221 234 152 234 C83 234 42 170 42 50 L42 45 C42 -75 83 -138 152 -138 L152 -138 Z M152 200 C198 200 225 146 225 50 L225 45 C225 -51 197 -104 152 -104 C107 -104 79 -50 79 46 L79 51 C79 147 105 200 152 200 L152 200 Z " />
<glyph glyph-name="one.inf" unicode="&#x2081;" horiz-adv-x="244" d="M156 -132 L156 230 L124 230 L41 189 L45 153 L120 189 L120 -132 L156 -132 Z " />
<glyph glyph-name="two.inf" unicode="&#x2082;" horiz-adv-x="300" d="M41 -132 L258 -132 L258 -97 L93 -97 L196 24 C232 67 254 94 254 141 C254 196 212 234 155 234 C106 234 75 211 44 175 L68 151 C85 169 110 199 153 199 C187 199 216 178 216 140 C216 108 200 83 167 43 L41 -106 L41 -132 Z " />
<glyph glyph-name="three.inf" unicode="&#x2083;" horiz-adv-x="300" d="M140 -138 C201 -138 254 -96 254 -32 C254 33 208 63 145 73 L251 201 L251 229 L48 229 L48 194 L204 194 L99 66 L102 43 L112 43 C180 42 217 16 217 -31 C217 -79 182 -105 143 -105 C102 -105 76 -85 56 -66 L34 -92 C57 -115 92 -138 140 -138 L140 -138 Z " />
<glyph glyph-name="four.inf" unicode="&#x2084;" horiz-adv-x="300" d="M229 -54 L271 -54 L271 -23 L229 -23 L229 231 L187 231 L37 -27 L41 -54 L195 -54 L195 -133 L229 -133 L229 -54 Z M195 -23 L76 -23 L192 178 L195 178 L195 -23 Z " />
<glyph glyph-name="five.inf" unicode="&#x2085;" horiz-adv-x="300" d="M143 -138 C212 -138 257 -88 257 -20 C257 48 210 88 149 88 C126 88 106 82 91 76 L100 192 L241 192 L241 228 L68 228 L56 51 L81 38 C99 48 119 55 143 55 C186 55 220 32 220 -21 C220 -67 195 -105 144 -105 C112 -105 84 -89 62 -68 L41 -96 C69 -124 110 -138 143 -138 L143 -138 Z " />
<glyph glyph-name="six.inf" unicode="&#x2086;" horiz-adv-x="300" d="M152 -138 C213 -138 259 -88 259 -17 C259 59 213 97 158 97 C125 97 95 82 78 53 C81 152 118 200 169 200 C194 200 212 189 227 177 L246 207 C227 222 201 234 169 234 C97 234 43 170 43 35 L43 25 C43 -49 58 -88 83 -112 C99 -128 124 -138 152 -138 L152 -138 Z M152 -105 C108 -105 82 -69 82 -17 C82 36 116 64 153 64 C194 64 223 37 223 -17 C223 -70 197 -105 152 -105 L152 -105 Z " />
<glyph glyph-name="seven.inf" unicode="&#x2087;" horiz-adv-x="300" d="M118 -133 L257 199 L257 228 L48 228 L48 192 L218 192 L78 -133 L118 -133 Z " />
<glyph glyph-name="eight.inf" unicode="&#x2088;" horiz-adv-x="300" d="M152 -138 C217 -138 262 -98 262 -35 C262 5 238 39 201 54 C231 69 253 99 253 138 C253 198 206 234 153 234 C99 234 52 198 52 138 C52 99 74 69 103 54 C67 38 43 5 43 -36 C43 -98 87 -138 152 -138 L152 -138 Z M152 201 C191 201 217 175 217 138 C217 100 191 70 152 70 C114 70 88 100 88 138 C88 175 114 201 152 201 L152 201 Z M152 37 C196 37 227 6 227 -36 C227 -76 198 -105 152 -105 C107 -105 78 -76 78 -36 C78 6 109 37 152 37 L152 37 Z " />
<glyph glyph-name="nine.inf" unicode="&#x2089;" horiz-adv-x="300" d="M154 234 C92 234 46 183 46 111 C46 34 92 -5 147 -5 C180 -5 210 10 227 39 C224 -56 187 -104 136 -104 C111 -104 92 -93 73 -79 L54 -109 C77 -126 104 -138 136 -138 C208 -138 262 -74 262 61 L262 71 C262 145 246 185 222 208 C205 225 179 234 154 234 L154 234 Z M152 28 C111 28 82 56 82 111 C82 166 108 201 153 201 C197 201 223 166 223 113 C223 56 189 28 152 28 L152 28 Z " />
<glyph glyph-name="colonmonetary" unicode="&#x20a1;" horiz-adv-x="443" d="M350 779 L339 697 C324 701 307 704 287 704 C281 704 275 704 270 703 L280 779 L241 779 L231 696 C127 666 52 548 52 357 L52 343 C52 207 89 109 146 52 L124 -118 L163 -118 L181 24 C202 11 224 3 248 -1 L233 -118 L272 -118 L287 -4 C345 -2 384 20 423 54 L397 86 C371 62 337 39 290 38 L367 636 C377 629 387 621 398 612 L425 646 C408 660 392 671 376 681 L389 779 L350 779 Z M186 77 L261 660 C269 661 277 662 286 662 C305 662 322 658 337 652 L258 41 C232 46 207 58 186 77 L186 77 Z M97 343 L97 357 C97 514 150 616 227 649 L157 109 C120 161 97 241 97 343 L97 343 Z " />
<glyph glyph-name="naira" unicode="&#x20a6;" horiz-adv-x="599" d="M571 241 L571 278 L491 278 L491 426 L571 426 L571 463 L491 463 L491 700 L447 700 L447 463 L277 463 L179 700 L108 700 L108 463 L28 463 L28 426 L108 426 L108 278 L28 278 L28 241 L108 241 L108 0 L152 0 L152 241 L326 241 L425 0 L491 0 L491 241 L571 241 Z M152 426 L247 426 L309 278 L152 278 L152 426 Z M292 426 L447 426 L447 278 L354 278 L292 426 Z M152 651 L232 461 L152 461 L152 651 Z M369 243 L447 243 L447 58 L369 243 Z " />
<glyph glyph-name="rupee" unicode="&#x20a8;" horiz-adv-x="768" d="M598 -7 C680 -7 735 47 735 126 L735 128 C735 191 700 231 612 287 C544 330 513 358 513 403 L513 405 C513 451 546 487 601 487 C635 487 674 473 706 445 L733 483 C692 514 648 528 603 528 C522 528 469 472 469 402 L469 400 C469 337 505 300 591 246 C661 202 691 173 691 127 L691 125 C691 74 657 34 600 34 C556 34 511 56 476 91 L448 54 C494 10 550 -7 598 -7 L598 -7 Z M60 0 L105 0 L105 279 L188 279 C196 279 208 279 212 280 L354 0 L407 0 L258 290 C338 317 391 388 391 491 L391 493 C391 621 310 700 186 700 L60 700 L60 0 Z M105 318 L105 659 L183 659 C282 659 346 601 346 492 L346 490 C346 382 284 318 190 318 L105 318 Z " />
<glyph glyph-name="won" unicode="&#x20a9;" horiz-adv-x="787" d="M718 700 L672 700 L631 464 L474 464 L425 701 L365 701 L316 464 L157 464 L118 700 L69 700 L112 464 L19 464 L19 427 L119 427 L147 277 L19 277 L19 240 L153 240 L198 -3 L254 -3 L306 240 L481 240 L533 -3 L589 -3 L633 240 L768 240 L768 277 L640 277 L668 427 L768 427 L768 464 L675 464 L718 700 Z M346 427 L441 427 L472 277 L314 277 L346 427 Z M163 427 L307 427 L277 277 L188 277 L163 427 Z M482 427 L626 427 L601 277 L513 277 L482 427 Z M393 650 L396 650 L434 464 L354 464 L393 650 Z M226 47 L194 240 L269 240 L230 47 L226 47 Z M560 47 L520 240 L595 240 L563 47 L560 47 Z " />
<glyph glyph-name="sheqel" unicode="&#x20aa;" horiz-adv-x="475" d="M178 139 C189 43 225 0 304 0 L420 0 L420 510 L377 510 L377 40 L309 40 C248 40 228 76 219 150 L195 349 L154 349 L178 139 Z M269 358 L269 171 L310 171 L310 360 C310 467 268 510 188 510 L55 510 L55 0 L98 0 L98 470 L183 470 C243 470 269 439 269 358 L269 358 Z " />
<glyph glyph-name="Euro" unicode="&#x20ac;" horiz-adv-x="485" d="M451 638 C412 681 373 707 311 707 C195 707 122 597 100 456 L28 456 L28 417 L95 417 C93 396 92 376 92 355 L92 342 C92 324 92 306 93 290 L28 290 L28 250 L98 250 C119 97 196 -7 310 -7 C372 -7 415 22 453 69 L422 98 C394 61 359 37 311 37 C229 37 166 118 146 250 L350 250 L350 290 L141 290 C139 307 139 326 139 345 L139 354 C139 375 140 396 142 417 L350 417 L350 456 L146 456 C166 575 224 663 310 663 C358 663 391 642 421 608 L451 638 Z " />
<glyph glyph-name="peso" unicode="&#x20b1;" horiz-adv-x="510" d="M95 0 L142 0 L142 251 L203 251 C334 251 424 332 431 460 L512 460 L512 497 L432 497 C426 622 340 700 211 700 L95 700 L95 497 L16 497 L16 460 L95 460 L95 0 Z M207 293 L142 293 L142 461 L385 461 C379 358 314 293 207 293 L207 293 Z M142 658 L208 658 C310 658 380 600 385 496 L142 496 L142 658 Z " />
<glyph glyph-name="published" unicode="&#x2117;" horiz-adv-x="630" d="M315 -11 C480 -11 596 148 596 339 L596 362 C596 554 481 711 315 711 C150 711 34 553 34 362 L34 338 C34 147 149 -11 315 -11 L315 -11 Z M315 15 C162 15 62 162 62 338 L62 362 C62 538 162 685 315 685 C468 685 569 538 569 362 L569 339 C569 163 468 15 315 15 L315 15 Z M230 168 L267 168 L267 301 L312 301 C382 302 437 345 437 425 L437 427 C437 503 386 546 315 546 L230 546 L230 168 Z M267 338 L267 510 L314 510 C365 510 399 481 399 425 L399 423 C399 368 367 338 314 338 L267 338 Z " />
<glyph glyph-name="servicemark" unicode="&#x2120;" horiz-adv-x="518" d="M255 387 L287 387 L287 641 L365 465 L369 465 L446 641 L446 387 L478 387 L478 700 L440 700 L367 536 L294 700 L255 700 L255 387 Z M116 383 C163 383 201 414 201 461 C201 500 180 526 129 561 C84 591 72 605 72 628 C72 656 92 674 120 674 C145 674 166 663 185 647 L203 674 C180 691 156 704 122 704 C73 704 38 672 38 627 C38 588 60 566 112 531 C158 501 167 484 167 459 C167 431 145 413 117 413 C89 413 69 426 46 446 L27 420 C54 396 82 383 116 383 L116 383 Z " />
<glyph glyph-name="trademark" unicode="&#x2122;" horiz-adv-x="494" d="M232 387 L263 387 L263 641 L341 465 L346 465 L423 641 L423 387 L455 387 L455 700 L417 700 L344 536 L271 700 L232 700 L232 387 Z M80 387 L112 387 L112 669 L180 669 L180 700 L12 700 L12 669 L80 669 L80 387 Z " />
<glyph glyph-name="onethird" unicode="&#x2153;" horiz-adv-x="620" d="M465 -6 C526 -6 579 36 579 100 C579 165 533 195 470 205 L576 333 L576 361 L373 361 L373 326 L529 326 L424 198 L427 175 L437 175 C505 174 542 148 542 101 C542 53 507 27 468 27 C427 27 401 47 381 66 L359 40 C382 17 417 -6 465 -6 L465 -6 Z M158 340 L158 702 L126 702 L43 661 L47 625 L122 661 L122 340 L158 340 Z M80 0 L118 0 L289 343 L469 701 L431 701 L261 357 L80 0 Z " />
<glyph glyph-name="twothirds" unicode="&#x2154;" horiz-adv-x="675" d="M524 -6 C585 -6 638 36 638 100 C638 165 592 195 529 205 L635 333 L635 361 L432 361 L432 326 L588 326 L483 198 L486 175 L496 175 C564 174 601 148 601 101 C601 53 566 27 527 27 C486 27 460 47 440 66 L418 40 C441 17 476 -6 524 -6 L524 -6 Z M37 340 L254 340 L254 375 L89 375 L192 496 C228 539 250 566 250 613 C250 668 208 706 151 706 C102 706 71 683 40 647 L64 623 C81 641 106 671 149 671 C183 671 212 650 212 612 C212 580 196 555 163 515 L37 366 L37 340 Z M146 0 L184 0 L355 343 L535 701 L497 701 L327 357 L146 0 Z " />
<glyph glyph-name="onefifth" unicode="&#x2155;" horiz-adv-x="620" d="M462 -6 C531 -6 576 44 576 112 C576 180 529 220 468 220 C445 220 425 214 410 208 L419 324 L560 324 L560 360 L387 360 L375 183 L400 170 C418 180 438 187 462 187 C505 187 539 164 539 111 C539 65 514 27 463 27 C431 27 403 43 381 64 L360 36 C388 8 429 -6 462 -6 L462 -6 Z M158 340 L158 702 L126 702 L43 661 L47 625 L122 661 L122 340 L158 340 Z M83 0 L121 0 L292 343 L472 701 L434 701 L264 357 L83 0 Z " />
<glyph glyph-name="twofifths" unicode="&#x2156;" horiz-adv-x="675" d="M530 -6 C599 -6 644 44 644 112 C644 180 597 220 536 220 C513 220 493 214 478 208 L487 324 L628 324 L628 360 L455 360 L443 183 L468 170 C486 180 506 187 530 187 C573 187 607 164 607 111 C607 65 582 27 531 27 C499 27 471 43 449 64 L428 36 C456 8 497 -6 530 -6 L530 -6 Z M152 0 L190 0 L361 343 L541 701 L503 701 L333 357 L152 0 Z M37 340 L254 340 L254 375 L89 375 L192 496 C228 539 250 566 250 613 C250 668 208 706 151 706 C102 706 71 683 40 647 L64 623 C81 641 106 671 149 671 C183 671 212 650 212 612 C212 580 196 555 163 515 L37 366 L37 340 Z " />
<glyph glyph-name="threefifths" unicode="&#x2157;" horiz-adv-x="675" d="M530 -6 C599 -6 644 44 644 112 C644 180 597 220 536 220 C513 220 493 214 478 208 L487 324 L628 324 L628 360 L455 360 L443 183 L468 170 C486 180 506 187 530 187 C573 187 607 164 607 111 C607 65 582 27 531 27 C499 27 471 43 449 64 L428 36 C456 8 497 -6 530 -6 L530 -6 Z M142 0 L180 0 L351 343 L531 701 L493 701 L323 357 L142 0 Z M132 334 C193 334 246 376 246 440 C246 505 200 535 137 545 L243 673 L243 701 L40 701 L40 666 L196 666 L91 538 L94 515 L104 515 C172 514 209 488 209 441 C209 393 174 367 135 367 C94 367 68 387 48 406 L26 380 C49 357 84 334 132 334 L132 334 Z " />
<glyph glyph-name="fourfifths" unicode="&#x2158;" horiz-adv-x="675" d="M222 418 L264 418 L264 449 L222 449 L222 703 L180 703 L30 445 L34 418 L188 418 L188 339 L222 339 L222 418 Z M188 449 L69 449 L185 650 L188 650 L188 449 Z M530 -6 C599 -6 644 44 644 112 C644 180 597 220 536 220 C513 220 493 214 478 208 L487 324 L628 324 L628 360 L455 360 L443 183 L468 170 C486 180 506 187 530 187 C573 187 607 164 607 111 C607 65 582 27 531 27 C499 27 471 43 449 64 L428 36 C456 8 497 -6 530 -6 L530 -6 Z M148 0 L186 0 L357 343 L537 701 L499 701 L329 357 L148 0 Z " />
<glyph glyph-name="onesixth" unicode="&#x2159;" horiz-adv-x="620" d="M465 -6 C526 -6 572 44 572 115 C572 191 526 229 471 229 C438 229 408 214 391 185 C394 284 431 332 482 332 C507 332 525 321 540 309 L559 339 C540 354 514 366 482 366 C410 366 356 302 356 167 L356 157 C356 83 371 44 396 20 C412 4 437 -6 465 -6 L465 -6 Z M89 0 L127 0 L298 343 L478 701 L440 701 L270 357 L89 0 Z M465 27 C421 27 395 63 395 115 C395 168 429 196 466 196 C507 196 536 169 536 115 C536 62 510 27 465 27 L465 27 Z M158 340 L158 702 L126 702 L43 661 L47 625 L122 661 L122 340 L158 340 Z " />
<glyph glyph-name="fivesixths" unicode="&#x215a;" horiz-adv-x="675" d="M533 -6 C594 -6 640 44 640 115 C640 191 594 229 539 229 C506 229 476 214 459 185 C462 284 499 332 550 332 C575 332 593 321 608 309 L627 339 C608 354 582 366 550 366 C478 366 424 302 424 167 L424 157 C424 83 439 44 464 20 C480 4 505 -6 533 -6 L533 -6 Z M139 334 C208 334 253 384 253 452 C253 520 206 560 145 560 C122 560 102 554 87 548 L96 664 L237 664 L237 700 L64 700 L52 523 L77 510 C95 520 115 527 139 527 C182 527 216 504 216 451 C216 405 191 367 140 367 C108 367 80 383 58 404 L37 376 C65 348 106 334 139 334 L139 334 Z M144 0 L182 0 L353 343 L533 701 L495 701 L325 357 L144 0 Z M533 27 C489 27 463 63 463 115 C463 168 497 196 534 196 C575 196 604 169 604 115 C604 62 578 27 533 27 L533 27 Z " />
<glyph glyph-name="oneeighth" unicode="&#x215b;" horiz-adv-x="620" d="M465 -6 C530 -6 575 34 575 97 C575 137 551 171 514 186 C544 201 566 231 566 270 C566 330 519 366 466 366 C412 366 365 330 365 270 C365 231 387 201 416 186 C380 170 356 137 356 96 C356 34 400 -6 465 -6 L465 -6 Z M465 333 C504 333 530 307 530 270 C530 232 504 202 465 202 C427 202 401 232 401 270 C401 307 427 333 465 333 L465 333 Z M465 169 C509 169 540 138 540 96 C540 56 511 27 465 27 C420 27 391 56 391 96 C391 138 422 169 465 169 L465 169 Z M158 340 L158 702 L126 702 L43 661 L47 625 L122 661 L122 340 L158 340 Z M89 0 L127 0 L298 343 L478 701 L440 701 L270 357 L89 0 Z " />
<glyph glyph-name="threeeighths" unicode="&#x215c;" horiz-adv-x="675" d="M533 -6 C598 -6 643 34 643 97 C643 137 619 171 582 186 C612 201 634 231 634 270 C634 330 587 366 534 366 C480 366 433 330 433 270 C433 231 455 201 484 186 C448 170 424 137 424 96 C424 34 468 -6 533 -6 L533 -6 Z M533 333 C572 333 598 307 598 270 C598 232 572 202 533 202 C495 202 469 232 469 270 C469 307 495 333 533 333 L533 333 Z M533 169 C577 169 608 138 608 96 C608 56 579 27 533 27 C488 27 459 56 459 96 C459 138 490 169 533 169 L533 169 Z M144 0 L182 0 L353 343 L533 701 L495 701 L325 357 L144 0 Z M136 334 C197 334 250 376 250 440 C250 505 204 535 141 545 L247 673 L247 701 L44 701 L44 666 L200 666 L95 538 L98 515 L108 515 C176 514 213 488 213 441 C213 393 178 367 139 367 C98 367 72 387 52 406 L30 380 C53 357 88 334 136 334 L136 334 Z " />
<glyph glyph-name="fiveeighths" unicode="&#x215d;" horiz-adv-x="675" d="M533 -6 C598 -6 643 34 643 97 C643 137 619 171 582 186 C612 201 634 231 634 270 C634 330 587 366 534 366 C480 366 433 330 433 270 C433 231 455 201 484 186 C448 170 424 137 424 96 C424 34 468 -6 533 -6 L533 -6 Z M533 333 C572 333 598 307 598 270 C598 232 572 202 533 202 C495 202 469 232 469 270 C469 307 495 333 533 333 L533 333 Z M533 169 C577 169 608 138 608 96 C608 56 579 27 533 27 C488 27 459 56 459 96 C459 138 490 169 533 169 L533 169 Z M144 0 L182 0 L353 343 L533 701 L495 701 L325 357 L144 0 Z M139 334 C208 334 253 384 253 452 C253 520 206 560 145 560 C122 560 102 554 87 548 L96 664 L237 664 L237 700 L64 700 L52 523 L77 510 C95 520 115 527 139 527 C182 527 216 504 216 451 C216 405 191 367 140 367 C108 367 80 383 58 404 L37 376 C65 348 106 334 139 334 L139 334 Z " />
<glyph glyph-name="seveneighths" unicode="&#x215e;" horiz-adv-x="675" d="M521 -6 C586 -6 631 34 631 97 C631 137 607 171 570 186 C600 201 622 231 622 270 C622 330 575 366 522 366 C468 366 421 330 421 270 C421 231 443 201 472 186 C436 170 412 137 412 96 C412 34 456 -6 521 -6 L521 -6 Z M521 333 C560 333 586 307 586 270 C586 232 560 202 521 202 C483 202 457 232 457 270 C457 307 483 333 521 333 L521 333 Z M521 169 C565 169 596 138 596 96 C596 56 567 27 521 27 C476 27 447 56 447 96 C447 138 478 169 521 169 L521 169 Z M120 339 L259 671 L259 700 L50 700 L50 664 L220 664 L80 339 L120 339 Z M110 0 L148 0 L319 343 L499 701 L461 701 L291 357 L110 0 Z " />
<glyph glyph-name="minus" unicode="&#x2212;" horiz-adv-x="438" d="M395 329 L395 375 L43 375 L43 329 L395 329 Z " />
<glyph glyph-name="f_f" unicode="&#xfb00;" horiz-adv-x="517" d="M88 0 L132 0 L132 480 L245 480 L245 521 L132 521 L132 577 C132 643 157 674 205 674 C217 674 235 671 249 667 L249 710 C236 713 219 716 205 716 C170 716 143 706 123 686 C101 663 88 627 88 578 L88 521 L28 521 L28 480 L88 480 L88 0 Z M347 0 L391 0 L391 480 L503 480 L503 521 L391 521 L391 577 C391 643 415 674 464 674 C476 674 493 671 507 667 L507 710 C495 713 478 716 463 716 C429 716 401 706 382 686 C359 663 347 627 347 578 L347 521 L287 521 L287 480 L347 480 L347 0 Z " />
<glyph glyph-name="fi" unicode="&#xfb01;" horiz-adv-x="444" d="M88 0 L132 0 L132 480 L245 480 L245 521 L132 521 L132 577 C132 643 157 674 205 674 C217 674 235 671 249 667 L249 710 C236 713 219 716 205 716 C170 716 143 706 123 686 C101 663 88 627 88 578 L88 521 L28 521 L28 480 L88 480 L88 0 Z M329 0 L373 0 L373 521 L329 521 L329 0 Z M326 639 L376 639 L376 708 L326 708 L326 639 Z " />
<glyph glyph-name="fl" unicode="&#xfb02;" horiz-adv-x="444" d="M88 0 L132 0 L132 480 L245 480 L245 521 L132 521 L132 577 C132 643 157 674 205 674 C217 674 235 671 249 667 L249 710 C236 713 219 716 205 716 C170 716 143 706 123 686 C101 663 88 627 88 578 L88 521 L28 521 L28 480 L88 480 L88 0 Z M329 0 L373 0 L373 714 L329 714 L329 0 Z " />
<glyph glyph-name="f_f_i" unicode="&#xfb03;" horiz-adv-x="702" d="M88 0 L132 0 L132 480 L245 480 L245 521 L132 521 L132 577 C132 643 157 674 205 674 C217 674 235 671 249 667 L249 710 C236 713 219 716 205 716 C170 716 143 706 123 686 C101 663 88 627 88 578 L88 521 L28 521 L28 480 L88 480 L88 0 Z M347 0 L391 0 L391 480 L503 480 L503 521 L391 521 L391 577 C391 643 415 674 464 674 C476 674 493 671 507 667 L507 710 C495 713 478 716 463 716 C429 716 401 706 382 686 C359 663 347 627 347 578 L347 521 L287 521 L287 480 L347 480 L347 0 Z M588 0 L632 0 L632 521 L588 521 L588 0 Z M584 639 L635 639 L635 708 L584 708 L584 639 Z " />
<glyph glyph-name="f_f_l" unicode="&#xfb04;" horiz-adv-x="702" d="M88 0 L132 0 L132 480 L245 480 L245 521 L132 521 L132 577 C132 643 157 674 205 674 C217 674 235 671 249 667 L249 710 C236 713 219 716 205 716 C170 716 143 706 123 686 C101 663 88 627 88 578 L88 521 L28 521 L28 480 L88 480 L88 0 Z M347 0 L391 0 L391 480 L503 480 L503 521 L391 521 L391 577 C391 643 415 674 464 674 C476 674 493 671 507 667 L507 710 C495 713 478 716 463 716 C429 716 401 706 382 686 C359 663 347 627 347 578 L347 521 L287 521 L287 480 L347 480 L347 0 Z M588 0 L632 0 L632 714 L588 714 L588 0 Z " />
</font>
</svg>
