<svg xmlns="http://www.w3.org/2000/svg" id="logo" width="173.317" height="100"><defs><style>.cls-2{fill-rule:evenodd}.cls-2,.cls-4{fill:#161615}</style></defs><path id="Path_1" fill="#fff" fill-rule="evenodd" d="M31.03 174.871a3.811 3.811 0 01.124-2.521c.6-1.088 6.034-4.9 7.688-6.087s4.522-5.045 5.948-6.486 1.781-1.8 6.223-2.328 8.365-4.488 11.066-5.417 2.952-2.144 4.488-3.216 3.473-5.183 10.338-3.964 12.143-.272 15.767-.694a77.016 77.016 0 0111.21-.41c2.331.163 9.777 1.638 11.406 1.912s4.893.453 7.927.629 9.761 2.37 11.613 3.135 7.478 1.038 11.767 2.7 3.624 5.141 7.667 7.41 10 4.828 11.738 5.836 6.508 6.226 8.5 7.734c2.136 1.621 1.378 2.987.882 4.08a95.525 95.525 0 00-7.8-7.355 101.163 101.163 0 00-136.552 5.042z" transform="translate(-18.351 -77.183)"/><path id="Path_2" d="M136.232 86.621a4.24 4.24 0 01-2.28 1.065c-3.465.619-3.066-1.437-4.7-1.942a2.046 2.046 0 00-1.758.045 1.7 1.7 0 00-.894 1.383 1.978 1.978 0 00.669 1.549 4.108 4.108 0 002.086.8c5.61.609 6.877-2.9 6.877-2.9zM20.768 106.37a15.042 15.042 0 00-6.478 7.862 10.048 10.048 0 001.6 9.464 9.91 9.91 0 007.742 4.5 13.423 13.423 0 008.183-2.458 54.982 54.982 0 005.4-4.382 4.558 4.558 0 01-.793-1.221l-3.4-6.637a4.237 4.237 0 01-.494-1.322l-.039-.074q-2.068 1.159-4.1 2.4l.042.072a1.938 1.938 0 011.755.69 8.61 8.61 0 011.178 1.789l2.211 4.085a15.245 15.245 0 01-3.134 2.667 8.039 8.039 0 01-6.34 1.165 8.908 8.908 0 01-5.635-3.876 8.079 8.079 0 01-1.388-6.607 9.208 9.208 0 014.176-5.685c2.332-1.517 4.345-1.952 5.943-1.384l.1-.058-1.743-3.275a21.584 21.584 0 00-4.783 2.279zm33.3 7.785l-.023-.082a2.281 2.281 0 01-1.729-1.426 18.937 18.937 0 01-.916-2.347l-4-11.585a17.025 17.025 0 01-.734-2.481 2.3 2.3 0 01.666-2.273l-.062-.1q-2.957 1.065-5.866 2.276l.041.105a2.154 2.154 0 011.882 1.285 17.144 17.144 0 01.992 2.345L47.713 109a5.835 5.835 0 01.477 3.007 5.075 5.075 0 01-3.048 3.78c-2.741 1.251-4.967.047-6.739-3.773l-3.608-7.841a17.067 17.067 0 01-.962-2.358 2.341 2.341 0 01.4-2.315l-.047-.1q-2.84 1.391-5.629 2.922l.05.1a2.066 2.066 0 012.027 1.059 16.158 16.158 0 011.22 2.229l3.792 7.757a22.161 22.161 0 001.646 2.952 6.1 6.1 0 002.45 2.085 6.309 6.309 0 005.576-.176 6.715 6.715 0 004.126-4.683l.743 2q1.93-.783 3.884-1.49zM33.892 93.95a1.762 1.762 0 00-1.545.04 2.415 2.415 0 00-1.2 1.208 1.871 1.871 0 00.024 1.614 1.977 1.977 0 001.133 1.027 1.832 1.832 0 001.536-.039 2.23 2.23 0 001.15-1.183 2 2 0 00-.02-1.582 2.026 2.026 0 00-1.078-1.085zm7.071-3.108a1.855 1.855 0 00-1.551-.018 2.371 2.371 0 00-1.267 1.141 1.9 1.9 0 00-.047 1.607 2 2 0 001.083 1.1 1.879 1.879 0 001.557.025 2.2 2.2 0 001.211-1.115 2.022 2.022 0 00.047-1.6 1.945 1.945 0 00-1.033-1.14zm26.809 16.593a16.226 16.226 0 002.184 1.834 7.724 7.724 0 002.537 1l-3.07-18.028a8.943 8.943 0 01-.176-2.395 3.025 3.025 0 011.164-1.946l-.017-.11c-1.9.321-3.8.684-5.686 1.087l.021.112a2.778 2.778 0 011.791 1.379 9.649 9.649 0 01.63 2.312l2.273 12.138A131.106 131.106 0 0055.08 92.892l-.607-.5a1.936 1.936 0 01-.684-.645c-1.556.416-3.1.915-4.625 1.44l.032.106a2.949 2.949 0 011.962 1.143 9.233 9.233 0 01.885 2.223l3.788 12.4a10.6 10.6 0 01.509 2.341 3.324 3.324 0 01-.725 2.113l.023.081q2.358-.812 4.741-1.519l-.02-.08a3.132 3.132 0 01-1.72-1.327 10.713 10.713 0 01-.823-2.24l-3.473-12.069a130.2 130.2 0 0113.428 11.076zm8.11-.889a3.214 3.214 0 01-.852 2.149l.015.086q3.316-.525 6.656-.851a11.269 11.269 0 007.254-3.3 11 11 0 003.152-8.174c-.018-3.433-1.157-6.1-3.554-7.9a12.1 12.1 0 00-8.653-2.03q-4 .386-7.985 1.012l.018.114c.737.092 1.258.622 1.563 1.582a17.276 17.276 0 01.456 2.52l1.669 12.185a20.3 20.3 0 01.26 2.607zm3.957-17.611c2.75-.272 4.916.332 6.423 1.717s2.279 3.495 2.368 6.283a8.174 8.174 0 01-2.166 6.231 8.621 8.621 0 01-5.544 2.5 8.806 8.806 0 01-2.1-.019L77 89.614a11.266 11.266 0 012.838-.679zm17.238-.416a9.971 9.971 0 00-3.7 8.048 11.793 11.793 0 003 8.2 10.667 10.667 0 0014.772 1.288 11.82 11.82 0 004.414-7.583 10.1 10.1 0 00-2.072-8.4 11.046 11.046 0 00-7.767-4.089 11.339 11.339 0 00-8.648 2.536zm13.809 3.3a9.919 9.919 0 011.166 6.7 9.444 9.444 0 01-2.767 5.73 6.978 6.978 0 01-10.592-1.432 10.742 10.742 0 01-1.842-6.487 8.471 8.471 0 012.386-6.067 7.3 7.3 0 016.063-1.973 6.937 6.937 0 015.585 3.53zm20.94-.757a13.623 13.623 0 00-9.765.321A9.668 9.668 0 00116.552 99a11.012 11.012 0 001.959 9.022 13.3 13.3 0 007.13 4.64 50.035 50.035 0 006.675 1.173 4.745 4.745 0 01.325-1.433l2.38-7.1a4.223 4.223 0 01.595-1.276l.03-.08q-2.205-.8-4.43-1.518l-.027.08a2.1 2.1 0 01.689 1.817 8.879 8.879 0 01-.464 2.114l-1.382 4.463a14.037 14.037 0 01-3.957-.6 8.182 8.182 0 01-5.011-4.093 9.821 9.821 0 01-1.021-6.963 7.834 7.834 0 013.676-5.532 8.3 8.3 0 016.727-.629c2.611.768 4.263 2.015 4.934 3.627l.106.036 1.128-3.558a21.283 21.283 0 00-4.789-2.127zm3.687 22.241a3.067 3.067 0 01-1.749 1.458l-.027.08q3.166 1.2 6.26 2.6a11.274 11.274 0 007.935.794 10.335 10.335 0 006.576-5.543 9.5 9.5 0 00.524-8.74 12.805 12.805 0 00-6.686-6.172q-3.715-1.684-7.508-3.128l-.036.1a2.035 2.035 0 01.639 2.17 16.434 16.434 0 01-.766 2.442l-4.182 11.514a19.374 19.374 0 01-.981 2.422zm11.656-13.442a8.464 8.464 0 014.871 4.76c.693 1.985.391 4.225-.826 6.711a7.708 7.708 0 01-4.8 4.355 8.617 8.617 0 01-6.05-.626 9.16 9.16 0 01-1.844-1.076l5.836-14.957a11.332 11.332 0 012.812.834zm17.115 32.583l.051-.067a2.5 2.5 0 01.169-2.317 17.54 17.54 0 011.361-2.1l7.012-9.889a16.6 16.6 0 011.569-2.009 2.062 2.062 0 012.2-.646l.041-.11q-2.522-2.05-5.126-3.96l-.062.093a2.374 2.374 0 01.035 2.37 16.224 16.224 0 01-1.317 2.163l-5.389 8.005a5.386 5.386 0 01-2.137 2.069 4.794 4.794 0 01-4.73-.615c-2.53-1.725-2.811-4.333-.757-8l4.241-7.483a16.639 16.639 0 011.347-2.144 2.1 2.1 0 012.066-.927l.056-.1q-2.694-1.727-5.457-3.313l-.053.1a2.281 2.281 0 01.284 2.357 17.586 17.586 0 01-1.1 2.3l-4.073 7.6a22.548 22.548 0 00-1.438 3.068 6.63 6.63 0 00-.3 3.3 6.955 6.955 0 003.253 4.79c2.11 1.426 4.093 1.8 6.055 1.071l-1.185 1.75q1.713 1.288 3.383 2.645z" class="cls-2" transform="translate(-9.43 -46.92)"/><path id="Path_3" fill="#ffbf00" fill-rule="evenodd" d="M194.857 26.494c1.528-11.675 11.8-20.7 24.251-20.7A25.008 25.008 0 01229 7.815a30.073 30.073 0 00-6.509-.709 29.033 29.033 0 00-27.634 19.388zm-3.1 5.681A28.308 28.308 0 11246.1 43.434a6.524 6.524 0 00-2.442-1.864c-3.562-1.24-3.871-2.791-5.885-4.184s-4.493-6.662-13.633-5.266-16.309-2.735-20.915-1.239c-1.845.598-6.792 1.019-11.47 1.294z" transform="translate(-102.716 -4)"/><g id="Group_1" transform="translate(0 9.852)"><path id="Path_4" d="M66.476 80.333l.691 2.4 1.564-.448-.686-2.4z" class="cls-4" transform="translate(-36.894 -53.371)"/><path id="Rectangle_1" d="M0 0h1.627v2.494H0z" class="cls-4" transform="rotate(-15.973 109.787 -99.687)"/><path id="Path_5" d="M177.718 77.626c-.77-1.393-2.239-1.844-4.4-3.393s-5.862-6.508-7.713-8.365-2.315-2.324-8.174-3.1-10.954-5.888-14.5-7.128-3.854-2.787-5.86-4.182S132.6 44.8 123.5 46.192s-16.039-.619-20.824-1.238a106.017 106.017 0 00-14.806-.774c-1.03.051-2.818.279-4.855.5a.534.534 0 01-.122-.291c-.015-.066-.074-.2-.092-.306a1.345 1.345 0 01-.015-.36.871.871 0 000-.3.994.994 0 01-.035-.373c.026-.147.071-.268.1-.463.015-.1.1-.177.113-.209a.76.76 0 00.047-.189.738.738 0 01.03-.235l.032-.431a1.476 1.476 0 00.134-.3l-.018-.268c-.015-.03.056-.194.062-.254a.842.842 0 00-.03-.244c-.021-.081.026-.174.077-.364a.68.68 0 00.427-.228c.251-.231.24-.389.24-.389a.433.433 0 00-.332-.033 1.211 1.211 0 00-.379.195c-.128.1-.122.082-.278-.061l-.287-.045c-.106-.056-.171-.059-.358.084l-.249.216c-.047.1-.174.079-.243.046a.427.427 0 00-.228-.085c-.109 0-.174.011-.449.188a.6.6 0 00.307.236c.2.085.231.126.34.122s.243-.029.275.08-.035.143-.2.128a1.411 1.411 0 00-.258 0l-.367.1c-.154 0-.145.023-.311.018a2.054 2.054 0 00-.329.034c-.1.008-.122.011-.29.015a2.146 2.146 0 00-.267 0c-.147.035-.177.016-.37.073a.94.94 0 00-.367.125c-.127.086-.207.117-.2.151a1.569 1.569 0 00-.288.313 1.288 1.288 0 00-.092.227 1.771 1.771 0 00-.023.312l.056.325a.538.538 0 01.065.222 1.245 1.245 0 00.059.308c-.008.1.021.107.021.273 0 .143.018.175.009.192a.92.92 0 01-.053.38.35.35 0 00-.054.183.835.835 0 00.065.226 1.58 1.58 0 00.032.357c.041.144.13.391.133.431l.03.364v.185l-2.146.337c.08-.07.065-.219-.089-.37s-.47-.214-.5-.139c-.015.05-.032-.108-.2-.139a1.121 1.121 0 01-.077-.45c.015-.223.109-.577.107-.781s-.062-.236 0-.45a3.668 3.668 0 00.084-.808c.011-.33-.074-.521.077-.645s.563-.18.758-.748a3.9 3.9 0 011.157-1.557 6.993 6.993 0 01.933-.839s.314-.287.524-.221a1.054 1.054 0 00.808.087c.328-.143.373-.156.636-.264s.578-.3.705-.274a1.01 1.01 0 00.734.143.55.55 0 00.406-.706c-.115-.294-.209-.374-.4-.362a1.569 1.569 0 01-.585-.1c-.139-.05-.294-.226-.459-.293s-.272-.068-.326-.151-.041-.178-.155-.265a1.149 1.149 0 00-.393-.173 2.166 2.166 0 00-.639-.1 4.158 4.158 0 01-.148-.457c-.045-.191-.139-.561-.234-.594s-.225-.036-.29.154-.184 1-.184 1l-.1-.61c-.1-.014-.139.122-.13.217v.43a8.97 8.97 0 01-1.217-.18c-.326-.106-.61-.066-.829-.129s-.991-.147-1.291-.255a2.768 2.768 0 00-.812-.219 1.923 1.923 0 00-1.05.226 3.994 3.994 0 01-1.126.288c-.27.045-1.368.235-1.916.294a8.876 8.876 0 01-1.385.062c-.245-.015-1.007 0-1.33-.007a5.081 5.081 0 00-1.11.121c-.47.089-.784.188-1.2.236a1.519 1.519 0 00-.974.449c-.148.206-.66.51-.738 1.1a5.2 5.2 0 00.222 1.639c.072.379.222 1.165.258 1.5a16.933 16.933 0 01-.024 1.7 3.305 3.305 0 00.019 1.022 5.1 5.1 0 00.308.752l-.143-.489a2.4 2.4 0 01.115.253 2.5 2.5 0 00.113.351c.059.1.269.387.3.436s.059-.062.051-.15a3.255 3.255 0 00-.095-.323.949.949 0 01.134.315 2.05 2.05 0 00-.027-.415 4.841 4.841 0 00-.275-.553 1.242 1.242 0 01-.118-.563c.036-.156.147-.242.281-.442a.793.793 0 00.1-.566c-.023-.122-.316-1.079-.346-1.247a8.185 8.185 0 01-.083-1.139s.254 1.179.388 1.664.284.954.041 1.274c-.2.269-.32.294-.341.54a1.367 1.367 0 00.225.645 5.809 5.809 0 01.489 1.357 8.933 8.933 0 01.127 1.043l-3.443.14a27.219 27.219 0 00-4.062.577 24.057 24.057 0 01-.888-2.8 12.323 12.323 0 01-.1-2.031 2.391 2.391 0 104.2-2.142 2.216 2.216 0 001.1-2.115 2.551 2.551 0 00-3.061-1.834 3.259 3.259 0 00-1.049.327 2.159 2.159 0 10-4.097 1.28 2.081 2.081 0 00-2.7.659 1.109 1.109 0 00-.209-.05 2.058 2.058 0 00.408-1.741 2.13 2.13 0 00-.811-1.527 1.955 1.955 0 00.032-.709 1.907 1.907 0 00-.195-.614 1.75 1.75 0 00.648-1.718c-.134-.931-.821-1.606-1.537-1.5a1.064 1.064 0 00-.548.255 4.923 4.923 0 00-.064-.723 1.4 1.4 0 00.8.129A1.977 1.977 0 0051.5 28.3a1.972 1.972 0 00-1.981-1.91 4.651 4.651 0 00-.6.161 2.045 2.045 0 00-2.066-1.974 2.051 2.051 0 00-1.444 2.473 2.8 2.8 0 00.246.823c-.574.1-.938.916-.809 1.836s.717 1.621 1.306 1.537a3.715 3.715 0 00.077.372 1.893 1.893 0 00-.7 1.9 1.938 1.938 0 001.655 1.8c-.675.1-1.114.961-.974 1.936.127.9.7 1.579 1.315 1.6a1.227 1.227 0 00.3.595 1.082 1.082 0 00-.394 1 1.106 1.106 0 001.345.9 2.658 2.658 0 00-.122 1.139l-2.043-.7-11.548 3.718-.32-1.118-1.557.448.332 1.17-2.052.66-2.383 5.583.3.188 1.456-.45 1.075 4.027a18.573 18.573 0 00-2.366 1.086l-1.433-5.232-.006-.254a.976.976 0 00.3-.012c.672-.144 1.057-1.022.859-1.961a1.7 1.7 0 00-1.326-1.458A1.845 1.845 0 0028.2 46.6a1.92 1.92 0 00-.82-1.316 1.7 1.7 0 00-.018-.635 1.765 1.765 0 00-.21-.542 1.559 1.559 0 00.471-1.574 1.387 1.387 0 00-1.469-1.252.983.983 0 00-.476.262 4.107 4.107 0 00-.1-.641 1.234 1.234 0 00.723.064 2 2 0 00-.8-3.808 3.992 3.992 0 00-.53.184A1.836 1.836 0 0023 35.706a1.849 1.849 0 00-1.143 2.3 2.615 2.615 0 00.275.722c-.509.126-.785.879-.61 1.7s.74 1.406 1.264 1.293a2.372 2.372 0 00.095.327 1.7 1.7 0 00-.5 1.75 1.732 1.732 0 001.593 1.508c-.6.127-.936.932-.755 1.795.171.8.725 1.369 1.279 1.35a1.132 1.132 0 00.308.513.964.964 0 00-.288.916.99.99 0 001.259.72 2.437 2.437 0 00-.015 1.148c.2.977.887 1.656 1.545 1.518l1.245 4.434c-.221.146-.435.291-.642.44a2.534 2.534 0 00-.284-.71 2.375 2.375 0 00-.847-.839 2.226 2.226 0 00.184-2.375 2.544 2.544 0 00-3.532-.489 3.362 3.362 0 00-.834.712 2.163 2.163 0 00-3.633 2.347 2.266 2.266 0 00.346.441 2.054 2.054 0 00-1.257.29 2.092 2.092 0 00.873 3.874 1.785 1.785 0 001.445 1.983C15.607 65.847 16.527 65.6 14.3 66.8c-2.313 1.24-4.237 2.162-7.1 3.717a4.02 4.02 0 00-2.37 4.539 137.36 137.36 0 0183.625-28.245c32.821 0 60.441 11.149 83.445 28.332a70.307 70.307 0 016.039 5.2 4.212 4.212 0 00-.221-2.717zM79.157 36.663s.261-.158.367-.093c.065.042-.213-.043-.332.325s-.221.419-.041.327.243-.119.3-.247a1.381 1.381 0 00.1-.309s.057-.109.146-.122-.018.2-.018.2l-.009.325c0 .142-.216.23-.474.32s-.293.234-.332-.211.293-.515.293-.515zM22.321 62.307a1.821 1.821 0 00.139-.673.672.672 0 00.482.29zm1.19-.759a1.663 1.663 0 00.234-1.339 2.348 2.348 0 00.776.61c-.321.241-.652.481-1.01.729zm27.781-18.607l.012-.284a1 1 0 00.34.012 1.033 1.033 0 00.465-.191 1.71 1.71 0 00-.012.58 1.736 1.736 0 00.254.7l-1.829-.632a7.179 7.179 0 00.77-.185zm-4.45 7.743c-2.433.919-8.475 3.043-14.118 5.037l-1.068-3.988 11.986-3.722 3.18-5.1 6.43 2.144.974 3.414c-3.138.813-6.113 1.739-7.384 2.215zm8.213-2.422l-.962-3.374.835-.241-.471-.163a1.771 1.771 0 001.022-.965c.349 1.178.817 2.824.9 3.392a9.19 9.19 0 01.063 1.019zm18.7-11.528c.956-.2 1.484.717 1.279.975s-.5.415-.541.661.026.635-.347.856-.7.259-.791.66.042.687-.062 1a1.432 1.432 0 01-.891.816c-.323.026-.991-.7-1.241-.96s-.293-.361-.423-.439a.5.5 0 01-.181-.479 1.178 1.178 0 00-.142-.673c-.13-.22-.293-.363-.284-.675.038-1.501 2.669-1.546 3.62-1.742zm-7.756 3.884a2.676 2.676 0 011.178-1.23c.417-.216.72-.065 1.09-.195s.687-.418 1.2.217a1.542 1.542 0 01.077 1.742c-.2.558-.086.72-.3.907s-.453-.067-.72.206-.323.852-.859.73a2.715 2.715 0 01-1.069-.669c-.487-.632-.785-1.205-.602-1.709zm1.376 5.973a1.168 1.168 0 01-.441.187l-.213.009a.53.53 0 01-.278-.468c-.024-.271-.065-1.4-.065-1.4a11.034 11.034 0 00.2 1.556.386.386 0 00.172.211.291.291 0 00.287.012 1.471 1.471 0 00.376-.208 1 1 0 01.272-.167zm.743.087c-.038-.047.027-.023.148.035zm4.642-.329c-1.062.151-2.646.267-4.461.362a1.821 1.821 0 00-.322-.432c-.125-.1-.232-.162-.24-.134a.37.37 0 00-.216-.152c-.1-.035-.219-.046-.293-.076s-.157-.263-.246-.438a3.258 3.258 0 01.044-.427c.027-.149.036-.4-.059-.474-.048-.026.1.027.142.116l-.051.545c-.011.118-.03.2.009.242a.273.273 0 00.2.07c.062-.008.183-.021.21-.072s.08-.363.168-.626c0 0 .155.005.308 0 .053.167.118.384.151.467.056.138.157.15.3.075s.134-.207.119-.324l.042-.383.346.346c.08.085.172.183.338.107s.228-.161.156-.3-.382-.605-.27-.692a1.193 1.193 0 00.148-.184 11.412 11.412 0 001.211-.076 5.034 5.034 0 001.95-.594c.584-.375.85-.574 1.172-.738s.5-.274.61-.242a.326.326 0 01.243.265c.042.156.2.553.3.831s.092.512.184.716a3.679 3.679 0 01.411 1.169c.067.348.112.52.142.629-1.234.195-2.22.347-2.75.424zm2.472-7.064a.982.982 0 01.512-.676 1.931 1.931 0 011.3-.2c.717.33.107.417-.189.883s-.6 1.03-1.036.906a.786.786 0 01-.591-.913zM76.3 45.75a8.66 8.66 0 01-.1-.387 1.893 1.893 0 00.176.423zm3.181-.535a1.261 1.261 0 01-.106-.3 3.45 3.45 0 01-.052-.386 1.178 1.178 0 010-.19.837.837 0 01.077-.239c.018.126.018.173.023.2l.032.412c.009.158 0 .171.011.357 0 .037.01.134.2.192zm2.458-.291l-2.131.323c.038-.008.121-.015.144-.231l-.064-.373a3.2 3.2 0 01-.021-.378l.053-.407.074-.23.186-.27.143-.358.237-.012c.112 0 .148-.047.334-.05l.249-.011a.541.541 0 01.2-.028.393.393 0 01.113.181 1.376 1.376 0 00.148.234c.055.086.055.143.154.333a2.992 2.992 0 01.056.3l.088.277a1.965 1.965 0 01.054.4c.004.128-.017.276-.017.299zm.448-.076a3.325 3.325 0 01-.1-.436.852.852 0 01.018-.248c.027-.156.01-.254.036-.446a2.312 2.312 0 01-.163-.334.926.926 0 01-.059-.3 2.4 2.4 0 00.03-.245l.06.314.055.235.1.2c.023.119.035.239.052.288a4.452 4.452 0 01.157.475 1.439 1.439 0 01.056.464z" class="cls-4" transform="translate(-4.744 -24.558)"/><path id="Rectangle_2" d="M0 0h1.627v2.495H0z" class="cls-4" transform="rotate(-15.964 108.677 -106.954)"/><path id="Rectangle_3" d="M0 0h3.144v2.386H0z" class="cls-4" transform="rotate(-16.05 100.39 -131.956)"/><path id="Rectangle_4" d="M0 0h3.144v2.386H0z" class="cls-4" transform="rotate(-16.049 98.496 -147.129)"/></g><path id="Path_6" d="M31.03 174.871a3.811 3.811 0 01.124-2.521c.6-1.088 6.034-4.9 7.688-6.087s4.522-5.045 5.948-6.486 1.781-1.8 6.223-2.328 8.365-4.488 11.066-5.417 2.952-2.144 4.488-3.216 3.473-5.183 10.338-3.964 12.143-.272 15.767-.694a77.016 77.016 0 0111.21-.41c2.331.163 9.777 1.638 11.406 1.912s4.893.453 7.927.629 9.761 2.37 11.613 3.135 7.478 1.038 11.767 2.7 3.624 5.141 7.667 7.41 10 4.828 11.738 5.836 6.508 6.226 8.5 7.734c2.136 1.621 1.378 2.987.882 4.08a95.525 95.525 0 00-7.8-7.355 101.163 101.163 0 00-136.552 5.042z" class="cls-2" transform="translate(-18.351 -77.183)"/></svg>