<svg xmlns="http://www.w3.org/2000/svg" width="147.669" height="85.201" viewBox="0 0 147.669 85.201"><path d="M31.007,170.14A3.217,3.217,0,0,1,31.113,168c.512-.923,5.146-4.154,6.556-5.164s3.856-4.279,5.072-5.5,1.519-1.524,5.307-1.975,7.134-3.807,9.436-4.6,2.518-1.819,3.827-2.728,2.961-4.4,8.815-3.362,10.355-.231,13.445-.589a66.02,66.02,0,0,1,9.559-.348c1.987.139,8.337,1.39,9.727,1.622s4.172.385,6.76.533,8.324,2.01,9.9,2.659,6.377.881,10.034,2.291,3.09,4.361,6.538,6.286,8.531,4.1,10.009,4.951,5.549,5.282,7.244,6.561c1.821,1.375,1.175,2.534.752,3.461a81.28,81.28,0,0,0-6.652-6.239A86.6,86.6,0,0,0,31.007,170.14Z" transform="translate(-20.251 -86.9)" fill="#fff" fill-rule="evenodd"/><path d="M118.134,86.462a3.62,3.62,0,0,1-1.943.9c-2.953.525-2.613-1.219-4-1.648a1.751,1.751,0,0,0-1.5.038,1.437,1.437,0,0,0-.762,1.174,1.675,1.675,0,0,0,.57,1.314,3.51,3.51,0,0,0,1.778.678C117.054,89.439,118.134,86.462,118.134,86.462Zm-98.4,16.754a12.772,12.772,0,0,0-5.521,6.669,8.492,8.492,0,0,0,1.364,8.029,8.454,8.454,0,0,0,6.6,3.819,11.478,11.478,0,0,0,6.974-2.085,46.821,46.821,0,0,0,4.6-3.717,3.866,3.866,0,0,1-.676-1.035l-2.894-5.63a3.584,3.584,0,0,1-.421-1.122l-.033-.063q-1.762.983-3.5,2.039l.036.061a1.656,1.656,0,0,1,1.5.585,7.3,7.3,0,0,1,1,1.518l1.884,3.465a12.977,12.977,0,0,1-2.671,2.262,6.878,6.878,0,0,1-5.4.989,7.593,7.593,0,0,1-4.8-3.288,6.828,6.828,0,0,1-1.183-5.605,7.813,7.813,0,0,1,3.559-4.822c1.987-1.287,3.7-1.656,5.065-1.174l.083-.05-1.486-2.778a18.433,18.433,0,0,0-4.076,1.933Zm28.382,6.6-.02-.07a1.942,1.942,0,0,1-1.473-1.209,16.021,16.021,0,0,1-.782-2l-3.41-9.827a14.391,14.391,0,0,1-.625-2.1,1.945,1.945,0,0,1,.567-1.928l-.053-.082q-2.52.9-5,1.931l.035.089a1.836,1.836,0,0,1,1.6,1.09A14.508,14.508,0,0,1,39.8,97.7l2.893,7.745A4.929,4.929,0,0,1,43.1,108a4.31,4.31,0,0,1-2.6,3.207c-2.336,1.061-4.233.04-5.744-3.2l-3.075-6.652a14.438,14.438,0,0,1-.82-2,1.979,1.979,0,0,1,.338-1.963l-.04-.087q-2.421,1.18-4.8,2.479l.043.085a1.763,1.763,0,0,1,1.728.9,13.688,13.688,0,0,1,1.039,1.891l3.232,6.58a18.776,18.776,0,0,0,1.4,2.5,5.2,5.2,0,0,0,2.088,1.768,5.4,5.4,0,0,0,4.752-.15,5.7,5.7,0,0,0,3.517-3.973l.633,1.694Q46.447,110.419,48.112,109.819Zm-17.2-17.14a1.508,1.508,0,0,0-1.317.034,2.054,2.054,0,0,0-1.022,1.024,1.581,1.581,0,0,0,.021,1.37,1.682,1.682,0,0,0,.966.872,1.568,1.568,0,0,0,1.309-.033,1.9,1.9,0,0,0,.981-1,1.688,1.688,0,0,0-.017-1.342A1.722,1.722,0,0,0,30.915,92.679Zm6.026-2.637a1.587,1.587,0,0,0-1.322-.015,2.017,2.017,0,0,0-1.08.968,1.6,1.6,0,0,0-.04,1.363,1.7,1.7,0,0,0,.923.937,1.608,1.608,0,0,0,1.327.021,1.871,1.871,0,0,0,1.032-.946,1.708,1.708,0,0,0,.04-1.36A1.653,1.653,0,0,0,36.941,90.042Zm22.848,14.076a13.815,13.815,0,0,0,1.861,1.556,6.6,6.6,0,0,0,2.162.848L61.2,91.229a7.552,7.552,0,0,1-.15-2.031,2.564,2.564,0,0,1,.993-1.653l-.015-.093c-1.62.272-3.239.581-4.846.922l.018.095a2.366,2.366,0,0,1,1.526,1.17,8.156,8.156,0,0,1,.537,1.961L61.2,101.9A111.622,111.622,0,0,0,48.973,91.782l-.517-.42a1.646,1.646,0,0,1-.583-.547c-1.326.353-2.64.776-3.942,1.222l.028.09a2.515,2.515,0,0,1,1.672.97,7.812,7.812,0,0,1,.754,1.886L49.613,105.5a8.96,8.96,0,0,1,.434,1.986,2.812,2.812,0,0,1-.618,1.792l.02.068q2.009-.689,4.04-1.288l-.017-.067a2.668,2.668,0,0,1-1.466-1.126,9.063,9.063,0,0,1-.7-1.9L48.344,94.723A110.859,110.859,0,0,1,59.788,104.118Zm6.912-.754a2.719,2.719,0,0,1-.726,1.823l.013.073q2.826-.445,5.673-.722a9.624,9.624,0,0,0,6.182-2.8,9.308,9.308,0,0,0,2.687-6.934A7.9,7.9,0,0,0,77.5,88.1a10.35,10.35,0,0,0-7.371-1.723q-3.413.327-6.805.859l.015.1c.628.078,1.072.528,1.332,1.342a14.6,14.6,0,0,1,.389,2.137l1.423,10.337A17.137,17.137,0,0,1,66.7,103.364Zm3.372-14.939a6.818,6.818,0,0,1,5.474,1.457,7.2,7.2,0,0,1,2.018,5.33,6.915,6.915,0,0,1-1.846,5.285,7.363,7.363,0,0,1-4.725,2.117A7.539,7.539,0,0,1,69.2,102.6L67.656,89A9.639,9.639,0,0,1,70.072,88.425Zm14.691-.353A8.442,8.442,0,0,0,81.612,94.9a9.977,9.977,0,0,0,2.56,6.955,9.121,9.121,0,0,0,12.589,1.093,10.018,10.018,0,0,0,3.761-6.432,8.541,8.541,0,0,0-1.766-7.125,9.427,9.427,0,0,0-6.619-3.468A9.7,9.7,0,0,0,84.763,88.072Zm11.769,2.8a8.381,8.381,0,0,1,.994,5.683,8,8,0,0,1-2.359,4.861A5.963,5.963,0,0,1,86.14,100.2a9.082,9.082,0,0,1-1.57-5.5A7.168,7.168,0,0,1,86.6,89.552a6.242,6.242,0,0,1,5.168-1.674,5.915,5.915,0,0,1,4.76,2.994Zm17.846-.642a11.66,11.66,0,0,0-8.322.272,8.2,8.2,0,0,0-4.694,6.46,9.308,9.308,0,0,0,1.67,7.653,11.34,11.34,0,0,0,6.076,3.936,42.827,42.827,0,0,0,5.689,1,4.01,4.01,0,0,1,.277-1.216l2.028-6.025a3.575,3.575,0,0,1,.507-1.082l.025-.067q-1.879-.681-3.775-1.288l-.023.068a1.775,1.775,0,0,1,.587,1.541,7.5,7.5,0,0,1-.4,1.794l-1.178,3.786a12.015,12.015,0,0,1-3.372-.508,6.966,6.966,0,0,1-4.27-3.472,8.3,8.3,0,0,1-.87-5.907,6.645,6.645,0,0,1,3.133-4.693,7.106,7.106,0,0,1,5.733-.533c2.225.652,3.633,1.709,4.205,3.076l.091.031.961-3.018A18.181,18.181,0,0,0,114.378,90.23Zm3.142,18.867a2.612,2.612,0,0,1-1.49,1.237l-.023.067q2.7,1.02,5.335,2.209a9.649,9.649,0,0,0,6.762.674,8.8,8.8,0,0,0,5.6-4.7,8.03,8.03,0,0,0,.447-7.414,10.893,10.893,0,0,0-5.7-5.235q-3.166-1.429-6.4-2.653l-.031.089a1.722,1.722,0,0,1,.545,1.841,13.894,13.894,0,0,1-.653,2.071l-3.564,9.768A16.4,16.4,0,0,1,117.521,109.1Zm9.934-11.4a6.477,6.477,0,0,1,3.448,9.731,6.559,6.559,0,0,1-4.094,3.694,7.375,7.375,0,0,1-5.156-.531,7.816,7.816,0,0,1-1.572-.913l4.974-12.688A9.692,9.692,0,0,1,127.454,97.694Zm14.587,27.64.043-.057a2.108,2.108,0,0,1,.144-1.966,14.872,14.872,0,0,1,1.16-1.781l5.976-8.388a14.09,14.09,0,0,1,1.337-1.7,1.763,1.763,0,0,1,1.872-.548l.035-.093q-2.149-1.739-4.369-3.359l-.053.079a2.006,2.006,0,0,1,.03,2.011,13.746,13.746,0,0,1-1.122,1.835l-4.593,6.791a4.582,4.582,0,0,1-1.822,1.755,4.1,4.1,0,0,1-4.031-.522c-2.157-1.463-2.4-3.675-.645-6.783l3.614-6.348a14.114,14.114,0,0,1,1.148-1.819,1.791,1.791,0,0,1,1.761-.786l.048-.083q-2.3-1.465-4.651-2.811l-.045.083a1.928,1.928,0,0,1,.242,2,14.893,14.893,0,0,1-.939,1.95l-3.471,6.446a19.09,19.09,0,0,0-1.226,2.6,5.6,5.6,0,0,0-.252,2.8A5.9,5.9,0,0,0,135,120.7a5.462,5.462,0,0,0,5.161.908l-1,1.487Q140.618,124.183,142.041,125.334Z" transform="translate(-10.084 -52.412)" fill="#fff" fill-rule="evenodd"/><path d="M194.386,23.081a20.536,20.536,0,0,1,20.572-17.56,21.214,21.214,0,0,1,8.392,1.715,25.511,25.511,0,0,0-5.522-.6A24.628,24.628,0,0,0,194.386,23.081ZM191.755,27.9a24.013,24.013,0,1,1,46.1,9.551,5.534,5.534,0,0,0-2.071-1.581c-3.022-1.052-3.284-2.368-4.992-3.549s-3.811-5.651-11.565-4.467-13.835-2.32-17.742-1.051C199.92,27.311,195.723,27.664,191.755,27.9Z" transform="translate(-115.732 -4)" fill="#ffbf00" fill-rule="evenodd"/><g transform="translate(0 8.357)"><path d="M66.476,80.265l.586,2.034,1.327-.38-.582-2.035Z" transform="translate(-41.381 -57.393)" fill="#fff"/><rect width="1.38" height="2.116" transform="translate(26.867 22.363) rotate(-15.973)" fill="#fff"/><path d="M152.12,69.576c-.656-1.182-1.907-1.565-3.746-2.879s-4.995-5.52-6.571-7.1-1.973-1.972-6.964-2.629-9.333-4.994-12.354-6.046-3.284-2.364-4.992-3.548-3.813-5.65-11.565-4.469-13.665-.525-17.742-1.05A90.72,90.72,0,0,0,75.57,41.2c-.877.043-2.4.237-4.136.424a.452.452,0,0,1-.1-.247c-.013-.056-.063-.172-.078-.26a1.135,1.135,0,0,1-.013-.305.736.736,0,0,0,0-.259.84.84,0,0,1-.03-.316c.022-.124.061-.228.088-.393.013-.089.088-.15.1-.178a.642.642,0,0,0,.04-.16.623.623,0,0,1,.025-.2l.028-.366a1.249,1.249,0,0,0,.114-.252l-.015-.228c-.013-.025.048-.165.053-.215a.712.712,0,0,0-.025-.207c-.018-.068.022-.148.065-.309a.58.58,0,0,0,.363-.194c.214-.2.2-.33.2-.33a.37.37,0,0,0-.283-.028,1.033,1.033,0,0,0-.323.165c-.109.085-.1.07-.237-.052l-.245-.038c-.091-.047-.146-.05-.305.071l-.212.183c-.04.084-.148.067-.207.039a.365.365,0,0,0-.194-.072c-.093,0-.148.009-.383.159a.515.515,0,0,0,.262.2c.167.072.2.107.29.1s.207-.024.235.067-.03.122-.174.109a1.207,1.207,0,0,0-.22,0l-.313.082c-.131,0-.124.02-.265.015a1.758,1.758,0,0,0-.28.028c-.089.007-.1.009-.247.013a1.836,1.836,0,0,0-.227,0c-.126.03-.151.014-.315.062a.8.8,0,0,0-.313.106c-.108.073-.176.1-.174.128a1.333,1.333,0,0,0-.245.266,1.09,1.09,0,0,0-.078.193,1.5,1.5,0,0,0-.02.265l.048.276a.455.455,0,0,1,.055.189,1.052,1.052,0,0,0,.05.261c-.007.089.018.091.018.232,0,.121.015.149.008.163a.778.778,0,0,1-.045.322.3.3,0,0,0-.046.155.706.706,0,0,0,.056.191,1.334,1.334,0,0,0,.028.3c.035.122.111.331.113.366l.025.309,0,.157-1.828.286c.068-.06.055-.186-.076-.314s-.4-.181-.429-.118c-.013.042-.027-.092-.167-.118a.948.948,0,0,1-.065-.382c.013-.189.093-.489.091-.662s-.053-.2,0-.382a3.1,3.1,0,0,0,.072-.685c.01-.28-.063-.442.065-.547s.479-.153.646-.635a3.312,3.312,0,0,1,.986-1.321,5.95,5.95,0,0,1,.795-.711s.267-.243.447-.187a.9.9,0,0,0,.689.074c.279-.121.317-.132.542-.224s.492-.259.6-.232a.864.864,0,0,0,.625.122.466.466,0,0,0,.346-.6c-.1-.25-.178-.317-.341-.307a1.342,1.342,0,0,1-.5-.083c-.119-.042-.25-.192-.391-.248s-.232-.058-.278-.128-.035-.151-.132-.224a.981.981,0,0,0-.335-.146,1.853,1.853,0,0,0-.545-.081,3.514,3.514,0,0,1-.126-.388c-.038-.162-.119-.476-.2-.5a.175.175,0,0,0-.247.131c-.05.159-.157.85-.157.85l-.083-.517c-.088-.012-.118.1-.111.184v.365a7.673,7.673,0,0,1-1.037-.152c-.278-.09-.52-.056-.707-.11s-.845-.125-1.1-.217a2.367,2.367,0,0,0-.691-.186,1.645,1.645,0,0,0-.895.191,3.414,3.414,0,0,1-.959.245c-.23.038-1.166.2-1.633.25a7.6,7.6,0,0,1-1.18.053c-.209-.013-.858,0-1.133-.006a4.347,4.347,0,0,0-.946.1c-.4.075-.668.16-1.024.2a1.3,1.3,0,0,0-.83.381c-.126.174-.562.433-.628.936a4.393,4.393,0,0,0,.189,1.39c.061.321.189.989.22,1.268a14.3,14.3,0,0,1-.02,1.445,2.792,2.792,0,0,0,.016.867,4.319,4.319,0,0,0,.262.638l-.122-.415a2.029,2.029,0,0,1,.1.214,2.112,2.112,0,0,0,.1.3c.05.088.229.328.257.37s.05-.053.043-.128a2.752,2.752,0,0,0-.081-.274.8.8,0,0,1,.114.267,1.732,1.732,0,0,0-.023-.352,4.1,4.1,0,0,0-.235-.469,1.049,1.049,0,0,1-.1-.478c.03-.133.126-.206.239-.375a.67.67,0,0,0,.086-.48c-.02-.1-.27-.915-.295-1.058a6.914,6.914,0,0,1-.071-.966s.217,1,.331,1.412.242.809.035,1.081c-.172.228-.272.25-.29.458a1.157,1.157,0,0,0,.192.547,4.914,4.914,0,0,1,.416,1.151,7.548,7.548,0,0,1,.108.885l-2.933.119a23.286,23.286,0,0,0-3.461.489,20.343,20.343,0,0,1-.757-2.376,10.408,10.408,0,0,1-.083-1.723,2.036,2.036,0,0,0,3.962-.88,2.013,2.013,0,0,0-.386-.937,1.877,1.877,0,0,0,.933-1.794,2.174,2.174,0,0,0-2.608-1.556,2.785,2.785,0,0,0-.894.278,1.839,1.839,0,1,0-3.5,1.082,1.778,1.778,0,0,0-2.3.559.948.948,0,0,0-.178-.043,1.74,1.74,0,0,0,.348-1.477,1.805,1.805,0,0,0-.691-1.3,1.652,1.652,0,0,0,.028-.6,1.612,1.612,0,0,0-.166-.521,1.481,1.481,0,0,0,.552-1.458c-.114-.79-.7-1.362-1.31-1.276a.908.908,0,0,0-.467.217,4.159,4.159,0,0,0-.055-.613,1.193,1.193,0,0,0,.681.109,1.677,1.677,0,0,0,1.176-2.022,1.678,1.678,0,0,0-1.688-1.62,3.976,3.976,0,0,0-.512.136,1.739,1.739,0,0,0-1.761-1.675,1.739,1.739,0,0,0-1.231,2.1,2.365,2.365,0,0,0,.209.7c-.489.087-.8.777-.689,1.558s.611,1.375,1.113,1.3a3.142,3.142,0,0,0,.065.315,1.6,1.6,0,0,0-.593,1.615,1.647,1.647,0,0,0,1.41,1.528c-.575.081-.949.815-.83,1.642.109.765.593,1.339,1.12,1.357a1.04,1.04,0,0,0,.26.5.916.916,0,0,0-.336.845.942.942,0,0,0,1.146.762,2.245,2.245,0,0,0-.1.966l-1.74-.6-9.848,3.163L30.3,41.38l-1.327.38.283.992-1.748.56-2.03,4.736.257.159,1.24-.382.916,3.416a15.857,15.857,0,0,0-2.018.926l-1.221-4.438,0-.215a.836.836,0,0,0,.26-.01c.572-.122.9-.867.732-1.663a1.441,1.441,0,0,0-1.13-1.237,1.56,1.56,0,0,0,.219-1.344,1.628,1.628,0,0,0-.7-1.116,1.437,1.437,0,0,0-.015-.539,1.493,1.493,0,0,0-.179-.46,1.319,1.319,0,0,0,.4-1.335,1.18,1.18,0,0,0-1.252-1.062.838.838,0,0,0-.406.222,3.47,3.47,0,0,0-.086-.544,1.056,1.056,0,0,0,.616.054,1.7,1.7,0,0,0-.684-3.23,3.413,3.413,0,0,0-.452.156,1.563,1.563,0,0,0-1.682-1.39,1.567,1.567,0,0,0-.974,1.955,2.213,2.213,0,0,0,.235.613c-.433.107-.669.746-.52,1.438s.631,1.192,1.077,1.1a2.005,2.005,0,0,0,.081.278,1.435,1.435,0,0,0-.429,1.484,1.473,1.473,0,0,0,1.357,1.279c-.51.108-.8.791-.643,1.522.146.678.618,1.161,1.09,1.146a.96.96,0,0,0,.262.435.815.815,0,0,0-.245.777.844.844,0,0,0,1.073.611,2.058,2.058,0,0,0-.013.974c.174.829.756,1.4,1.316,1.287l1.067,3.762c-.189.124-.37.247-.547.373a2.144,2.144,0,0,0-.242-.6,2.019,2.019,0,0,0-.722-.712,1.882,1.882,0,0,0,.157-2.015,2.174,2.174,0,0,0-3.009-.415,2.861,2.861,0,0,0-.711.6,1.841,1.841,0,0,0-3.1,1.991,1.923,1.923,0,0,0,.295.374,1.756,1.756,0,0,0-1.071.246,1.773,1.773,0,0,0,.744,3.286,1.514,1.514,0,0,0,1.231,1.682c-4.059,2.1-3.274,1.893-5.171,2.9-1.971,1.052-3.61,1.834-6.046,3.153A3.406,3.406,0,0,0,4.818,67.4a117.365,117.365,0,0,1,71.25-23.96c27.964,0,51.5,9.458,71.1,24.034a59.831,59.831,0,0,1,5.146,4.411A3.559,3.559,0,0,0,152.12,69.576ZM68.145,34.827s.222-.134.313-.079c.055.036-.182-.036-.283.276s-.188.356-.035.278.207-.1.26-.21a1.168,1.168,0,0,0,.086-.262s.048-.093.124-.1-.015.172-.015.172l-.007.276c0,.121-.184.2-.4.271s-.25.2-.283-.179S68.145,34.827,68.145,34.827ZM19.72,56.58a1.539,1.539,0,0,0,.119-.571.573.573,0,0,0,.411.246Zm1.014-.644a1.405,1.405,0,0,0,.2-1.136,2,2,0,0,0,.661.517C21.324,55.523,21.039,55.728,20.734,55.937ZM44.4,40.152l.01-.241a.855.855,0,0,0,.29.01.882.882,0,0,0,.4-.162,1.444,1.444,0,0,0-.01.492,1.468,1.468,0,0,0,.217.593l-1.558-.536A6.14,6.14,0,0,0,44.4,40.152Zm-3.792,6.568c-2.073.779-7.221,2.581-12.029,4.272l-.91-3.383,10.212-3.157,2.709-4.325,5.479,1.819.83,2.9C44.23,45.531,41.7,46.317,40.612,46.721Zm7-2.055L46.79,41.8l.711-.2-.4-.139a1.506,1.506,0,0,0,.87-.819c.3,1,.7,2.4.764,2.878a7.763,7.763,0,0,1,.053.865Zm15.928-9.78c.815-.165,1.264.608,1.089.827s-.428.352-.461.561.022.539-.3.726-.6.22-.674.56.036.583-.053.848a1.218,1.218,0,0,1-.759.692c-.275.022-.845-.593-1.057-.815s-.25-.306-.361-.373a.421.421,0,0,1-.154-.407,1,1,0,0,0-.121-.571c-.111-.187-.25-.308-.242-.573C60.487,35.091,62.726,35.054,63.538,34.887ZM56.93,38.181a2.274,2.274,0,0,1,1-1.043c.356-.183.613-.055.928-.165s.585-.355,1.024.184a1.3,1.3,0,0,1,.065,1.478c-.172.474-.073.611-.257.77s-.386-.057-.613.174-.275.722-.732.619a2.314,2.314,0,0,1-.911-.567C57.028,39.095,56.774,38.608,56.93,38.181ZM58.1,43.248a1,1,0,0,1-.376.159l-.181.008a.45.45,0,0,1-.237-.4c-.02-.23-.055-1.186-.055-1.186a9.322,9.322,0,0,0,.167,1.32.328.328,0,0,0,.146.179.249.249,0,0,0,.245.01,1.255,1.255,0,0,0,.32-.176.857.857,0,0,1,.232-.141Zm.633.074c-.033-.04.023-.019.126.03Zm3.955-.279c-.9.128-2.255.227-3.8.307a1.545,1.545,0,0,0-.274-.367c-.106-.083-.2-.138-.2-.114a.315.315,0,0,0-.184-.129c-.081-.03-.187-.039-.25-.064s-.134-.223-.209-.371a2.756,2.756,0,0,1,.037-.362c.023-.126.031-.339-.05-.4-.041-.022.085.023.121.1l-.043.463c-.01.1-.025.165.007.206a.233.233,0,0,0,.174.059c.053-.007.156-.018.179-.061s.068-.308.143-.531c0,0,.132,0,.263,0,.046.141.1.326.129.4.048.117.134.128.259.063s.114-.175.1-.275l.035-.325.3.293c.068.072.146.155.288.091s.194-.137.133-.25-.325-.513-.23-.587a1.013,1.013,0,0,0,.126-.157,9.767,9.767,0,0,0,1.032-.064,4.3,4.3,0,0,0,1.662-.5c.5-.318.724-.487,1-.626s.424-.233.52-.2a.277.277,0,0,1,.207.225c.036.133.169.469.258.705s.078.435.157.608a3.113,3.113,0,0,1,.35.991c.057.3.1.441.121.533C63.983,42.849,63.143,42.978,62.691,43.043ZM64.8,37.051a.834.834,0,0,1,.436-.573,1.652,1.652,0,0,1,1.1-.174c.611.28.091.354-.161.749s-.515.874-.883.768A.667.667,0,0,1,64.8,37.051Zm.913,5.484c-.018-.048-.084-.328-.084-.328a1.6,1.6,0,0,0,.15.359Zm2.711-.454a1.066,1.066,0,0,1-.091-.251,2.911,2.911,0,0,1-.045-.328,1,1,0,0,1,0-.161.708.708,0,0,1,.065-.2c.015.107.015.147.02.172l.028.35c.007.134,0,.145.01.3,0,.032.008.113.169.163Zm2.094-.247-1.815.274c.032-.007.1-.013.123-.2l-.055-.317a2.7,2.7,0,0,1-.018-.32l.045-.346.063-.2.159-.229.122-.3.2-.011c.1,0,.126-.04.285-.042l.212-.009a.463.463,0,0,1,.174-.024.333.333,0,0,1,.1.154,1.167,1.167,0,0,0,.126.2c.047.073.047.121.131.282a2.528,2.528,0,0,1,.048.259l.075.235a1.66,1.66,0,0,1,.046.342C70.533,41.688,70.515,41.812,70.515,41.834Zm.381-.065a2.812,2.812,0,0,1-.089-.37.72.72,0,0,1,.015-.21c.023-.133.008-.215.03-.378a1.957,1.957,0,0,1-.139-.284.783.783,0,0,1-.05-.258,2.032,2.032,0,0,0,.025-.208l.051.266.047.2.084.17c.02.1.03.2.045.244a3.765,3.765,0,0,1,.134.4,1.216,1.216,0,0,1,.048.394Z" transform="translate(-4.744 -24.558)" fill="#fff"/><rect width="1.38" height="2.116" transform="translate(28.635 21.856) rotate(-15.964)" fill="#fff"/><rect width="2.667" height="2.024" transform="matrix(0.961, -0.277, 0.277, 0.961, 34.482, 19.224)" fill="#fff"/><rect width="2.667" height="2.024" transform="translate(37.93 18.235) rotate(-16.049)" fill="#fff"/></g><path d="M31.007,170.14A3.217,3.217,0,0,1,31.113,168c.512-.923,5.146-4.154,6.556-5.164s3.856-4.279,5.072-5.5,1.519-1.524,5.307-1.975,7.134-3.807,9.436-4.6,2.518-1.819,3.827-2.728,2.961-4.4,8.815-3.362,10.355-.231,13.445-.589a66.02,66.02,0,0,1,9.559-.348c1.987.139,8.337,1.39,9.727,1.622s4.172.385,6.76.533,8.324,2.01,9.9,2.659,6.377.881,10.034,2.291,3.09,4.361,6.538,6.286,8.531,4.1,10.009,4.951,5.549,5.282,7.244,6.561c1.821,1.375,1.175,2.534.752,3.461a81.28,81.28,0,0,0-6.652-6.239A86.6,86.6,0,0,0,31.007,170.14Z" transform="translate(-20.251 -86.9)" fill="#fff" fill-rule="evenodd"/></svg>